
<svg width="100" height="100" viewBox="0 0 100 100" fill="none" xmlns="http://www.w3.org/2000/svg">
<g clip-path="url(#clip0_1903_3745)">
<path d="M100 37.2244V93.7758H23.958C22.6843 93.7758 21.6541 92.7436 21.6541 91.4719V29.4338C21.6541 28.1602 22.6843 27.1299 23.958 27.1299H51.8976C52.5072 27.1299 53.0927 27.3713 53.5253 27.8039L59.9679 34.2465C60.4005 34.6791 60.9861 34.9205 61.5976 34.9205H97.6962C98.9679 34.9207 100 35.9529 100 37.2244Z" fill="#756F6F"/>
<path d="M63.2942 46.1533C66.3959 46.1533 68.9104 43.6389 68.9104 40.5371C68.9104 37.4354 66.3959 34.9209 63.2942 34.9209C60.1924 34.9209 57.678 37.4354 57.678 40.5371C57.678 43.6389 60.1924 46.1533 63.2942 46.1533Z" fill="#5B5555"/>
<path d="M42.6783 53.7939C43.6924 54.8061 42.9762 56.5404 41.5416 56.5404H23.8072C23.0809 56.5404 22.3625 56.5041 21.6543 56.4357V29.4338C21.6543 28.1602 22.6846 27.1299 23.9582 27.1299H43.9803C44.9139 29.5463 45.427 32.1742 45.427 34.9207C45.427 40.8906 43.0064 46.2949 39.0949 50.2084L42.6783 53.7939Z" fill="#5B5555"/>
<path d="M100 37.2248V93.7762H92.3503V37.2248C92.3503 35.9531 91.32 34.9209 90.0464 34.9209H97.6962C98.9681 34.9211 100 35.9533 100 37.2248Z" fill="#5B5555"/>
<path d="M76.5038 64.8863L100 93.7762H22.7487C22.0554 93.7762 21.3991 93.4639 20.9616 92.926L0.520812 67.7932C-0.703407 66.2879 0.367687 64.0361 2.30792 64.0361H74.7165C75.4101 64.0361 76.0665 64.3484 76.5038 64.8863Z" fill="#64B9FC"/>
<path d="M100 93.7756H90.0927L66.5978 64.8863C66.1591 64.349 65.5032 64.0352 64.811 64.0352H74.7165C75.4106 64.0352 76.0665 64.349 76.5032 64.8863L100 93.7756Z" fill="#31A7FB"/>
<path d="M82.5052 86.9992H62.1796C61.5513 86.9992 60.9591 86.7057 60.5784 86.2057L55.3694 79.3613C54.8653 78.699 55.3378 77.7461 56.17 77.7461H76.4956C77.1239 77.7461 77.7161 78.0396 78.0968 78.5396L83.3058 85.384C83.8099 86.0461 83.3376 86.9992 82.5052 86.9992Z" fill="#F8F3F1"/>
<path d="M82.5053 86.9994H75.966C76.799 86.9994 77.2719 86.0477 76.7668 85.3838L71.5576 78.5408C71.1773 78.0398 70.5857 77.7461 69.958 77.7461H76.4953C77.125 77.7461 77.7166 78.0398 78.0969 78.5408L83.3061 85.3838C83.809 86.0478 83.3383 86.9994 82.5053 86.9994Z" fill="#EFE2DD"/>
<path d="M50.0001 88.5082H40.7673C39.9339 88.5082 39.2583 87.8326 39.2583 86.9992C39.2583 86.1658 39.9339 85.4902 40.7673 85.4902H50.0001C50.8335 85.4902 51.5091 86.1658 51.5091 86.9992C51.5091 87.8326 50.8335 88.5082 50.0001 88.5082Z" fill="#F8F3F1"/>
<path d="M46.6308 83.5033H42.7119C41.8785 83.5033 41.2029 82.8277 41.2029 81.9943C41.2029 81.1609 41.8785 80.4854 42.7119 80.4854H46.6308C47.4642 80.4854 48.1398 81.1609 48.1398 81.9943C48.14 82.8277 47.4644 83.5033 46.6308 83.5033Z" fill="#F8F3F1"/>
<path d="M45.4265 27.8443C45.4265 15.9041 35.747 6.22461 23.8069 6.22461C11.8778 6.22461 2.18701 15.9154 2.18701 27.8445C2.18721 39.7848 11.8665 49.4641 23.8067 49.4641H41.5411C42.9749 49.4641 43.6931 47.7305 42.6792 46.7166L39.0942 43.1316C43.0067 39.2195 45.4265 33.8145 45.4265 27.8443Z" fill="#31A7FB"/>
<path d="M42.6783 46.7169C43.6924 47.731 42.9762 49.4634 41.5416 49.4634H34.2498C35.6824 49.4634 36.4008 47.731 35.3865 46.7169L33.1635 44.4927C32.424 43.7528 32.3771 42.572 33.0514 41.7722C36.2229 38.0105 38.135 33.1495 38.135 27.8437C38.135 17.1476 30.3664 8.26416 20.1631 6.53174C21.1504 6.36241 22.1602 6.26162 23.1877 6.23252C35.2785 5.8919 45.2225 15.3814 45.4236 27.4753C45.5254 33.5907 43.0863 39.1394 39.0947 43.1312L42.6783 46.7169Z" fill="#1C96F9"/>
<path d="M28.0749 27.844L32.0966 23.8223C33.2753 22.6436 33.2753 20.7327 32.0966 19.5542C30.9181 18.3754 29.0069 18.3754 27.8284 19.5542L23.8067 23.5758L19.7853 19.554C18.6067 18.3752 16.6956 18.3752 15.5171 19.554C14.3384 20.7325 14.3384 22.6434 15.5171 23.8221L19.5388 27.8438L15.5171 31.8655C14.3384 33.0442 14.3384 34.9551 15.5171 36.1336C16.1063 36.7231 16.8788 37.0176 17.6513 37.0176C18.4237 37.0176 19.196 36.7229 19.7854 36.1336L23.8071 32.112L27.8288 36.1336C28.4183 36.7231 29.1903 37.0176 29.963 37.0176C30.7353 37.0176 31.5077 36.7229 32.0972 36.1336C33.2759 34.9551 33.2759 33.0442 32.0972 31.8655L28.0749 27.844Z" fill="#F8F3F1"/>
<path d="M63.2939 41.3984C66.3957 41.3984 68.9102 38.884 68.9102 35.7822C68.9102 32.6805 66.3957 30.166 63.2939 30.166C60.1922 30.166 57.6777 32.6805 57.6777 35.7822C57.6777 38.884 60.1922 41.3984 63.2939 41.3984Z" fill="#BCEA73"/>
<path d="M68.9098 35.7814C68.9098 38.8844 66.3945 41.3996 63.2941 41.3996C62.2547 41.3996 61.2795 41.1172 60.4453 40.6219C62.65 40.1137 64.2926 38.14 64.2926 35.7814C64.2926 33.4254 62.6525 31.4492 60.4479 30.941C61.282 30.4482 62.2547 30.166 63.2941 30.166C66.3947 30.1658 68.9098 32.6811 68.9098 35.7814Z" fill="#99D53B"/>
<path d="M82.963 29.0486C85.4108 29.0486 87.3951 27.0643 87.3951 24.6166C87.3951 22.1689 85.4108 20.1846 82.963 20.1846C80.5153 20.1846 78.531 22.1689 78.531 24.6166C78.531 27.0643 80.5153 29.0486 82.963 29.0486Z" fill="#BCEA73"/>
<path d="M87.3945 24.6162C87.3945 27.0648 85.4098 29.0496 82.9631 29.0496C82.1428 29.0496 81.3732 28.8268 80.7148 28.4359C82.4547 28.035 83.7508 26.4773 83.7508 24.6162C83.7508 22.7568 82.4566 21.1975 80.7168 20.7963C81.375 20.4074 82.1426 20.1846 82.9629 20.1846C85.4098 20.1846 87.3945 22.1695 87.3945 24.6162Z" fill="#99D53B"/>
<path d="M72.8362 16.5157L73.6526 15.6993C74.242 15.1099 74.242 14.1546 73.6526 13.5651C73.0633 12.9759 72.1079 12.9759 71.5184 13.5651L70.702 14.3815L69.8856 13.5651C69.2963 12.9757 68.3409 12.9757 67.7514 13.5651C67.162 14.1544 67.162 15.1099 67.7514 15.6993L68.5678 16.5157L67.7514 17.3321C67.162 17.9216 67.162 18.8769 67.7514 19.4663C68.0461 19.761 68.4323 19.9083 68.8184 19.9083C69.2045 19.9083 69.5909 19.7608 69.8854 19.4663L70.7018 18.6499L71.5182 19.4663C71.8129 19.761 72.1991 19.9083 72.5852 19.9083C72.9713 19.9083 73.3577 19.7608 73.6522 19.4663C74.2417 18.8771 74.2417 17.9216 73.6522 17.3321L72.8362 16.5157Z" fill="#64B9FC"/>
<path d="M11.299 50.775C10.7098 50.1857 9.7543 50.1857 9.16484 50.775L7.74336 52.1964L6.32188 50.775C5.73262 50.1857 4.77715 50.1857 4.1877 50.775C3.59824 51.3642 3.59824 52.3197 4.1877 52.9091L5.60918 54.3306L4.1877 55.7521C3.59824 56.3414 3.59824 57.2968 4.1877 57.8863C4.48242 58.181 4.86855 58.3283 5.25469 58.3283C5.64082 58.3283 6.02715 58.1808 6.32168 57.8863L7.74316 56.4648L9.16465 57.8863C9.45937 58.181 9.84551 58.3283 10.2316 58.3283C10.6178 58.3283 11.0041 58.1808 11.2986 57.8863C11.8881 57.297 11.8881 56.3416 11.2986 55.7521L9.87715 54.3306L11.2986 52.9091C11.8883 52.3197 11.8883 51.3642 11.299 50.775Z" fill="#A8E7EF"/>
</g>
<defs>
<clipPath id="clip0_1903_3745">
<rect width="100" height="100" fill="white"/>
</clipPath>
</defs>
</svg>
