<svg width="16" height="16" viewBox="0 0 16 16" fill="none" xmlns="http://www.w3.org/2000/svg">
<path d="M14.5152 12.4689C14.271 13.0279 13.982 13.5424 13.6471 14.0155C13.1906 14.6604 12.8169 15.1068 12.5289 15.3547C12.0824 15.7616 11.604 15.97 11.0917 15.9818C10.724 15.9818 10.2805 15.8781 9.76423 15.6678C9.24628 15.4584 8.77029 15.3547 8.33506 15.3547C7.87861 15.3547 7.38906 15.4584 6.86543 15.6678C6.34101 15.8781 5.91854 15.9878 5.59553 15.9986C5.10429 16.0194 4.61465 15.8051 4.1259 15.3547C3.81395 15.0851 3.42377 14.6229 2.95636 13.9681C2.45485 13.2688 2.04255 12.458 1.71954 11.5336C1.37361 10.5351 1.2002 9.5682 1.2002 8.63213C1.2002 7.55987 1.43401 6.63506 1.90232 5.86007C2.27038 5.23757 2.76002 4.74652 3.37285 4.38604C3.98567 4.02556 4.64783 3.84186 5.36092 3.83011C5.7511 3.83011 6.26277 3.94971 6.89862 4.18476C7.53268 4.42061 7.9398 4.54021 8.1183 4.54021C8.25175 4.54021 8.70401 4.40036 9.47072 4.12156C10.1958 3.863 10.8077 3.75594 11.309 3.79811C12.6674 3.90675 13.688 4.4374 14.3667 5.39342C13.1518 6.12288 12.5508 7.14457 12.5628 8.45525C12.5737 9.47616 12.9475 10.3257 13.682 11.0003C14.0149 11.3133 14.3866 11.5553 14.8002 11.7272C14.7105 11.9849 14.6158 12.2318 14.5152 12.4689ZM11.3997 0.320091C11.3997 1.12027 11.1047 1.8674 10.5167 2.55894C9.80708 3.38104 8.94879 3.85608 8.01804 3.78112C8.00618 3.68512 7.9993 3.58409 7.9993 3.47792C7.9993 2.70975 8.33676 1.88765 8.93603 1.21547C9.23522 0.875136 9.61573 0.592152 10.0772 0.36641C10.5376 0.144037 10.9731 0.0210593 11.3828 0C11.3947 0.106972 11.3997 0.213961 11.3997 0.320091Z" fill="#1E2329"/>
</svg>
