<svg width="24" height="24" viewBox="0 0 24 24" fill="none" xmlns="http://www.w3.org/2000/svg">
<path d="M1.62501 10.75C1.14584 10.75 0.786256 10.5467 0.546256 10.14C0.306256 9.73333 0.301257 9.32208 0.531257 8.90625L4.65626 1.46875C4.88542 1.05208 5.25001 0.84375 5.75001 0.84375C6.25001 0.84375 6.61459 1.05208 6.84376 1.46875L10.9688 8.90625C11.1979 9.32292 11.1925 9.73458 10.9525 10.1412C10.7125 10.5479 10.3533 10.7508 9.87501 10.75H1.62501ZM5.75001 23.25C4.37501 23.25 3.19792 22.7604 2.21876 21.7812C1.23959 20.8021 0.750007 19.625 0.750007 18.25C0.750007 16.875 1.23959 15.6979 2.21876 14.7187C3.19792 13.7396 4.37501 13.25 5.75001 13.25C7.12501 13.25 8.30209 13.7396 9.28126 14.7187C10.2604 15.6979 10.75 16.875 10.75 18.25C10.75 19.625 10.2604 20.8021 9.28126 21.7812C8.30209 22.7604 7.12501 23.25 5.75001 23.25ZM14.5 23.25C14.1458 23.25 13.8488 23.13 13.6088 22.89C13.3688 22.65 13.2492 22.3533 13.25 22V14.5C13.25 14.1458 13.37 13.8487 13.61 13.6087C13.85 13.3687 14.1467 13.2492 14.5 13.25H22C22.3542 13.25 22.6513 13.37 22.8913 13.61C23.1313 13.85 23.2508 14.1467 23.25 14.5V22C23.25 22.3542 23.13 22.6512 22.89 22.8912C22.65 23.1312 22.3533 23.2508 22 23.25H14.5ZM16.5 5.125L14.125 2.75C13.8958 2.52083 13.7813 2.22917 13.7813 1.875C13.7813 1.52083 13.8958 1.22917 14.125 1C14.3542 0.770833 14.6458 0.65625 15 0.65625C15.3542 0.65625 15.6458 0.770833 15.875 1L18.25 3.375L20.625 1C20.8542 0.770833 21.1458 0.65625 21.5 0.65625C21.8542 0.65625 22.1458 0.770833 22.375 1C22.6042 1.22917 22.7188 1.52083 22.7188 1.875C22.7188 2.22917 22.6042 2.52083 22.375 2.75L20 5.125L22.375 7.5C22.6042 7.72917 22.7188 8.02083 22.7188 8.375C22.7188 8.72917 22.6042 9.02083 22.375 9.25C22.1458 9.47917 21.8542 9.59375 21.5 9.59375C21.1458 9.59375 20.8542 9.47917 20.625 9.25L18.25 6.875L15.875 9.25C15.6458 9.47917 15.3542 9.59375 15 9.59375C14.6458 9.59375 14.3542 9.47917 14.125 9.25C13.8958 9.02083 13.7813 8.72917 13.7813 8.375C13.7813 8.02083 13.8958 7.72917 14.125 7.5L16.5 5.125Z" fill="#1F2328"/>
</svg>
