<svg width="24" height="24" viewBox="0 0 24 24" fill="none" xmlns="http://www.w3.org/2000/svg">
<g id="material-symbols:play-shapes-rounded">
<path id="Vector" d="M3.70001 10.9998C3.31667 10.9998 3.02901 10.8371 2.83701 10.5118C2.64501 10.1865 2.64101 9.85747 2.82501 9.5248L6.12501 3.5748C6.30834 3.24147 6.60001 3.0748 7.00001 3.0748C7.40001 3.0748 7.69167 3.24147 7.87501 3.5748L11.175 9.5248C11.3583 9.85814 11.354 10.1875 11.162 10.5128C10.97 10.8381 10.6827 11.0005 10.3 10.9998H3.70001ZM7.00001 20.9998C5.90001 20.9998 4.95834 20.6081 4.17501 19.8248C3.39167 19.0415 3.00001 18.0998 3.00001 16.9998C3.00001 15.8998 3.39167 14.9581 4.17501 14.1748C4.95834 13.3915 5.90001 12.9998 7.00001 12.9998C8.10001 12.9998 9.04167 13.3915 9.82501 14.1748C10.6083 14.9581 11 15.8998 11 16.9998C11 18.0998 10.6083 19.0415 9.82501 19.8248C9.04167 20.6081 8.10001 20.9998 7.00001 20.9998ZM14 20.9998C13.7167 20.9998 13.479 20.9038 13.287 20.7118C13.095 20.5198 12.9993 20.2825 13 19.9998V13.9998C13 13.7165 13.096 13.4788 13.288 13.2868C13.48 13.0948 13.7173 12.9991 14 12.9998H20C20.2833 12.9998 20.521 13.0958 20.713 13.2878C20.905 13.4798 21.0007 13.7171 21 13.9998V19.9998C21 20.2831 20.904 20.5208 20.712 20.7128C20.52 20.9048 20.2827 21.0005 20 20.9998H14ZM15.6 6.4998L13.7 4.5998C13.5167 4.41647 13.425 4.18314 13.425 3.8998C13.425 3.61647 13.5167 3.38314 13.7 3.1998C13.8833 3.01647 14.1167 2.9248 14.4 2.9248C14.6833 2.9248 14.9167 3.01647 15.1 3.1998L17 5.0998L18.9 3.1998C19.0833 3.01647 19.3167 2.9248 19.6 2.9248C19.8833 2.9248 20.1167 3.01647 20.3 3.1998C20.4833 3.38314 20.575 3.61647 20.575 3.8998C20.575 4.18314 20.4833 4.41647 20.3 4.5998L18.4 6.4998L20.3 8.3998C20.4833 8.58314 20.575 8.81647 20.575 9.0998C20.575 9.38314 20.4833 9.61647 20.3 9.7998C20.1167 9.98314 19.8833 10.0748 19.6 10.0748C19.3167 10.0748 19.0833 9.98314 18.9 9.7998L17 7.89981L15.1 9.7998C14.9167 9.98314 14.6833 10.0748 14.4 10.0748C14.1167 10.0748 13.8833 9.98314 13.7 9.7998C13.5167 9.61647 13.425 9.38314 13.425 9.0998C13.425 8.81647 13.5167 8.58314 13.7 8.3998L15.6 6.4998Z" fill="#1F37B3"/>
</g>
</svg>
