<svg width="66" height="66" viewBox="0 0 66 66" fill="none" xmlns="http://www.w3.org/2000/svg">
<g id="backend (1) 1">
<g id="Group">
<g id="Group_2">
<g id="Group_3">
<path id="Vector" fill-rule="evenodd" clip-rule="evenodd" d="M42.978 8.16905V45.3988C42.978 48.7714 34.3882 51.5053 23.7922 51.5053C13.1963 51.5053 4.60648 48.7713 4.60648 45.3988V8.16905C4.60648 4.79647 13.1963 2.0625 23.7922 2.0625C34.3882 2.0625 42.978 4.79647 42.978 8.16905Z" fill="#FFE177"/>
<path id="Vector_2" fill-rule="evenodd" clip-rule="evenodd" d="M23.7922 26.6854C34.3881 26.6854 42.978 23.9515 42.978 20.579V8.16895C42.978 11.5415 34.3882 14.2755 23.7922 14.2755C16.4553 14.2755 10.0801 12.9646 6.85267 11.0387C6.13247 10.6089 5.56902 10.1486 5.18655 9.66516C4.8077 9.1864 4.60648 8.68509 4.60648 8.16895V9.26839V20.5789C4.60648 20.6905 4.61589 20.8014 4.63445 20.9115C5.17714 24.1295 13.5469 26.6854 23.7922 26.6854Z" fill="#FFD064"/>
<path id="Vector_3" fill-rule="evenodd" clip-rule="evenodd" d="M23.7922 39.0953C13.1963 39.0953 4.60648 36.3613 4.60648 32.9888V45.3987C4.60648 48.7713 13.1963 51.5051 23.7922 51.5051C34.3881 51.5051 42.978 48.7711 42.978 45.3987V32.9888C42.978 36.3613 34.3882 39.0953 23.7922 39.0953Z" fill="#FFD064"/>
<g id="Group_4">
<path id="Vector_4" d="M11.5367 21.4571C12.8419 21.4571 13.9 20.399 13.9 19.0938C13.9 17.7886 12.8419 16.7306 11.5367 16.7306C10.2316 16.7306 9.17349 17.7886 9.17349 19.0938C9.17349 20.399 10.2316 21.4571 11.5367 21.4571Z" fill="#F5B829"/>
<path id="Vector_5" d="M13.6065 32.4598C14.2486 31.323 13.8476 29.8808 12.7108 29.2387C11.574 28.5966 10.1319 28.9976 9.48974 30.1344C8.84759 31.2712 9.24859 32.7133 10.3854 33.3555C11.5222 33.9976 12.9644 33.5966 13.6065 32.4598Z" fill="#F5B829"/>
<path id="Vector_6" d="M11.5367 46.2039C12.8419 46.2039 13.9 45.1458 13.9 43.8407C13.9 42.5355 12.8419 41.4774 11.5367 41.4774C10.2316 41.4774 9.17349 42.5355 9.17349 43.8407C9.17349 45.1458 10.2316 46.2039 11.5367 46.2039Z" fill="#F5B829"/>
</g>
</g>
<g id="Group_5">
<path id="Vector_7" fill-rule="evenodd" clip-rule="evenodd" d="M46.6449 30.1582C48.2708 30.5451 49.8238 31.1897 51.2469 32.066L54.2374 30.7377L57.7621 34.2623L56.4343 37.2519C57.3109 38.6753 57.9555 40.2288 58.3426 41.8552L61.3935 43.0296V48.0141L58.3418 49.1887C57.9548 50.8147 57.3102 52.3677 56.4339 53.7908L57.7621 56.7813L54.2376 60.306L51.248 58.9781C49.8246 59.8548 48.271 60.4993 46.6446 60.8863L45.4703 63.9375H40.4857L39.311 60.8858C37.685 60.4988 36.132 59.8542 34.7089 58.9779L31.7184 60.3061L28.1937 56.7816L29.5216 53.792C28.6449 52.3686 28.0004 50.815 27.6133 49.1886L24.5623 48.0143V43.0297L27.6138 41.8551C28.0008 40.229 28.6454 38.6758 29.5219 37.2526L28.1937 34.2625L31.7183 30.7379L34.7088 32.0661C36.1319 31.1898 37.685 30.5451 39.3109 30.1583L40.4856 27.1066H45.47L46.6449 30.1582Z" fill="#A79BA7"/>
<path id="Vector_8" fill-rule="evenodd" clip-rule="evenodd" d="M34.709 58.9779L31.7185 60.3061L31.2581 59.8457L34.0619 58.6004C34.2748 58.7314 34.4905 58.8572 34.709 58.9779ZM46.6449 30.1582C48.2708 30.5452 49.8238 31.1897 51.2469 32.066L50.3968 32.4434C48.9737 31.5671 46.7735 30.545 45.1475 30.158L43.9728 27.1063H45.47L46.6449 30.1582ZM51.248 58.9783C49.8246 59.855 48.271 60.4995 46.6446 60.8865L45.4703 63.9375H43.973L45.1474 60.8866C46.7738 60.4996 48.9745 59.4774 50.3978 58.6008L51.248 58.9783ZM31.258 31.1983L31.7184 30.7379L34.7089 32.0661C34.4904 32.1868 34.2746 32.3126 34.0617 32.4436L31.258 31.1983ZM53.2006 31.1983L54.2374 30.7379L57.7621 34.2624L56.4343 37.252C57.311 38.6754 57.9555 40.229 58.3426 41.8554L61.3935 43.0297V48.0143L58.3418 49.1889C57.9548 50.8149 57.3102 52.3678 56.4339 53.7909L57.7621 56.7814L54.2376 60.3061L53.2008 59.8457L56.2649 56.7814L54.9366 53.7909C55.8129 52.3678 56.4576 50.8149 56.8446 49.1889L59.8963 48.0143V43.0297L56.8453 41.8554C56.4584 40.229 55.8137 38.6754 54.9371 37.252L56.2649 34.2624L53.2006 31.1983Z" fill="#837683"/>
<path id="Vector_9" d="M50.2046 52.7579C54.201 48.7615 54.201 42.282 50.2046 38.2856C46.2081 34.2892 39.7287 34.2892 35.7323 38.2855C31.7359 42.2819 31.736 48.7613 35.7324 52.7578C39.7288 56.7542 46.2083 56.7542 50.2046 52.7579Z" fill="#ECEFF1"/>
<path id="Vector_10" fill-rule="evenodd" clip-rule="evenodd" d="M42.9778 35.287C37.3248 35.287 32.743 39.8688 32.743 45.522C32.743 51.1751 37.3248 55.7569 42.9778 55.7569C43.2519 55.7569 43.5234 55.7458 43.792 55.7247C38.5196 55.3099 34.3712 50.9009 34.3712 45.522C34.3712 40.1429 38.5198 35.734 43.792 35.3192C43.5234 35.2981 43.2519 35.287 42.9778 35.287Z" fill="#D1D1D6"/>
</g>
</g>
<path id="Vector_11" fill-rule="evenodd" clip-rule="evenodd" d="M40.1063 43.0275L37.1459 45.5218L40.1063 48.0162C40.542 48.3834 40.5975 49.0332 40.2301 49.4691C40.0264 49.7113 39.7351 49.8364 39.4412 49.8364C39.2066 49.8363 38.9707 49.7565 38.7773 49.5941L34.8811 46.3109C34.6486 46.1149 34.5144 45.8263 34.5144 45.5221C34.5144 45.2177 34.6486 44.9291 34.8811 44.7332L38.7773 41.4498C39.213 41.0837 39.8627 41.1393 40.2301 41.5748C40.5974 42.0093 40.5419 42.6602 40.1063 43.0275ZM47.1781 41.4497L51.075 44.7329C51.307 44.9289 51.4411 45.2176 51.4411 45.522C51.4411 45.8262 51.307 46.1149 51.075 46.3109L47.1781 49.5941C46.9848 49.7565 46.7489 49.8364 46.5143 49.8364C46.2204 49.8363 45.929 49.7114 45.7254 49.4691C45.358 49.0332 45.4134 48.3837 45.8491 48.0163L48.8101 45.522L45.8491 43.0276C45.4134 42.6602 45.358 42.0093 45.7254 41.5748C46.0928 41.1391 46.7423 41.0837 47.1781 41.4497ZM45.1698 49.7164C45.3167 50.267 44.9906 50.8329 44.4402 50.9798C44.3512 51.0042 44.261 51.0146 44.1733 51.0146C43.717 51.0146 43.3006 50.7117 43.1769 50.2502L40.7857 41.3273C40.6387 40.7769 40.9649 40.211 41.5153 40.0641C42.0657 39.917 42.6316 40.2432 42.7786 40.7937L45.1698 49.7164ZM42.977 54.9128C48.1564 54.9128 52.3691 50.7001 52.3691 45.522C52.3691 40.3438 48.1564 36.131 42.977 36.1311C37.7994 36.1311 33.5868 40.3437 33.5868 45.522C33.5868 50.7001 37.7996 54.9128 42.977 54.9128ZM42.977 34.0685C36.6621 34.0685 31.5243 39.2068 31.5243 45.522C31.5243 51.8371 36.6621 56.9753 42.977 56.9753C49.2934 56.9753 54.4316 51.8371 54.4316 45.522C54.4317 39.2067 49.2934 34.0686 42.977 34.0685ZM60.3627 47.3059V43.7379L57.9715 42.8175C57.6544 42.695 57.4185 42.4243 57.3385 42.0943C56.9776 40.5732 56.3769 39.1268 55.5558 37.7927C55.3779 37.5027 55.3535 37.1442 55.4914 36.8335L56.5317 34.4913L54.009 31.9672L51.6655 33.0089C51.3548 33.1468 50.9952 33.1223 50.7064 32.9444C49.3723 32.122 47.9259 31.5226 46.4061 31.1617C46.0748 31.083 45.8041 30.8457 45.683 30.5286L44.7626 28.1374H41.1932L40.2726 30.5287C40.1515 30.8458 39.8808 31.083 39.5495 31.1617C38.0302 31.5226 36.5833 32.1219 35.2494 32.9444C34.9598 33.1223 34.6009 33.1468 34.2901 33.0089L31.9466 31.9672L29.4234 34.4913L30.4639 36.8335C30.6021 37.1442 30.578 37.5037 30.3996 37.7939C29.5782 39.1268 28.9784 40.5743 28.6167 42.0942C28.538 42.4242 28.3012 42.6949 27.984 42.8172L25.5933 43.7378V47.3059L27.9835 48.2264C28.3009 48.3489 28.5375 48.6194 28.6163 48.9496C28.9783 50.4707 29.5782 51.9183 30.3993 53.2512C30.5777 53.5412 30.602 53.8996 30.4638 54.2101L29.4235 56.5523L31.9467 59.0764L34.2902 58.0349C34.6009 57.897 34.9599 57.9213 35.2494 58.0993C36.5836 58.9218 38.0304 59.521 39.5495 59.8821C39.8808 59.9607 40.1515 60.1978 40.2739 60.515L41.193 62.9062H44.7624L45.6815 60.5163C45.804 60.1992 46.0747 59.9619 46.406 59.8834C47.9258 59.5212 49.3735 58.9216 50.7076 58.1006C50.9963 57.9214 51.356 57.8968 51.6667 58.036L54.0089 59.0764L56.5316 56.5523L55.4913 54.2089C55.3534 53.8983 55.3779 53.5399 55.5558 53.2499C56.3769 51.9157 56.9764 50.4694 57.3385 48.9496C57.4172 48.6196 57.6544 48.3487 57.9715 48.2264L60.3627 47.3059ZM23.792 50.4744C18.7704 50.4744 14.0637 49.8558 10.5383 48.7343C6.92497 47.5843 5.63746 46.2567 5.63746 45.3982V36.296C6.68134 37.0464 8.11259 37.7167 9.91289 38.289C13.6351 39.4735 18.564 40.1272 23.792 40.1272C24.8946 40.1271 25.9906 40.095 27.0701 40.0357C26.9511 40.3812 26.8427 40.7305 26.7464 41.0837L24.1917 42.0673C23.7935 42.2207 23.5309 42.6035 23.5309 43.0302V48.0136C23.5309 48.4403 23.7935 48.8232 24.1917 48.9766L26.746 49.9601C26.7854 50.1046 26.828 50.2489 26.8714 50.392C25.857 50.4449 24.8267 50.4745 23.792 50.4744ZM5.63746 23.8862C6.68134 24.6364 8.11259 25.3067 9.91289 25.8791C13.6349 27.0637 18.5639 27.716 23.792 27.716C29.0199 27.716 33.949 27.0637 37.6712 25.8791C39.471 25.3066 40.903 24.6364 41.9471 23.8862V26.0749H40.4853C40.0587 26.0749 39.6771 26.338 39.5237 26.7349L38.5401 29.2911C37.1768 29.6624 35.8696 30.2038 34.6406 30.9076L32.1367 29.7951C31.7469 29.6223 31.2906 29.7062 30.9891 30.0078L27.4645 33.5333C27.1629 33.8349 27.078 34.2914 27.2513 34.6807L28.3632 37.184C28.2263 37.4237 28.0972 37.6674 27.9724 37.9124C26.6073 38.0115 25.2056 38.0645 23.7921 38.0645C18.7706 38.0645 14.0638 37.4457 10.5385 36.3242C6.9251 35.1744 5.63759 33.8467 5.63759 32.9881L5.63746 23.8862ZM5.63746 11.4765V20.5786C5.63746 21.4371 6.92497 22.7636 10.5383 23.9147C14.0637 25.0362 18.7704 25.6536 23.792 25.6536C28.8134 25.6536 33.5203 25.0362 37.0456 23.9147C40.6594 22.7636 41.9471 21.437 41.9471 20.5785V11.4764C40.903 12.2266 39.4708 12.8968 37.6712 13.4693C33.949 14.6539 29.0199 15.3061 23.792 15.3062C18.5639 15.3062 13.6349 14.6539 9.91289 13.4693C8.11246 12.8971 6.68134 12.2268 5.63746 11.4765ZM10.5383 4.83386C14.0637 3.71121 18.7703 3.09375 23.792 3.09375C28.8134 3.09362 33.5203 3.71121 37.0456 4.83398C40.6594 5.9837 41.9471 7.31027 41.9471 8.16879C41.9471 9.0273 40.6594 10.3537 37.0456 11.5036C33.5203 12.6262 28.8135 13.2438 23.792 13.2438C18.7704 13.2437 14.0637 12.6264 10.5383 11.5036C6.92497 10.3536 5.63746 9.0273 5.63746 8.16879C5.63746 7.31027 6.92497 5.98383 10.5383 4.83386ZM61.7638 42.0673L59.2101 41.0837C58.8376 39.7198 58.2949 38.4128 57.5924 37.1843L58.7048 34.6808C58.8775 34.2915 58.7925 33.8353 58.4908 33.5337L54.9665 30.008C54.6649 29.7063 54.2086 29.6227 53.8193 29.7954L51.3147 30.9079C50.0863 30.2039 48.779 29.6626 47.4152 29.2914L46.4318 26.7363C46.2797 26.3381 45.8967 26.0752 45.47 26.0752L44.0095 26.075V8.16879C44.0095 6.02121 41.8168 4.18816 37.671 2.86816C33.949 1.68352 29.0198 1.03125 23.792 1.03125C18.564 1.03125 13.6351 1.68352 9.91289 2.86816C5.76662 4.18816 3.57483 6.02121 3.57483 8.16879V45.3982C3.57483 47.5469 5.76649 49.3801 9.91276 50.6988C13.6348 51.8835 18.5638 52.537 23.7918 52.537C25.0837 52.5369 26.3691 52.4932 27.6268 52.4146C27.8483 52.9069 28.0934 53.3891 28.3627 53.8596L27.251 56.363C27.0778 56.7523 27.1626 57.2086 27.4643 57.5102L30.9889 61.0358C31.2906 61.3375 31.747 61.4213 32.1367 61.2485L34.6406 60.1359C35.8697 60.8386 37.1769 61.3813 38.54 61.7525L39.5236 64.3075C39.6757 64.7057 40.0585 64.9688 40.4852 64.9688H45.47C45.8967 64.9688 46.2795 64.7058 46.4329 64.3075L47.4152 61.7538C48.779 61.3813 50.0874 60.8399 51.3159 60.1373L53.818 61.2484C54.2086 61.4224 54.6649 61.3375 54.9665 61.0358L58.491 57.5102C58.7926 57.2086 58.8777 56.7523 58.7049 56.363L57.5925 53.8595C58.295 52.6297 58.8364 51.3227 59.2088 49.9602L61.7638 48.9765C62.1621 48.8231 62.425 48.4404 62.425 48.0137V43.0302C62.425 42.6035 62.1621 42.2207 61.7638 42.0673ZM10.5868 45.1828C11.3855 45.1829 12.0352 44.5331 12.0352 43.734C12.0352 42.9361 11.3855 42.285 10.5868 42.2851C9.78824 42.2851 9.13842 42.936 9.13842 43.734C9.13829 44.5332 9.78824 45.1828 10.5868 45.1828ZM10.5868 40.2226C8.65103 40.2226 7.07592 41.7979 7.07592 43.734C7.07592 45.6701 8.65103 47.2454 10.5868 47.2454C12.5229 47.2453 14.0977 45.6702 14.0977 43.734C14.0977 41.7977 12.5227 40.2226 10.5868 40.2226ZM10.5868 29.749C9.78824 29.749 9.13842 30.3987 9.13842 31.1966C9.13842 31.9958 9.78824 32.6455 10.5868 32.6455C11.3855 32.6455 12.0352 31.9958 12.0352 31.1966C12.0351 30.3987 11.3855 29.749 10.5868 29.749ZM10.5868 34.7079C12.5229 34.7079 14.0977 33.1328 14.0977 31.1966C14.0977 29.2604 12.5229 27.6865 10.5868 27.6865C8.65103 27.6864 7.07592 29.2604 7.07592 31.1966C7.07592 33.1328 8.6509 34.708 10.5868 34.7079ZM10.5868 17.2114C11.3855 17.2114 12.0352 17.8612 12.0352 18.6592C12.0352 19.4584 11.3855 20.1081 10.5868 20.1081C9.78824 20.1081 9.13842 19.4584 9.13842 18.6592C9.13842 17.8611 9.78811 17.2116 10.5868 17.2114ZM10.5868 22.1706C8.65103 22.1706 7.07592 20.5954 7.07592 18.6592C7.07592 16.723 8.65103 15.1491 10.5868 15.1491C12.5229 15.1491 14.0977 16.7229 14.0977 18.6592C14.0976 20.5954 12.5227 22.1706 10.5868 22.1706Z" fill="#242222"/>
</g>
</g>
</svg>
