<svg width="66" height="66" viewBox="0 0 66 66" fill="none" xmlns="http://www.w3.org/2000/svg">
<g id="blockchain" clip-path="url(#clip0_993_23)">
<path id="Vector" d="M33.1264 22.8341L24.2857 28.3585L33.1264 33.8828L41.9676 28.3585L33.1264 22.8341Z" fill="#BDE9FF"/>
<path id="Vector_2" d="M41.956 37.6392L33.1264 43.1756V33.8827L41.956 28.3584V37.6392Z" fill="#8DD0F0"/>
<path id="Vector_3" d="M24.2857 37.6392L33.1264 43.1756V33.8827L24.2857 28.3584V37.6392Z" fill="#DBF3FF"/>
<path id="Vector_4" d="M9.93633 0.973877L1.09515 6.49823L9.93633 12.0226L18.7775 6.49823L9.93633 0.973877Z" fill="#FFEDB3"/>
<path id="Vector_5" d="M18.7659 15.7789L9.93628 21.3154V12.0225L18.7659 6.49817V15.7789Z" fill="#FFC745"/>
<path id="Vector_6" d="M1.09515 15.7789L9.93633 21.3154V12.0225L1.09515 6.49817V15.7789Z" fill="#FFDB66"/>
<path id="Vector_7" d="M56.317 0.973877L47.4758 6.49823L56.317 12.0226L65.1577 6.49823L56.317 0.973877Z" fill="#BDE9FF"/>
<path id="Vector_8" d="M65.1461 15.7789L56.317 21.3154V12.0225L65.1461 6.49817V15.7789Z" fill="#8DD0F0"/>
<path id="Vector_9" d="M47.4758 15.7789L56.317 21.3154V12.0225L47.4758 6.49817V15.7789Z" fill="#DBF3FF"/>
<path id="Vector_10" d="M9.93633 44.6943L1.09515 50.2187L9.93633 55.743L18.7775 50.2187L9.93633 44.6943Z" fill="#BDE9FF"/>
<path id="Vector_11" d="M18.7659 59.4994L9.93628 65.0363V55.743L18.7659 50.2186V59.4994Z" fill="#8DD0F0"/>
<path id="Vector_12" d="M1.09515 59.4994L9.93633 65.0363V55.743L1.09515 50.2186V59.4994Z" fill="#DBF3FF"/>
<path id="Vector_13" d="M56.317 44.6943L47.4758 50.2187L56.317 55.743L65.1577 50.2187L56.317 44.6943Z" fill="#FFEDB3"/>
<path id="Vector_14" d="M65.1461 59.4994L56.317 65.0363V55.743L65.1461 50.2186V59.4994Z" fill="#FFC745"/>
<path id="Vector_15" d="M47.4758 59.4994L56.317 65.0363V55.743L47.4758 50.2186V59.4994Z" fill="#FFDB66"/>
<path id="Vector_16" d="M32.6354 44.007C32.9421 44.1878 33.3379 44.1843 33.64 43.9949L42.4696 38.458C42.7516 38.2812 42.9228 37.9721 42.9228 37.6392V28.501C42.9298 28.4541 42.9344 28.4068 42.9344 28.3585C42.9344 28.0251 42.7627 27.7154 42.4802 27.5387L33.639 22.0143C33.3258 21.8185 32.928 21.8185 32.6143 22.0143L23.7731 27.5387C23.4941 27.7134 23.3189 28.0317 23.3189 28.3605V37.6392C23.3189 37.9721 23.4906 38.2817 23.7726 38.4585L32.6138 43.9954C32.6208 43.9995 32.6284 44.0025 32.6354 44.007ZM34.0932 41.4284V34.4186L40.9892 30.1098V37.104L34.0932 41.4284ZM33.1264 23.9741L40.1382 28.3554L33.1264 32.7423L26.11 28.3585L33.1264 23.9741ZM25.2525 30.1027L32.1601 34.4186V41.4299L25.2525 37.104V30.1027Z" fill="black"/>
<path id="Vector_17" d="M0.582536 16.5982L9.42371 22.1351C9.73188 22.328 10.1418 22.3275 10.4499 22.1346L19.2795 16.5977C19.5615 16.4209 19.7327 16.1118 19.7327 15.7789V6.63965C19.7398 6.59333 19.7443 6.54599 19.7443 6.49816C19.7443 6.16481 19.5726 5.85463 19.2901 5.67839L10.4489 0.15404C9.39149 -0.506606 8.36678 1.13292 9.42422 1.79357L16.9481 6.49513L9.93632 10.8825L2.91997 6.49816L6.18343 4.45881C7.24137 3.79817 6.21666 2.15813 5.15922 2.81878L0.583039 5.67839C0.305085 5.85211 0.128845 6.17035 0.128845 6.49816V15.7789C0.128845 16.1118 0.300049 16.4214 0.582536 16.5982ZM2.06194 8.24192L2.21552 8.3381L8.96952 12.5583V19.5696L2.06194 15.2437V8.24192ZM10.9031 19.5681V12.5583L17.7991 8.24947V15.2442L10.9031 19.5681Z" fill="black"/>
<path id="Vector_18" d="M46.9627 16.5983L55.8039 22.1352C56.1115 22.3286 56.5224 22.327 56.8301 22.1347L65.6597 16.5978C65.9417 16.421 66.1129 16.1118 66.1129 15.779V6.64073C66.1199 6.5939 66.1245 6.54657 66.1245 6.49823C66.1245 6.16488 65.9527 5.8552 65.6703 5.67846L56.8291 0.15411C56.5159 -0.0417672 56.1181 -0.0417672 55.8044 0.15411L46.9637 5.67846C46.6852 5.85218 46.509 6.17042 46.509 6.49823V15.779C46.509 16.1118 46.6807 16.4215 46.9627 16.5983ZM48.4426 8.24199L55.3502 12.5583V19.5697L48.4426 15.2437V8.24199ZM57.2833 19.5681V12.5583L64.1798 8.24954V15.2442L57.2833 19.5681ZM56.317 2.11389L63.3288 6.49521L56.3165 10.8826L49.3001 6.49823L56.317 2.11389Z" fill="black"/>
<path id="Vector_19" d="M19.2901 49.3989L10.4489 43.8746C10.1352 43.6787 9.73742 43.6787 9.42422 43.8746L0.583039 49.3989C0.305085 49.5726 0.128845 49.8904 0.128845 50.2187V59.499C0.128845 59.8323 0.300049 60.142 0.582536 60.3187L9.42371 65.8557C9.73188 66.0485 10.1418 66.048 10.4504 65.8552L19.28 60.3182C19.562 60.1415 19.7332 59.8318 19.7332 59.499V50.3602C19.7398 50.3139 19.7443 50.2665 19.7443 50.2187C19.7443 49.8853 19.5726 49.5757 19.2901 49.3989ZM9.93632 45.8344L16.9481 50.2157L9.93632 54.603L2.91997 50.2187L9.93632 45.8344ZM2.06194 51.9624L2.21552 52.0586L8.96952 56.2788V63.2901L2.06194 58.9637V51.9624ZM10.9031 63.2891V56.2788L17.7991 51.97V58.9647L10.9031 63.2891Z" fill="black"/>
<path id="Vector_20" d="M65.6703 49.3989L56.8291 43.8746C56.5154 43.6787 56.1176 43.6787 55.8044 43.8746L46.9632 49.3989C46.6852 49.5726 46.509 49.8904 46.509 50.2187V59.499C46.509 59.8323 46.6807 60.142 46.9627 60.3187L55.8039 65.8557C56.4358 66.2494 57.2833 65.7867 57.2833 65.0364V56.2788L64.1798 51.97V58.9642L60.4551 61.3001C60.0024 61.5836 59.8659 62.1803 60.1499 62.6325C60.4334 63.0852 61.0301 63.2216 61.4823 62.9381L65.6597 60.3182C65.9417 60.1415 66.1129 59.8318 66.1129 59.499V50.3612C66.1199 50.3144 66.1245 50.2665 66.1245 50.2187C66.1245 49.8853 65.9527 49.5757 65.6703 49.3989ZM56.317 45.8344L63.3288 50.2157L56.3165 54.603L49.3001 50.2187L56.317 45.8344ZM48.4426 51.9624L55.3502 56.2788V63.2901L48.4426 58.9637V51.9624Z" fill="black"/>
<path id="Vector_21" d="M24.4579 11.6077H41.7304C42.9777 11.6077 42.9777 9.67456 41.7304 9.67456H24.4579C23.2112 9.67456 23.2112 11.6077 24.4579 11.6077Z" fill="black"/>
<path id="Vector_22" d="M41.7949 54.4021H24.5224C23.2756 54.4021 23.2756 56.3357 24.5224 56.3357H41.7949C43.0421 56.3357 43.0421 54.4021 41.7949 54.4021Z" fill="black"/>
<path id="Vector_23" d="M55.2973 27.2215V38.746C55.2973 39.2798 55.7298 39.7123 56.2636 39.7123C56.7979 39.7123 57.2304 39.2798 57.2304 38.746V27.2215C57.2304 25.9742 55.2973 25.9742 55.2973 27.2215Z" fill="black"/>
<path id="Vector_24" d="M9.0224 27.2642V38.7887C9.0224 39.3225 9.45545 39.7555 9.9892 39.7555C10.5235 39.7555 10.956 39.3225 10.956 38.7887V27.2642C10.956 26.0169 9.0224 26.0169 9.0224 27.2642Z" fill="black"/>
<path id="Vector_25" d="M46.8237 20.1236L42.4671 23.0058C41.681 23.5255 42.0733 24.7788 43.0013 24.7788C43.1841 24.7788 43.3694 24.7269 43.5336 24.6182L47.8902 21.7359C48.93 21.0481 47.8635 19.4352 46.8237 20.1236Z" fill="black"/>
<path id="Vector_26" d="M22.7197 24.6182C22.8838 24.7269 23.0686 24.7788 23.2519 24.7788C24.1794 24.7788 24.5722 23.5255 23.7862 23.0058L19.4295 20.1236C18.3897 19.4352 17.3232 21.0481 18.363 21.7359L22.7197 24.6182Z" fill="black"/>
<path id="Vector_27" d="M18.8973 46.6914C19.0806 46.6914 19.2654 46.6395 19.4296 46.5307L23.7862 43.649C24.8265 42.9611 23.7595 41.3478 22.7197 42.0361L18.3631 44.9184C17.577 45.4381 17.9698 46.6914 18.8973 46.6914Z" fill="black"/>
<path id="Vector_28" d="M42.4671 43.6485L46.8237 46.5308C46.9879 46.6395 47.1727 46.6914 47.356 46.6914C48.2835 46.6914 48.6763 45.4381 47.8902 44.9184L43.5336 42.0362C42.4938 41.3478 41.4268 42.9607 42.4671 43.6485Z" fill="black"/>
</g>
<defs>
<clipPath id="clip0_993_23">
<rect width="66" height="66" fill="white"/>
</clipPath>
</defs>
</svg>
