<svg width="16" height="16" viewBox="0 0 16 16" fill="none" xmlns="http://www.w3.org/2000/svg">
<path d="M12.6667 4.00002H11.6094L10.9427 3.33335C10.5567 2.94735 9.87937 2.66669 9.33337 2.66669H6.66671C6.12071 2.66669 5.44337 2.94735 5.05737 3.33335L4.39071 4.00002H3.33337C2.23071 4.00002 1.33337 4.89735 1.33337 6.00002V11.3334C1.33337 12.436 2.23071 13.3334 3.33337 13.3334H12.6667C13.7694 13.3334 14.6667 12.436 14.6667 11.3334V6.00002C14.6667 4.89735 13.7694 4.00002 12.6667 4.00002ZM8.00004 10.6667C7.38111 10.6666 6.78757 10.4206 6.34999 9.98294C5.9124 9.54523 5.66662 8.95161 5.66671 8.33269C5.6668 7.71376 5.91275 7.12022 6.35046 6.68263C6.78817 6.24505 7.38178 5.99926 8.00071 5.99935C8.61963 5.99944 9.21318 6.24539 9.65076 6.6831C10.0883 7.12081 10.3341 7.71443 10.334 8.33335C10.334 8.95228 10.088 9.54582 9.65029 9.98341C9.21258 10.421 8.61897 10.6668 8.00004 10.6667ZM12 7.53269C11.8862 7.53269 11.7735 7.51027 11.6684 7.46672C11.5632 7.42316 11.4677 7.35932 11.3872 7.27885C11.3067 7.19837 11.2429 7.10283 11.1993 6.99768C11.1558 6.89253 11.1334 6.77983 11.1334 6.66602C11.1334 6.55221 11.1558 6.43951 11.1993 6.33436C11.2429 6.22921 11.3067 6.13367 11.3872 6.05319C11.4677 5.97272 11.5632 5.90888 11.6684 5.86532C11.7735 5.82177 11.8862 5.79935 12 5.79935C12.2299 5.79935 12.4503 5.89066 12.6129 6.05319C12.7754 6.21573 12.8667 6.43617 12.8667 6.66602C12.8667 6.89587 12.7754 7.11631 12.6129 7.27885C12.4503 7.44138 12.2299 7.53269 12 7.53269Z" fill="#494949"/>
</svg>
