<svg width="16" height="17" viewBox="0 0 16 17" fill="none" xmlns="http://www.w3.org/2000/svg">
<path d="M7.99754 3.25669C9.05234 3.25669 10.0835 3.56949 10.9605 4.15552C11.8376 4.74155 12.5212 5.57451 12.9249 6.54905C13.3285 7.52356 13.4341 8.59596 13.2284 9.63049C13.0226 10.6651 12.5147 11.6154 11.7687 12.3613C11.0229 13.1072 10.0726 13.6151 9.038 13.8209C8.00347 14.0267 6.93107 13.921 5.95654 13.5174C4.982 13.1137 4.14906 12.4302 3.56302 11.5531C2.97698 10.676 2.66419 9.64489 2.66419 8.59003C2.66581 7.17603 3.22823 5.82042 4.22808 4.82058C5.22792 3.82073 6.58353 3.25831 7.99754 3.25669ZM7.99754 1.92336C6.679 1.92336 5.39005 2.31435 4.29372 3.04689C3.1974 3.77944 2.34291 4.82063 1.83833 6.03881C1.33374 7.25696 1.20172 8.59743 1.45896 9.89063C1.71619 11.1838 2.35113 12.3717 3.28348 13.3041C4.21583 14.2364 5.40372 14.8714 6.69694 15.1286C7.99014 15.3858 9.3306 15.2538 10.5487 14.7492C11.7669 14.2446 12.8081 13.3902 13.5407 12.2938C14.2732 11.1975 14.6642 9.90856 14.6642 8.59003C14.6642 7.71456 14.4918 6.84763 14.1567 6.03879C13.8217 5.22995 13.3307 4.49501 12.7116 3.87595C12.0925 3.25689 11.3576 2.76583 10.5487 2.43081C9.73994 2.09578 8.873 1.92335 7.99754 1.92336Z" fill="#76808F"/>
<path d="M10.374 11.9047L7.33533 8.86603V4.59269H8.66866V8.31403L11.3167 10.962L10.374 11.9047Z" fill="#76808F"/>
</svg>
