<svg width="12" height="12" viewBox="0 0 12 12" fill="none" xmlns="http://www.w3.org/2000/svg">
<path fill-rule="evenodd" clip-rule="evenodd" d="M6.00683 7.62316L10.048 11.6651C10.2624 11.8795 10.5533 12 10.8565 12C11.1598 12 11.4506 11.8795 11.6651 11.6651C11.8795 11.4507 12 11.1598 12 10.8566C12 10.5533 11.8795 10.2625 11.6651 10.048L7.62238 6.00684L11.6643 1.96567C11.7704 1.85949 11.8546 1.73345 11.912 1.59474C11.9695 1.45603 11.999 1.30736 11.999 1.15724C11.9989 1.00712 11.9693 0.858469 11.9118 0.719786C11.8544 0.581103 11.7701 0.4551 11.6639 0.348971C11.5578 0.242842 11.4317 0.158666 11.293 0.101248C11.1543 0.043831 11.0056 0.0142969 10.8555 0.0143322C10.7054 0.0143676 10.5567 0.0439717 10.4181 0.101454C10.2794 0.158937 10.1534 0.243173 10.0472 0.349352L6.00683 4.39052L1.96565 0.349352C1.86026 0.240127 1.73417 0.152987 1.59474 0.093014C1.4553 0.0330414 1.30533 0.00143791 1.15355 4.79361e-05C1.00177 -0.00134204 0.851239 0.0275091 0.710732 0.084918C0.570225 0.142327 0.442559 0.227144 0.335182 0.33442C0.227805 0.441696 0.142867 0.569282 0.0853261 0.709735C0.0277848 0.850188 -0.00120828 1.00069 3.85727e-05 1.15247C0.00128543 1.30425 0.0327471 1.45426 0.0925882 1.59375C0.152429 1.73323 0.239451 1.85941 0.348576 1.96491L4.39127 6.00684L0.349339 10.048C0.134901 10.2625 0.0144304 10.5533 0.0144304 10.8566C0.0144304 11.1598 0.134901 11.4507 0.349339 11.6651C0.563776 11.8795 0.854617 12 1.15788 12C1.46114 12 1.75198 11.8795 1.96642 11.6651L6.00683 7.62316Z" fill="#00484E"/>
</svg>
