<svg width="13" height="14" viewBox="0 0 13 14" fill="none" xmlns="http://www.w3.org/2000/svg">
<path d="M3.05895 2.28247C3.17126 2.28247 3.27608 2.30306 3.37341 2.34424C3.47074 2.38542 3.55497 2.44344 3.62609 2.51831C3.70096 2.58944 3.75899 2.67367 3.80016 2.771C3.84509 2.86833 3.86755 2.97314 3.86755 3.08545V5.87061C3.63545 5.82568 3.4202 5.74333 3.2218 5.62354C3.02713 5.5 2.8568 5.35213 2.71081 5.17993C2.56856 5.00399 2.45625 4.80745 2.37389 4.59033C2.29154 4.36947 2.25036 4.13737 2.25036 3.89404V3.08545C2.25036 2.97314 2.27095 2.86833 2.31213 2.771C2.35705 2.67367 2.41507 2.58944 2.4862 2.51831C2.56107 2.44344 2.64717 2.38542 2.7445 2.34424C2.84183 2.30306 2.94665 2.28247 3.05895 2.28247ZM10.3251 2.28247C10.4374 2.28247 10.5422 2.30306 10.6395 2.34424C10.7369 2.38542 10.8211 2.44344 10.8922 2.51831C10.9671 2.58944 11.0251 2.67367 11.0663 2.771C11.1112 2.86833 11.1337 2.97314 11.1337 3.08545V3.89404C11.1337 4.13737 11.0925 4.36947 11.0101 4.59033C10.9278 4.80745 10.8136 5.00399 10.6676 5.17993C10.5253 5.35213 10.355 5.5 10.1566 5.62354C9.9582 5.74333 9.74483 5.82568 9.51647 5.87061V3.08545C9.51647 2.97314 9.53706 2.86833 9.57824 2.771C9.62316 2.67367 9.68119 2.58944 9.75231 2.51831C9.82718 2.44344 9.91328 2.38542 10.0106 2.34424C10.1079 2.30306 10.2128 2.28247 10.3251 2.28247ZM10.3251 0.665283C10.6582 0.665283 10.9708 0.728923 11.2628 0.856201C11.5585 0.98348 11.815 1.15755 12.0321 1.37842C12.253 1.59554 12.427 1.85197 12.5543 2.14771C12.6816 2.4397 12.7452 2.75228 12.7452 3.08545V3.89404C12.7452 4.28711 12.6835 4.6652 12.5599 5.02832C12.4364 5.39144 12.2642 5.72461 12.0433 6.02783C11.8262 6.33105 11.5642 6.59684 11.2572 6.8252C10.9502 7.0498 10.6152 7.22201 10.2521 7.3418C10.1959 7.59261 10.1079 7.83032 9.98815 8.05493C9.86836 8.2758 9.72424 8.47607 9.55578 8.65576C9.38732 8.83545 9.1964 8.9908 8.98303 9.12183C8.77339 9.25285 8.54878 9.35392 8.3092 9.42505V9.58789C8.63488 9.65153 8.92313 9.78817 9.17394 9.9978C9.4285 10.2037 9.62129 10.4564 9.75231 10.7559H10.1229C10.3176 10.7559 10.501 10.7933 10.6732 10.8682C10.8454 10.943 10.9952 11.0441 11.1224 11.1714C11.2497 11.2987 11.3508 11.4465 11.4257 11.615C11.5005 11.7872 11.538 11.9706 11.538 12.1653V13.5803H1.85168V12.1653C1.85168 11.9706 1.88724 11.7872 1.95837 11.615C2.03324 11.4465 2.13431 11.2987 2.26159 11.1714C2.38887 11.0441 2.53861 10.943 2.71081 10.8682C2.88301 10.7933 3.06644 10.7559 3.2611 10.7559H3.63171C3.76273 10.4564 3.95365 10.2037 4.20446 9.9978C4.45902 9.78817 4.75101 9.65153 5.08044 9.58789V9.42505C4.83711 9.35392 4.60876 9.25285 4.39538 9.12183C4.18574 8.98706 3.99483 8.82983 3.82263 8.65015C3.65417 8.47046 3.51004 8.27018 3.39025 8.04932C3.27046 7.82845 3.18249 7.59261 3.12634 7.3418C2.76322 7.22201 2.42818 7.0498 2.12121 6.8252C1.81799 6.59684 1.55594 6.33105 1.33508 6.02783C1.11795 5.72461 0.947625 5.39144 0.82409 5.02832C0.700555 4.6652 0.638787 4.28711 0.638787 3.89404V3.08545C0.638787 2.75228 0.702427 2.4397 0.829705 2.14771C0.956984 1.85197 1.12918 1.59554 1.34631 1.37842C1.56717 1.15755 1.8236 0.98348 2.11559 0.856201C2.41133 0.728923 2.72578 0.665283 3.05895 0.665283H10.3251ZM3.2611 11.5645C3.17874 11.5645 3.10013 11.5794 3.02526 11.6094C2.95414 11.6431 2.8905 11.6861 2.83434 11.7385C2.77819 11.7947 2.73327 11.8583 2.69958 11.9294C2.66963 12.0043 2.65466 12.0829 2.65466 12.1653V12.7717H10.7294V12.1653C10.7294 12.0829 10.7125 12.0043 10.6788 11.9294C10.6489 11.8583 10.6058 11.7947 10.5497 11.7385C10.4973 11.6861 10.4336 11.6431 10.3588 11.6094C10.2839 11.5794 10.2053 11.5645 10.1229 11.5645H3.2611ZM11.9366 3.08545C11.9366 2.86458 11.8936 2.65682 11.8075 2.46216C11.7251 2.26375 11.611 2.09155 11.465 1.94556C11.319 1.79956 11.1486 1.68538 10.954 1.60303C10.7593 1.51693 10.5497 1.47388 10.3251 1.47388C10.1791 1.47388 10.0368 1.49259 9.89831 1.53003C9.76354 1.56746 9.63626 1.61987 9.51647 1.68726V1.47388H3.86755V1.68726C3.74776 1.61987 3.62048 1.56746 3.48571 1.53003C3.35095 1.49259 3.20869 1.47388 3.05895 1.47388C2.83809 1.47388 2.62845 1.51693 2.43005 1.60303C2.23539 1.68538 2.06506 1.79956 1.91906 1.94556C1.77306 2.09155 1.65702 2.26375 1.57092 2.46216C1.48856 2.65682 1.44738 2.86458 1.44738 3.08545V3.89404C1.44738 4.24967 1.50915 4.58659 1.63268 4.90479C1.75622 5.21924 1.92655 5.50187 2.14367 5.75269C2.36079 5.99976 2.61535 6.20565 2.90734 6.37036C3.20308 6.53507 3.52315 6.64176 3.86755 6.69043V6.71851C3.86755 6.99927 3.91996 7.26318 4.02477 7.51025C4.12959 7.75358 4.27372 7.96696 4.45715 8.15039C4.64058 8.33008 4.85396 8.4742 5.09728 8.58276C5.34435 8.68758 5.6064 8.73999 5.88342 8.73999V10.3516H5.47912C5.3481 10.3516 5.22269 10.3722 5.1029 10.4133C4.98311 10.4508 4.87267 10.5069 4.7716 10.5818C4.67427 10.6529 4.58817 10.739 4.5133 10.8401C4.43843 10.9374 4.38041 11.0441 4.33923 11.1602H9.04479C8.95869 10.9243 8.8127 10.7315 8.6068 10.5818C8.40466 10.4283 8.17069 10.3516 7.9049 10.3516H7.5006V8.73999C7.77762 8.73999 8.03779 8.68758 8.28112 8.58276C8.52819 8.4742 8.74157 8.33008 8.92126 8.15039C9.10469 7.96696 9.24881 7.75358 9.35363 7.51025C9.46219 7.26318 9.51647 6.99927 9.51647 6.71851V6.69043C9.85713 6.64176 10.1753 6.53507 10.4711 6.37036C10.7668 6.20565 11.0232 5.99976 11.2403 5.75269C11.4575 5.50187 11.6278 5.21924 11.7513 4.90479C11.8749 4.58659 11.9366 4.24967 11.9366 3.89404V3.08545ZM8.3092 2.28247C8.41776 2.28247 8.51135 2.32178 8.58996 2.40039C8.66857 2.479 8.70788 2.57259 8.70788 2.68115V6.31421C8.70788 6.53882 8.66483 6.75033 8.57873 6.94873C8.49637 7.14339 8.3822 7.31372 8.2362 7.45972C8.0902 7.60571 7.91987 7.72176 7.72521 7.80786C7.53055 7.89022 7.32092 7.9314 7.09631 7.9314C6.984 7.9314 6.88854 7.89209 6.80993 7.81348C6.73132 7.73486 6.69201 7.6394 6.69201 7.5271C6.69201 7.41479 6.73132 7.31934 6.80993 7.24072C6.88854 7.16211 6.984 7.1228 7.09631 7.1228C7.20861 7.1228 7.31343 7.10221 7.41076 7.06104C7.50809 7.01986 7.59232 6.9637 7.66345 6.89258C7.73832 6.81771 7.79634 6.73161 7.83752 6.63428C7.88244 6.5332 7.9049 6.42651 7.9049 6.31421V2.68115C7.9049 2.57259 7.94421 2.479 8.02282 2.40039C8.10143 2.32178 8.19689 2.28247 8.3092 2.28247Z" fill="black" fill-opacity="0.92"/>
</svg>
