<svg width="15" height="11" viewBox="0 0 15 11" fill="none" xmlns="http://www.w3.org/2000/svg">
<g id="Group 23">
<path id="Vector" d="M4.6877 1.43043V0.147533H15V1.43043H4.6877ZM4.6877 5.77303V4.49013H15V5.77303H4.6877ZM4.6877 10.1156V8.83273H15V10.1156H4.6877ZM0.78898 1.57796C0.565756 1.57796 0.378454 1.4997 0.227072 1.34319C0.0756909 1.18668 0 0.993815 0 0.764605C0 0.548223 0.0756909 0.36648 0.227072 0.219374C0.378454 0.0731244 0.565756 0 0.78898 0C1.01306 0 1.20079 0.0731244 1.35217 0.219374C1.50355 0.36648 1.57924 0.548223 1.57924 0.764605C1.57924 0.995526 1.50355 1.18882 1.35217 1.34447C1.20079 1.50013 1.01306 1.57839 0.78898 1.57924V1.57796ZM0.78898 5.8949C0.565756 5.8949 0.378454 5.82178 0.227072 5.67553C0.0756909 5.52928 0 5.34796 0 5.13158C0 4.88355 0.0756909 4.68556 0.227072 4.5376C0.378454 4.38964 0.565756 4.31608 0.78898 4.31694C1.01306 4.31694 1.20079 4.39092 1.35217 4.53888C1.50355 4.68599 1.57924 4.88355 1.57924 5.13158C1.57924 5.34796 1.50355 5.5297 1.35217 5.67681C1.20079 5.82306 1.01306 5.8949 0.78898 5.8949ZM0.78898 10.2619C0.565756 10.2619 0.378454 10.184 0.227072 10.0284C0.0756909 9.87273 0 9.67944 0 9.44852C0 9.23214 0.0756909 9.05082 0.227072 8.90457C0.378454 8.75832 0.565756 8.68477 0.78898 8.68391C1.01306 8.68391 1.20079 8.75747 1.35217 8.90457C1.50355 9.05082 1.57924 9.23214 1.57924 9.44852C1.57924 9.67944 1.50355 9.87316 1.35217 10.0297C1.20079 10.1853 1.01306 10.2632 0.78898 10.2632V10.2619Z" fill="black"/>
</g>
</svg>
