<svg width="80" height="80" viewBox="0 0 80 80" fill="none" xmlns="http://www.w3.org/2000/svg">
<g id="email 1" clip-path="url(#clip0_2374_6165)">
<g id="Page-1">
<g id="027---Email-Tick">
<path id="Path" fill-rule="evenodd" clip-rule="evenodd" d="M74.4828 26.5928L77.9172 29.31C79.2311 30.3581 79.9974 31.9466 80 33.6273V74.4824C80 77.5295 77.5298 79.9997 74.4828 79.9997H5.51724C2.47015 79.9997 0 77.5295 0 74.4824V33.6273C0.00262494 31.9466 0.768923 30.3581 2.08276 29.31L5.51724 26.5928H74.4828Z" fill="#F29C1F"/>
<path id="Path_2" fill-rule="evenodd" clip-rule="evenodd" d="M5.51758 65.8483V2.75862C5.52212 1.23696 6.75454 0.00454455 8.2762 0H71.7245C73.2461 0.00454455 74.4785 1.23696 74.4831 2.75862V64.4138L5.51758 65.8483Z" fill="#ECF0F1"/>
<path id="Oval" d="M39.9998 44.1383C50.6646 44.1383 59.3101 35.4927 59.3101 24.8279C59.3101 14.1631 50.6646 5.51758 39.9998 5.51758C29.335 5.51758 20.6895 14.1631 20.6895 24.8279C20.6895 35.4927 29.335 44.1383 39.9998 44.1383Z" fill="#4FBA6F"/>
<path id="Path_3" fill-rule="evenodd" clip-rule="evenodd" d="M35.8621 35.8619C35.1302 35.8633 34.4281 35.5723 33.9117 35.0536L28.3945 29.5364C27.3491 28.4539 27.364 26.7334 28.4281 25.6693C29.4922 24.6052 31.2128 24.5902 32.2952 25.6357L35.8621 29.2012L47.7048 17.3598C48.3975 16.6427 49.4231 16.3551 50.3876 16.6076C51.3521 16.86 52.1053 17.6132 52.3578 18.5777C52.6103 19.5422 52.3227 20.5679 51.6055 21.2605L37.8124 35.0536C37.2961 35.5723 36.594 35.8633 35.8621 35.8619Z" fill="#ECF0F1"/>
<path id="Path_4" fill-rule="evenodd" clip-rule="evenodd" d="M79.9997 34.3584L79.9996 74.4825C80.0062 76.0484 79.3378 77.5412 78.1652 78.5791L52.1514 58.3584L79.9997 34.3584Z" fill="#F0C419"/>
<path id="Path_5" fill-rule="evenodd" clip-rule="evenodd" d="M78.166 78.5789C77.1567 79.4923 75.8444 79.9985 74.4832 79.9996H5.51772C4.15655 79.9985 2.84422 79.4923 1.83496 78.5789L27.8488 58.3582L38.2901 50.2479C39.2948 49.4616 40.7061 49.4616 41.7108 50.2479L52.1522 58.3582L78.166 78.5789Z" fill="#F3D55B"/>
<path id="Path_6" fill-rule="evenodd" clip-rule="evenodd" d="M27.8483 58.3584L1.83453 78.5791C0.661937 77.5412 -0.00655898 76.0484 4.85241e-05 74.4825L0 34.3584L27.8483 58.3584Z" fill="#F0C419"/>
</g>
</g>
</g>
<defs>
<clipPath id="clip0_2374_6165">
<rect width="80" height="80" fill="white"/>
</clipPath>
</defs>
</svg>
