<svg width="141" height="122" viewBox="0 0 141 122" fill="none" xmlns="http://www.w3.org/2000/svg">
<path fill-rule="evenodd" clip-rule="evenodd" d="M125.861 49.8645H15.0132V101.165C15.0132 103.612 16.6177 105.771 18.9621 106.475C30.0996 109.814 61.4197 119.211 68.8438 121.439C69.883 121.749 70.9915 121.749 72.0307 121.439C79.4547 119.211 110.775 109.814 121.912 106.475C124.257 105.771 125.861 103.612 125.861 101.165C125.861 88.3177 125.861 49.8645 125.861 49.8645Z" fill="url(#paint0_linear_192_461)"/>
<path fill-rule="evenodd" clip-rule="evenodd" d="M125.861 49.8645H70.4372C70.4372 49.8645 69.8996 121.672 70.4372 121.672C70.9748 121.672 71.5096 121.594 72.0306 121.439C79.4547 119.211 110.775 109.814 121.912 106.475C124.257 105.771 125.861 103.612 125.861 101.165C125.861 88.3177 125.861 49.8645 125.861 49.8645Z" fill="url(#paint1_linear_192_461)"/>
<path fill-rule="evenodd" clip-rule="evenodd" d="M70.4374 67.8468L15.0133 49.8645C15.0133 49.8645 5.29469 64.2747 0.949449 70.715C0.461717 71.4383 0.342555 72.3445 0.625218 73.1675C0.910652 73.9906 1.56188 74.6307 2.39047 74.9023C12.9183 78.322 44.0832 88.4479 52.2583 91.1027C53.4305 91.4852 54.7163 91.0446 55.4091 90.022C59.1253 84.5378 70.4374 67.8468 70.4374 67.8468Z" fill="#E8EBEE"/>
<path fill-rule="evenodd" clip-rule="evenodd" d="M125.862 49.8645L70.4375 67.8468C70.4375 67.8468 81.7496 84.5378 85.4657 90.022C86.1585 91.0446 87.4444 91.4852 88.6166 91.1027C96.7916 88.4479 127.957 78.322 138.484 74.9023C139.313 74.6307 139.964 73.9906 140.25 73.1675C140.532 72.3445 140.413 71.4383 139.925 70.715C135.58 64.2747 125.862 49.8645 125.862 49.8645Z" fill="#E8EBEE"/>
<path fill-rule="evenodd" clip-rule="evenodd" d="M57.0219 12.0903C56.3291 11.0732 55.0461 10.6326 53.8738 11.015C45.7043 13.6671 14.5311 23.7958 4.00327 27.2183C3.17468 27.4871 2.52067 28.1272 2.23801 28.9503C1.95535 29.7733 2.07451 30.6823 2.56224 31.4028C6.56386 37.3387 15.0133 49.8645 15.0133 49.8645L70.4373 31.8212C70.4373 31.8212 60.4832 17.181 57.0219 12.0903Z" fill="#E8EBEE"/>
<path fill-rule="evenodd" clip-rule="evenodd" d="M138.313 31.4028C138.8 30.6823 138.919 29.7733 138.637 28.9503C138.354 28.1272 137.7 27.4871 136.872 27.2183C126.344 23.7958 95.1705 13.6671 87.001 11.015C85.8288 10.6326 84.5457 11.0732 83.8529 12.0903C80.3917 17.181 70.4375 31.8212 70.4375 31.8212L125.862 49.8645C125.862 49.8645 134.311 37.3387 138.313 31.4028Z" fill="#E8EBEE"/>
<path fill-rule="evenodd" clip-rule="evenodd" d="M125.861 49.8645L70.4372 31.8212L15.0132 49.8645L70.4372 67.8469L125.861 49.8645Z" fill="url(#paint2_linear_192_461)"/>
<path fill-rule="evenodd" clip-rule="evenodd" d="M70.4372 67.8469V31.8212L15.0132 49.8645L70.4372 67.8469Z" fill="url(#paint3_linear_192_461)"/>
<path d="M92.6068 22.6818C92.6126 18.3694 91.3873 14.1451 89.0748 10.5051C86.7624 6.86521 83.459 3.96099 79.5529 2.13382C75.6468 0.306641 71.3003 -0.367559 67.0242 0.190454C62.7481 0.748466 58.7202 2.5155 55.4137 5.28388C52.1073 8.05226 49.6598 11.7069 48.359 15.8184C47.0581 19.9298 46.9578 24.3272 48.07 28.4937C49.1822 32.6601 51.4607 36.4225 54.6375 39.3387C57.8143 42.2548 61.7576 44.2036 66.0038 44.9558L68.8227 50.6439C68.9322 50.8492 69.0954 51.0208 69.2949 51.1405C69.4944 51.2602 69.7226 51.3234 69.9553 51.3234C70.1879 51.3234 70.4162 51.2602 70.6157 51.1405C70.8152 51.0208 70.9784 50.8492 71.0878 50.6439L73.9067 44.9558C79.1423 44.0283 83.8847 41.2885 87.3036 37.2163C90.7224 33.144 92.5997 27.9989 92.6068 22.6818Z" fill="url(#paint4_linear_192_461)"/>
<path d="M73.5038 22.6818L79.2926 16.9183C79.7665 16.4443 80.0328 15.8016 80.0328 15.1313C80.0328 14.4611 79.7665 13.8183 79.2926 13.3444C78.8187 12.8704 78.1759 12.6042 77.5056 12.6042C76.8354 12.6042 76.1926 12.8704 75.7187 13.3444L69.9551 19.1331L64.1915 13.3444C63.9569 13.1097 63.6783 12.9235 63.3717 12.7965C63.0651 12.6695 62.7364 12.6042 62.4046 12.6042C61.7343 12.6042 61.0916 12.8704 60.6176 13.3444C60.1437 13.8183 59.8774 14.4611 59.8774 15.1313C59.8774 15.8016 60.1437 16.4443 60.6176 16.9183L66.4064 22.6818L60.6176 28.4454C60.383 28.6801 60.1968 28.9587 60.0698 29.2653C59.9428 29.5719 59.8774 29.9005 59.8774 30.2324C59.8774 30.9026 60.1437 31.5454 60.6176 32.0193C61.0916 32.4932 61.7343 32.7595 62.4046 32.7595C62.7364 32.7595 63.0651 32.6941 63.3717 32.5671C63.6783 32.4401 63.9569 32.254 64.1915 32.0193L69.9551 26.2306L75.7187 32.0193C76.1926 32.4932 76.8354 32.7595 77.5056 32.7595C78.1759 32.7595 78.8187 32.4932 79.2926 32.0193C79.7665 31.5454 80.0328 30.9026 80.0328 30.2324C80.0328 29.5621 79.7665 28.9193 79.2926 28.4454L73.5038 22.6818Z" fill="white"/>
<defs>
<linearGradient id="paint0_linear_192_461" x1="15.0132" y1="85.7682" x2="125.861" y2="85.7682" gradientUnits="userSpaceOnUse">
<stop stop-color="#CADCF0"/>
<stop offset="1" stop-color="#A4BBDB"/>
</linearGradient>
<linearGradient id="paint1_linear_192_461" x1="70.1989" y1="85.7682" x2="125.861" y2="85.7682" gradientUnits="userSpaceOnUse">
<stop stop-color="#A4BBDB"/>
<stop offset="1" stop-color="#8DA3BE"/>
</linearGradient>
<linearGradient id="paint2_linear_192_461" x1="15.0132" y1="49.834" x2="125.861" y2="49.834" gradientUnits="userSpaceOnUse">
<stop stop-color="#CADCF0"/>
<stop offset="1" stop-color="#A4BBDB"/>
</linearGradient>
<linearGradient id="paint3_linear_192_461" x1="76.1127" y1="31.0148" x2="77.3071" y2="75.778" gradientUnits="userSpaceOnUse">
<stop stop-color="#A4BBDB"/>
<stop offset="1" stop-color="#8DA3BE"/>
</linearGradient>
<linearGradient id="paint4_linear_192_461" x1="61.0861" y1="51.3234" x2="82.9894" y2="1.84342" gradientUnits="userSpaceOnUse">
<stop stop-color="#0B74F0"/>
<stop offset="1" stop-color="#120EE3"/>
</linearGradient>
</defs>
</svg>
