<svg width="23" height="24" viewBox="0 0 23 24" fill="none" xmlns="http://www.w3.org/2000/svg">
<path d="M22.75 12.072C22.7474 14.7493 21.7908 17.3381 20.0519 19.3739C18.313 21.4097 15.9056 22.7592 13.2616 23.1804V15.324H15.8836L16.3732 12.072H13.2616V9.95999C13.2396 9.71758 13.2722 9.47331 13.3571 9.24519C13.442 9.01706 13.577 8.81088 13.7521 8.64184C13.9272 8.47281 14.1381 8.34521 14.3691 8.26847C14.6001 8.19172 14.8453 8.16777 15.0868 8.19839H16.5268V5.43599C15.6931 5.30298 14.8509 5.22999 14.0068 5.21759C13.4264 5.17278 12.8433 5.25608 12.2987 5.46161C11.754 5.66713 11.2612 5.98985 10.8552 6.40692C10.4491 6.824 10.1396 7.32523 9.94873 7.87514C9.75782 8.42506 9.69011 9.01021 9.7504 9.58919V12.0708H6.8944V15.3228H9.7504V23.178C7.62742 22.8411 5.6454 21.9031 4.03898 20.4748C2.43255 19.0465 1.26898 17.1879 0.686003 15.1189C0.103029 13.05 0.125063 10.8573 0.749498 8.80043C1.37393 6.74359 2.57462 4.90872 4.20943 3.51304C5.84423 2.11736 7.8447 1.2193 9.97402 0.925174C12.1033 0.631051 14.2724 0.953179 16.2243 1.85343C18.1762 2.75367 19.8294 4.19434 20.988 6.00489C22.1467 7.81544 22.7623 9.92005 22.762 12.0696L22.75 12.072Z" fill="#76808F"/>
</svg>
