<svg width="66" height="66" viewBox="0 0 66 66" fill="none" xmlns="http://www.w3.org/2000/svg">
<g id="frontend">
<path id="Vector" fill-rule="evenodd" clip-rule="evenodd" d="M38.6635 8.42468C36.9796 8.42468 35.6025 9.80101 35.6025 11.484C35.6025 13.167 36.9796 14.5433 38.6635 14.5433H50.1915C51.8754 14.5433 53.2525 13.167 53.2525 11.484C53.2525 9.80101 51.8754 8.42468 50.1915 8.42468H38.6635Z" fill="#CCF5FC"/>
<path id="Vector_2" fill-rule="evenodd" clip-rule="evenodd" d="M12.0609 8.42468C10.3696 8.42468 8.99985 9.79367 8.99985 11.484C8.99985 13.1744 10.3696 14.5433 12.0609 14.5433C13.7521 14.5433 15.1255 13.1744 15.1255 11.484C15.1255 9.7938 13.752 8.42468 12.0609 8.42468Z" fill="#CCF5FC"/>
<path id="Vector_3" d="M12.0609 14.5582C10.3648 14.5582 8.98515 13.1792 8.98515 11.4842C8.98515 9.7892 10.3648 8.41016 12.0609 8.41016C13.7588 8.41016 15.1402 9.7892 15.1402 11.4842C15.1402 13.1792 13.7588 14.5582 12.0609 14.5582ZM12.0609 8.43955C10.3811 8.43955 9.01454 9.80531 9.01454 11.4842C9.01454 13.1631 10.3811 14.5288 12.0609 14.5288C13.7426 14.5288 15.1108 13.1631 15.1108 11.4842C15.1108 9.80531 13.7426 8.43955 12.0609 8.43955Z" fill="#8AA8BD"/>
<g id="Group">
<path id="Vector_4" fill-rule="evenodd" clip-rule="evenodd" d="M23.3623 8.42456C21.6711 8.42456 20.3013 9.79354 20.3013 11.4839C20.3013 13.1742 21.6711 14.5432 23.3623 14.5432C25.0536 14.5432 26.4269 13.1742 26.4269 11.4839C26.4269 9.79367 25.0536 8.42456 23.3623 8.42456Z" fill="#DC72A9"/>
<path id="Vector_5" fill-rule="evenodd" clip-rule="evenodd" d="M49.3952 41.2161C45.7242 41.2161 42.7509 44.1879 42.7509 47.8568C42.7509 51.5222 45.7242 54.4939 49.3952 54.4939C53.0626 54.4939 56.0358 51.5221 56.0358 47.8568C56.0358 44.1879 53.0625 41.2161 49.3952 41.2161Z" fill="white"/>
<path id="Vector_6" fill-rule="evenodd" clip-rule="evenodd" d="M46.5607 34.17V35.6559C45.1726 35.9809 43.8723 36.5321 42.7034 37.2732L41.655 36.2291C41.0305 35.6012 40.004 35.6012 39.3757 36.2291L37.7137 37.8902C37.0854 38.5181 37.0854 39.544 37.7137 40.1682L38.7729 41.2305C38.046 42.395 37.5054 43.6874 37.1913 45.0675H35.701C34.8133 45.0675 34.0902 45.794 34.0902 46.6776V49.0323C34.0902 49.9158 34.8135 50.6423 35.701 50.6423H37.195C37.5128 52.0296 38.0607 53.3293 38.7986 54.4975L37.743 55.549C37.1184 56.1769 37.1184 57.2029 37.743 57.827L39.4086 59.4919C40.0331 60.1198 41.0596 60.1198 41.6879 59.4919L42.7399 58.4404C43.9124 59.1742 45.2164 59.7254 46.6045 60.0395V61.5399C46.6045 62.4271 47.3314 63.1536 48.2153 63.1536H50.5713C51.4553 63.1536 52.1822 62.4271 52.1822 61.5399V60.0432C53.5774 59.7256 54.8815 59.178 56.054 58.4405L57.1096 59.492C57.7341 60.1199 58.7606 60.1199 59.3889 59.492L61.0509 57.8272C61.6792 57.2029 61.6792 56.177 61.0509 55.5491L59.9989 54.4977C60.7332 53.3294 61.281 52.0297 61.5988 50.6425H63.0854C63.9731 50.6425 64.7 49.9159 64.7 49.0324V46.6777C64.7 45.7942 63.9731 45.0676 63.0854 45.0676H61.6061C61.2884 43.673 60.7404 42.366 59.9989 41.1905L61.0509 40.1354C61.6792 39.5111 61.6792 38.4853 61.0509 37.8574L59.9989 36.8059L59.3889 36.1962C58.7606 35.5683 57.7343 35.5683 57.1096 36.1962L56.054 37.2477C54.8669 36.5029 53.5482 35.948 52.1383 35.634V34.17C52.1383 33.2829 51.4114 32.5564 50.5238 32.5564H48.1715C47.284 32.5564 46.5607 33.2829 46.5607 34.17ZM49.3952 41.2161C53.0626 41.2161 56.0358 44.1879 56.0358 47.8568C56.0358 51.5222 53.0625 54.4939 49.3952 54.4939C45.7242 54.4939 42.7509 51.5221 42.7509 47.8568C42.7509 44.1879 45.7242 41.2161 49.3952 41.2161Z" fill="#CCF5FC"/>
<path id="Vector_7" fill-rule="evenodd" clip-rule="evenodd" d="M55.1993 2.84619H11.6591H6.09959C3.45869 2.84619 1.2999 5.42367 1.2999 8.57788V20.0268H21.5177H59.999V8.57801C59.999 5.42728 57.8402 2.84619 55.1993 2.84619ZM23.3623 8.42461C25.0536 8.42461 26.4269 9.79359 26.4269 11.4839C26.4269 13.1743 25.0536 14.5433 23.3623 14.5433C21.6711 14.5433 20.3013 13.1743 20.3013 11.4839C20.3013 9.79372 21.6711 8.42461 23.3623 8.42461ZM12.0609 8.42461C13.7521 8.42461 15.1255 9.79359 15.1255 11.4839C15.1255 13.1743 13.7521 14.5433 12.0609 14.5433C10.3696 14.5433 8.99985 13.1743 8.99985 11.4839C8.99985 9.79372 10.3696 8.42461 12.0609 8.42461ZM35.6026 11.4839C35.6026 9.80094 36.9797 8.42461 38.6636 8.42461H50.1916C51.8755 8.42461 53.2526 9.80094 53.2526 11.4839C53.2526 13.1669 51.8755 14.5433 50.1916 14.5433H38.6636C36.9796 14.5434 35.6026 13.1671 35.6026 11.4839Z" fill="#8AA8BD"/>
<path id="Vector_8" fill-rule="evenodd" clip-rule="evenodd" d="M21.5177 20.0269H1.2999V44.9107C1.2999 48.0613 3.4623 50.6423 6.09959 50.6423H35.7011C34.8135 50.6423 34.0903 49.9158 34.0903 49.0323V46.6776C34.0903 45.7941 34.8136 45.0675 35.7011 45.0675H37.1914C37.5055 43.6876 38.0462 42.3952 38.7731 41.2305L37.7139 40.1682C37.0856 39.5439 37.0856 38.5181 37.7139 37.8902L39.3758 36.2291C40.0041 35.6012 41.0305 35.6012 41.6552 36.2291L42.7036 37.2732C43.8725 36.5321 45.1728 35.9808 46.5608 35.656V34.1701C46.5608 33.2829 47.2841 32.5564 48.1716 32.5564H50.5239C51.4116 32.5564 52.1385 33.2829 52.1385 34.1701V35.634C53.5484 35.9481 54.867 36.5029 56.0541 37.2477L57.1097 36.1962C57.7343 35.5683 58.7608 35.5683 59.389 36.1962L59.999 36.8059V20.0269H21.5177Z" fill="white"/>
</g>
<path id="Vector_9" d="M12.0609 7.12476C9.65624 7.12476 7.69996 9.08039 7.69996 11.484C7.69996 13.8876 9.65624 15.8432 12.0609 15.8432C14.4674 15.8432 16.4254 13.8876 16.4254 11.484C16.4254 9.08039 14.4674 7.12476 12.0609 7.12476ZM12.0609 13.2434C11.0898 13.2434 10.2999 12.4541 10.2999 11.484C10.2999 10.5138 11.0898 9.72467 12.0609 9.72467C13.0338 9.72467 13.8256 10.514 13.8256 11.4841C13.8256 12.4543 13.0338 13.2434 12.0609 13.2434Z" fill="black"/>
<path id="Vector_10" d="M50.1915 7.12476H38.6635C36.2589 7.12476 34.3026 9.08039 34.3026 11.484C34.3026 13.8876 36.2589 15.8432 38.6635 15.8432H50.1915C52.5961 15.8432 54.5523 13.8876 54.5523 11.484C54.5523 9.08039 52.5961 7.12476 50.1915 7.12476ZM50.1915 13.2434H38.6635C37.6924 13.2434 36.9025 12.4541 36.9025 11.484C36.9025 10.5138 37.6926 9.72454 38.6635 9.72454H50.1915C51.1625 9.72454 51.9524 10.5138 51.9524 11.484C51.9524 12.4541 51.1625 13.2434 50.1915 13.2434Z" fill="black"/>
<path id="Vector_11" d="M23.3623 7.12476C20.9577 7.12476 19.0014 9.08039 19.0014 11.484C19.0014 13.8876 20.9577 15.8432 23.3623 15.8432C25.7689 15.8432 27.7268 13.8876 27.7268 11.484C27.7268 9.08039 25.7689 7.12476 23.3623 7.12476ZM23.3623 13.2434C22.3913 13.2434 21.6013 12.4541 21.6013 11.484C21.6013 10.5138 22.3914 9.72454 23.3623 9.72454C24.3353 9.72454 25.1271 10.5138 25.1271 11.484C25.1271 12.4541 24.3353 13.2434 23.3623 13.2434Z" fill="black"/>
<path id="Vector_12" d="M21.2427 28.6744C20.5447 28.5072 19.8431 28.9382 19.6762 29.6366L17.0973 40.4284C16.9305 41.1267 17.3612 41.828 18.0595 41.9948C18.1611 42.0191 18.2628 42.0308 18.3628 42.0308C18.9505 42.0308 19.4834 41.6294 19.626 41.0327L22.2049 30.2409C22.3718 29.5426 21.941 28.8414 21.2427 28.6744Z" fill="black"/>
<path id="Vector_13" d="M26.0152 40.7265C26.263 40.9472 26.5718 41.0558 26.8794 41.0558C27.2374 41.0558 27.5938 40.9088 27.8507 40.6204L31.4959 36.5284C32.0974 35.8589 32.0974 34.8104 31.4997 34.1451L27.8506 30.0488C27.3729 29.5126 26.5511 29.4654 26.0152 29.9427C25.479 30.4203 25.4315 31.2421 25.9091 31.7781L29.0773 35.3345L25.9091 38.891C25.4317 39.4273 25.4791 40.2491 26.0152 40.7265Z" fill="black"/>
<path id="Vector_14" d="M13.2871 29.9428C12.7509 29.4652 11.9294 29.5131 11.4518 30.0489L7.80695 34.1405C7.2047 34.8102 7.2047 35.8593 7.80282 36.5243L11.4519 40.6205C11.7088 40.909 12.0651 41.0558 12.4232 41.0558C12.7308 41.0558 13.0398 40.9473 13.2874 40.7266C13.8236 40.249 13.8711 39.4272 13.3935 38.8913L10.2254 35.3349L13.3935 31.7783C13.8708 31.2421 13.8234 30.4203 13.2871 29.9428Z" fill="black"/>
<path id="Vector_15" d="M63.0856 43.7678H62.6029C62.3501 42.949 62.0226 42.1586 61.623 41.4032L61.9674 41.0576C62.5175 40.5109 62.821 39.7809 62.8222 39.002C62.8234 38.2214 62.5208 37.4884 61.9701 36.9379L61.299 36.2672V8.57809C61.299 4.70072 58.5629 1.54639 55.1995 1.54639H6.09959C2.73616 1.54639 0 4.70072 0 8.57809V44.9107C0 48.7881 2.73616 51.9424 6.09959 51.9424H13.7265C14.4443 51.9424 15.0263 51.3604 15.0263 50.6425C15.0263 49.9246 14.4443 49.3426 13.7265 49.3426H6.09959C4.2026 49.3426 2.59991 47.313 2.59991 44.9108V21.3269H58.699V34.4631C58.5509 34.4403 58.4008 34.4253 58.2481 34.4253C58.2465 34.4253 58.245 34.4253 58.2436 34.4253C57.4647 34.4266 56.7347 34.7298 56.1923 35.2752L55.8409 35.6251C55.0697 35.2176 54.2664 34.8862 53.4382 34.6331V34.1701C53.4382 32.5634 52.1308 31.2564 50.5238 31.2564H48.1714C46.5663 31.2564 45.2607 32.5634 45.2607 34.1701V34.6649C44.448 34.9202 43.6634 35.2488 42.9134 35.6479L42.5767 35.3122C42.0299 34.7627 41.2998 34.4592 40.5209 34.4581C40.5195 34.4581 40.5181 34.4581 40.5165 34.4581C39.7375 34.4581 39.0061 34.7604 38.4566 35.3095L36.7946 36.9707C36.2439 37.5212 35.9414 38.2542 35.9425 39.0348C35.9437 39.8136 36.2471 40.5436 36.7931 41.0861L37.1521 41.4461C36.7624 42.1899 36.4423 42.9658 36.1947 43.7676H35.701C34.0958 43.7676 32.7901 45.0729 32.7901 46.6775V49.0322C32.7901 49.1369 32.7959 49.2403 32.8068 49.3421H25.2432C24.5253 49.3421 23.9433 49.9241 23.9433 50.642C23.9433 51.3599 24.5253 51.9419 25.2432 51.9419H35.7008H36.1996C36.451 52.7513 36.7759 53.5334 37.1723 54.2821L36.821 54.6318C35.6901 55.7687 35.6912 57.6145 36.8237 58.7462L38.4866 60.4085C39.0335 60.958 39.7636 61.2614 40.5424 61.2626H40.5467C41.3258 61.2626 42.0572 60.9603 42.6067 60.411L42.9549 60.0631C43.7103 60.4613 44.4957 60.7867 45.3042 61.0366V61.5397C45.3042 63.1464 46.6099 64.4534 48.2151 64.4534H50.5711C52.1761 64.4534 53.4818 63.1464 53.4818 61.5397V61.0397C54.2979 60.788 55.0865 60.4613 55.841 60.063L56.1877 60.4083C56.7343 60.958 57.4643 61.2613 58.2432 61.2626H58.2477C59.0267 61.2626 59.7581 60.9603 60.3087 60.4101L61.967 58.7489C62.5171 58.2022 62.8207 57.4722 62.8218 56.6934C62.823 55.9127 62.5204 55.1798 61.9696 54.6292L61.6227 54.2824C62.0183 53.5331 62.3431 52.7505 62.594 51.942H63.0853C64.6924 51.942 65.9997 50.6367 65.9997 49.0322V46.6775C66 45.0731 64.6926 43.7678 63.0856 43.7678ZM2.59991 18.727V8.57809C2.59991 6.17593 4.2026 4.1463 6.09959 4.1463H55.1995C57.0964 4.1463 58.6991 6.17593 58.6991 8.57809V18.7271L2.59991 18.727ZM63.4001 49.0325C63.4001 49.1976 63.2531 49.3424 63.0854 49.3424H61.5989C60.9928 49.3424 60.4671 49.7612 60.3317 50.352C60.051 51.5772 59.5687 52.7392 58.8983 53.8059C58.5754 54.3196 58.6508 54.9883 59.0801 55.4172L60.1319 56.4684C60.2106 56.5471 60.2222 56.6409 60.2222 56.6899C60.222 56.7484 60.2068 56.8334 60.1309 56.9087L58.4701 58.5724C58.3913 58.6511 58.2973 58.6629 58.2478 58.6629C58.2477 58.6629 58.2476 58.6629 58.2476 58.6629C58.1885 58.6629 58.1033 58.6476 58.0271 58.5709L56.9714 57.5195C56.542 57.092 55.8745 57.0178 55.3619 57.3401C54.2936 58.0121 53.1268 58.4951 51.8935 58.7757C51.302 58.9106 50.8821 59.4365 50.8821 60.0434V61.5401C50.8821 61.7072 50.7369 61.8539 50.5713 61.8539H48.2153C48.0497 61.8539 47.9044 61.7073 47.9044 61.5401V60.0397C47.9044 59.4323 47.4836 58.9057 46.8912 58.7717C45.6737 58.4964 44.5089 58.0142 43.4294 57.3387C43.2167 57.2055 42.9777 57.1406 42.7402 57.1406C42.4044 57.1406 42.0715 57.2704 41.8208 57.5212L40.7691 58.5724C40.6903 58.6511 40.5963 58.6629 40.5468 58.6629C40.5467 58.6629 40.5466 58.6629 40.5464 58.6629C40.4875 58.6629 40.4022 58.6476 40.3275 58.5726L38.6619 56.9078C38.5453 56.7912 38.5466 56.5847 38.6604 56.4702L39.716 55.4189C40.1473 54.9894 40.2227 54.3183 39.8978 53.8037C39.2263 52.7405 38.7434 51.5793 38.4624 50.3524C38.327 49.7616 37.8014 49.3426 37.1951 49.3426H35.7011C35.5326 49.3426 35.3902 49.2007 35.3902 49.0327V46.678C35.3902 46.51 35.5326 46.368 35.7011 46.368H37.1914C37.7981 46.368 38.3243 45.9481 38.459 45.3566C38.7365 44.1375 39.2132 42.9811 39.8759 41.9192C40.1958 41.4065 40.1203 40.741 39.6935 40.313L38.63 39.2464C38.5578 39.1748 38.5426 39.0898 38.5425 39.0313C38.5425 38.9823 38.5541 38.8885 38.6327 38.81L40.2945 37.1489C40.3733 37.0702 40.4673 37.0584 40.5168 37.0584H40.5172C40.5761 37.0585 40.6614 37.0737 40.7376 37.1504L41.7859 38.1946C42.2165 38.6234 42.8865 38.6969 43.3993 38.3716C44.4614 37.6981 45.6248 37.2104 46.8569 36.922C47.4447 36.7845 47.8604 36.2601 47.8604 35.6563V34.1705C47.8604 34.0005 48.0028 33.8567 48.1712 33.8567H50.5236C50.6942 33.8567 50.8383 34.0005 50.8383 34.1705V35.6344C50.8383 36.2434 51.2611 36.7708 51.8558 36.9032C53.0926 37.1786 54.2726 37.6651 55.363 38.3493C55.8754 38.6705 56.5423 38.5962 56.9713 38.169L58.0313 37.1133C58.1032 37.041 58.1884 37.0258 58.2473 37.0256H58.2477C58.2972 37.0256 58.3912 37.0375 58.4698 37.1161L60.1318 38.7771C60.2104 38.8557 60.222 38.9496 60.222 38.9986C60.2219 39.0571 60.2067 39.142 60.1303 39.2179L59.0782 40.273C58.6499 40.7027 58.5756 41.3715 58.8993 41.8845C59.5723 42.9515 60.0565 44.1199 60.3386 45.3571C60.4734 45.9485 60.9993 46.3681 61.6061 46.3681H63.0854C63.253 46.3681 63.4001 46.5131 63.4001 46.6781V49.0325Z" fill="black"/>
<path id="Vector_16" d="M49.3952 39.9161C45.0147 39.9161 41.451 43.4783 41.451 47.8569C41.451 52.2334 45.0147 55.794 49.3952 55.794C53.7738 55.794 57.3358 52.2335 57.3358 47.8569C57.3358 43.4785 53.7738 39.9161 49.3952 39.9161ZM49.3952 53.1941C46.4484 53.1941 44.0509 50.7998 44.0509 47.8569C44.0509 44.9119 46.4484 42.516 49.3952 42.516C52.3401 42.516 54.7359 44.9119 54.7359 47.8569C54.7359 50.7998 52.3399 53.1941 49.3952 53.1941Z" fill="black"/>
<path id="Vector_17" d="M19.5234 49.3425H19.4978C18.78 49.3425 18.198 49.9245 18.198 50.6424C18.198 51.3603 18.78 51.9423 19.4978 51.9423H19.5234C20.2412 51.9423 20.8233 51.3603 20.8233 50.6424C20.8233 49.9245 20.2412 49.3425 19.5234 49.3425Z" fill="black"/>
</g>
</svg>
