<svg width="66" height="66" viewBox="0 0 66 66" fill="none" xmlns="http://www.w3.org/2000/svg">
<g id="game" clip-path="url(#clip0_993_165)">
<path id="Vector" d="M17.6021 31.8997C16.9928 31.8997 16.3834 31.9327 15.7775 31.9975C8.72534 32.7553 1.99214 39.4611 1.20903 46.5154C0.167465 55.5671 6.66206 63.7488 15.7138 64.7904C19.4037 65.2149 23.1279 64.3813 26.2854 62.4257C27.8847 61.3853 29.7092 60.744 31.6076 60.5559C32.0651 60.5152 32.5293 60.4955 33.0001 60.4955C33.4466 60.4955 33.8898 60.5108 34.3287 60.5428C36.2556 60.7243 38.1099 61.3721 39.7311 62.4301C47.485 67.2155 57.6497 64.8091 62.4351 57.0552C64.3807 53.9031 65.2089 50.1878 64.7854 46.5088C64.0035 39.4599 57.2691 32.7553 50.2169 31.9975C49.6131 31.9327 49.0059 31.8997 48.3978 31.8997H17.6021Z" fill="#FFD33F"/>
<path id="Vector_2" d="M40.6944 51.6924C42.5167 51.6924 43.9939 50.2152 43.9939 48.3929C43.9939 46.5706 42.5167 45.0934 40.6944 45.0934C38.8721 45.0934 37.3949 46.5706 37.3949 48.3929C37.3949 50.2152 38.8721 51.6924 40.6944 51.6924Z" fill="#EA3836"/>
<path id="Vector_3" d="M61.6915 39.0145C48.4538 53.8503 18.6405 59.3715 6.99643 61.0113C12.4395 65.6131 20.2286 66.1817 26.2822 62.4203C27.8814 61.3799 29.706 60.7386 31.6044 60.5506C32.0641 60.5143 32.5305 60.4956 33.0001 60.4956C33.4466 60.4956 33.8898 60.5109 34.3287 60.5429C36.2556 60.7244 38.1099 61.3722 39.7311 62.4302C47.485 67.2156 57.6497 64.8092 62.4351 57.0553C64.3807 53.9032 65.2089 50.1879 64.7854 46.5089C64.4312 43.7824 63.3633 41.1978 61.6915 39.0145Z" fill="#FFAC3E"/>
<path id="Vector_4" d="M15.4025 40.6984H19.8018V46.1975H25.3011V50.597H19.8018V56.0962H15.4025V50.597H9.90329V46.1975H15.4025V40.6984Z" fill="#383856"/>
<g id="Group">
<path id="Vector_5" d="M48.3934 45.0934C50.2156 45.0934 51.6929 43.6162 51.6929 41.7939C51.6929 39.9716 50.2156 38.4944 48.3934 38.4944C46.5711 38.4944 45.0939 39.9716 45.0939 41.7939C45.0939 43.6162 46.5711 45.0934 48.3934 45.0934Z" fill="#91CECE"/>
<path id="Vector_6" d="M48.3934 58.2915C50.2156 58.2915 51.6929 56.8143 51.6929 54.992C51.6929 53.1697 50.2156 51.6925 48.3934 51.6925C46.5711 51.6925 45.0939 53.1697 45.0939 54.992C45.0939 56.8143 46.5711 58.2915 48.3934 58.2915Z" fill="#91CECE"/>
</g>
<path id="Vector_7" d="M56.0922 51.6924C57.9145 51.6924 59.3917 50.2152 59.3917 48.3929C59.3917 46.5706 57.9145 45.0934 56.0922 45.0934C54.2699 45.0934 52.7927 46.5706 52.7927 48.3929C52.7927 50.2152 54.2699 51.6924 56.0922 51.6924Z" fill="#EA3836"/>
<path id="Vector_8" d="M30.8003 31.8997V27.5002H35.1996V31.8997" fill="#874D1B"/>
<path id="Vector_9" d="M42.408 45.5884C42.7269 46.1019 42.8963 46.6938 42.8985 47.2976C42.8985 49.12 41.4213 50.5971 39.5989 50.5971C38.9951 50.5949 38.4035 50.4255 37.8898 50.1066C38.829 51.6617 40.8527 52.1611 42.408 51.2217C43.9632 50.2824 44.4625 48.2588 43.5233 46.7035C43.2483 46.2471 42.8644 45.8644 42.408 45.5884Z" fill="#D62121"/>
<path id="Vector_10" d="M50.1069 38.9893C50.4258 39.5028 50.5952 40.0946 50.5974 40.6984C50.5974 42.5209 49.1203 43.9979 47.2979 43.9979C46.6941 43.9957 46.1024 43.8264 45.5887 43.5075C46.528 45.0626 48.5517 45.562 50.1069 44.6226C51.6621 43.6834 52.1615 41.6597 51.2221 40.1044C50.9471 39.6481 50.5634 39.2654 50.1069 38.9893Z" fill="#83B2B7"/>
<path id="Vector_11" d="M57.8058 45.5884C58.1247 46.1019 58.2941 46.6938 58.2962 47.2976C58.2962 49.12 56.8191 50.5971 54.9967 50.5971C54.3929 50.5949 53.8013 50.4255 53.2876 50.1066C54.2268 51.6617 56.2505 52.1611 57.8058 51.2217C59.361 50.2824 59.8603 48.2588 58.9209 46.7035C58.6461 46.2471 58.2622 45.8644 57.8058 45.5884Z" fill="#D62121"/>
<path id="Vector_12" d="M50.1069 52.1874C50.4258 52.7009 50.5952 53.2928 50.5974 53.8966C50.5974 55.719 49.1203 57.1961 47.2979 57.1961C46.6941 57.1939 46.1024 57.0245 45.5887 56.7056C46.528 58.2607 48.5517 58.7601 50.1069 57.8207C51.6621 56.8815 52.1615 54.8578 51.2221 53.3026C50.9471 52.8462 50.5634 52.4634 50.1069 52.1874Z" fill="#83B2B7"/>
<path id="Vector_13" d="M9.90329 49.5225V50.5971H15.4025V56.0963H19.8018V50.5971H25.301V46.1978H23.4653C19.121 49.2267 12.4968 49.5301 9.90329 49.5225Z" fill="#202033"/>
<path id="Vector_14" d="M30.8003 31.5994V31.8996H35.1996V28.2866C34.1515 29.8584 32.6007 31.0264 30.8003 31.5994Z" fill="#6B3713"/>
<path id="Vector_15" d="M25.3011 45.0977H20.9017V40.6983C20.9017 40.0912 20.4091 39.5985 19.8019 39.5985H15.4026C14.7954 39.5985 14.3027 40.0912 14.3027 40.6983V45.0977H9.90327C9.29612 45.0977 8.80344 45.5904 8.80344 46.1975V50.5969C8.80344 51.204 9.29612 51.6967 9.90327 51.6967H14.3026V56.096C14.3026 56.7032 14.7953 57.1959 15.4024 57.1959H19.8018C20.4089 57.1959 20.9016 56.7032 20.9016 56.096V51.6968H25.301C25.9081 51.6968 26.4008 51.2041 26.4008 50.597V46.1976C26.4009 45.5905 25.9081 45.0977 25.3011 45.0977ZM24.2013 49.4972H19.8019C19.1948 49.4972 18.7021 49.9898 18.7021 50.597V54.9963H16.5024V50.597C16.5024 49.9898 16.0097 49.4972 15.4026 49.4972H11.0031V47.2975H15.4024C16.0096 47.2975 16.5023 46.8048 16.5023 46.1976V41.7983H18.7019V46.1976C18.7019 46.8048 19.1946 47.2975 19.8018 47.2975H24.2011V49.4972H24.2013Z" fill="black"/>
<path id="Vector_16" d="M48.3977 46.1976C50.8273 46.1976 52.7971 44.2278 52.7971 41.7983C52.7971 39.3688 50.8273 37.3989 48.3977 37.3989C45.9682 37.3989 43.9984 39.3688 43.9984 41.7983C43.9984 44.2278 45.9682 46.1976 48.3977 46.1976ZM48.3977 39.5986C49.6131 39.5986 50.5974 40.5829 50.5974 41.7983C50.5974 43.0136 49.6131 43.9979 48.3977 43.9979C47.1824 43.9979 46.1981 43.0136 46.1981 41.7983C46.1981 40.5829 47.1836 39.5986 48.3977 39.5986Z" fill="black"/>
<path id="Vector_17" d="M48.3977 50.597C45.9682 50.597 43.9984 52.5669 43.9984 54.9964C43.9984 57.4259 45.9682 59.3957 48.3977 59.3957C50.8273 59.3957 52.7971 57.4259 52.7971 54.9964C52.7971 52.5667 50.8273 50.597 48.3977 50.597ZM48.3977 57.1961C47.1824 57.1961 46.1981 56.2117 46.1981 54.9964C46.1981 53.781 47.1824 52.7967 48.3977 52.7967C49.6131 52.7967 50.5974 53.781 50.5974 54.9964C50.5974 56.2117 49.6131 57.1961 48.3977 57.1961Z" fill="black"/>
<path id="Vector_18" d="M40.6989 43.9979C38.2694 43.9979 36.2996 45.9678 36.2996 48.3973C36.2996 50.8268 38.2694 52.7966 40.6989 52.7966C43.1284 52.7966 45.0982 50.8268 45.0982 48.3973C45.0982 45.9678 43.1284 43.9979 40.6989 43.9979ZM40.6989 50.5971C39.4836 50.5971 38.4992 49.6127 38.4992 48.3974C38.4992 47.1821 39.4836 46.1977 40.6989 46.1977C41.9142 46.1977 42.8986 47.1821 42.8986 48.3974C42.8986 49.6127 41.9141 50.5971 40.6989 50.5971Z" fill="black"/>
<path id="Vector_19" d="M56.0966 43.9979C53.6671 43.9979 51.6973 45.9678 51.6973 48.3973C51.6973 50.8268 53.6671 52.7966 56.0966 52.7966C58.5261 52.7966 60.4959 50.8268 60.4959 48.3973C60.4959 45.9678 58.5262 43.9979 56.0966 43.9979ZM56.0966 50.5971C54.8813 50.5971 53.8969 49.6127 53.8969 48.3974C53.8969 47.1821 54.8813 46.1977 56.0966 46.1977C57.3119 46.1977 58.2963 47.1821 58.2963 48.3974C58.2963 49.6127 57.3119 50.5971 56.0966 50.5971Z" fill="black"/>
<path id="Vector_20" d="M50.3378 30.91C49.6933 30.8384 49.0455 30.8022 48.3976 30.8H36.2993V26.4007H34.0998V24.201C34.0998 21.7715 32.13 19.8017 29.7004 19.8017H24.2013C22.9859 19.8017 22.0016 18.8173 22.0016 17.602C22.0016 16.3867 22.9859 15.4023 24.2013 15.4023H41.7988C44.2283 15.4023 46.1981 13.4325 46.1981 11.003C46.1981 8.57349 44.2283 6.60366 41.7988 6.60366H36.2996C35.0842 6.60366 34.0999 5.61933 34.0999 4.40399V0.00439453H31.9002V4.40373C31.9002 6.83324 33.8701 8.80307 36.2996 8.80307H41.7988C43.0141 8.80307 43.9984 9.7874 43.9984 11.0027C43.9984 12.2181 43.0141 13.2024 41.7988 13.2024H24.2013C21.7718 13.2024 19.8019 15.1722 19.8019 17.6017C19.8019 20.0313 21.7718 22.0011 24.2013 22.0011H29.7004C30.9158 22.0011 31.9001 22.9854 31.9001 24.2008V26.4004H29.7004V30.7998H17.6021C16.9532 30.8009 16.3043 30.8383 15.6598 30.9097C8.07101 31.7239 0.957147 38.8146 0.115771 46.3935C-0.989607 56.049 5.94275 64.7729 15.5983 65.8772C19.5302 66.327 23.4995 65.4384 26.864 63.3552C28.3125 62.4071 29.9688 61.822 31.6912 61.6494C32.5425 61.5824 33.397 61.579 34.2483 61.6406C35.9982 61.81 37.6809 62.4017 39.1514 63.3652C47.4188 68.475 58.2622 65.9145 63.3721 57.6471C65.4509 54.2826 66.3362 50.3167 65.8853 46.388C65.0417 38.809 57.9235 31.7183 50.3378 30.91ZM31.9001 28.6002H34.0998V30.7999H31.9001V28.6002ZM59.8746 58.6634C54.9023 64.2253 46.6567 65.4186 40.3107 61.4955C38.5388 60.3418 36.5118 59.6378 34.4056 59.4465C33.9414 59.4125 33.4729 59.396 33 59.396C32.4995 59.396 32.0101 59.4169 31.5174 59.4554C29.4431 59.6544 27.4479 60.3507 25.7014 61.4857C18.4699 65.9598 8.98045 63.7249 4.50518 56.4935C2.68386 53.5493 1.90732 50.0782 2.30216 46.6378C3.02585 40.1245 9.37632 33.7983 15.8962 33.0977C16.4626 33.0338 17.0324 33.002 17.602 32.9998H48.3976C48.9674 32.9998 49.537 33.0306 50.1035 33.0911C56.6223 33.7917 62.9716 40.1179 63.6975 46.6312C64.2167 51.0052 62.8232 55.3902 59.8746 58.6634Z" fill="black"/>
</g>
<defs>
<clipPath id="clip0_993_165">
<rect width="66" height="66" fill="white"/>
</clipPath>
</defs>
</svg>
