<svg width="24" height="24" viewBox="0 0 24 24" fill="none" xmlns="http://www.w3.org/2000/svg">
<g id="ri:key-fill">
<path id="Vector" d="M16.9998 14H12.6588C12.187 15.3344 11.2587 16.4591 10.0378 17.1753C8.81703 17.8914 7.38233 18.1529 5.98734 17.9136C4.59235 17.6743 3.32688 16.9495 2.4146 15.8673C1.50231 14.7852 1.00195 13.4154 1.00195 12C1.00195 10.5846 1.50231 9.21483 2.4146 8.13269C3.32688 7.05055 4.59235 6.32576 5.98734 6.08642C7.38233 5.84708 8.81703 6.1086 10.0378 6.82475C11.2587 7.5409 12.187 8.66558 12.6588 10H22.9998V14H20.9998V18H16.9998V14ZM6.99981 14C7.53024 14 8.03895 13.7893 8.41402 13.4142C8.78909 13.0392 8.99981 12.5304 8.99981 12C8.99981 11.4696 8.78909 10.9609 8.41402 10.5858C8.03895 10.2107 7.53024 10 6.99981 10C6.46937 10 5.96067 10.2107 5.58559 10.5858C5.21052 10.9609 4.99981 11.4696 4.99981 12C4.99981 12.5304 5.21052 13.0392 5.58559 13.4142C5.96067 13.7893 6.46937 14 6.99981 14Z" fill="#1F37B3"/>
</g>
</svg>
