<svg width="28" height="16" viewBox="0 0 28 16" fill="none" xmlns="http://www.w3.org/2000/svg">
<path d="M20.25 10.5H14.8238C14.234 12.168 13.0736 13.5739 11.5476 14.4691C10.0215 15.3643 8.22816 15.6912 6.48442 15.392C4.74068 15.0928 3.15885 14.1868 2.01849 12.8342C0.878135 11.4815 0.252686 9.76923 0.252686 8.00002C0.252686 6.2308 0.878135 4.51854 2.01849 3.16587C3.15885 1.81319 4.74068 0.907205 6.48442 0.608026C8.22816 0.308848 10.0215 0.635744 11.5476 1.53094C13.0736 2.42613 14.234 3.83198 14.8238 5.50002H27.75V10.5H25.25V15.5H20.25V10.5ZM7.75 10.5C8.41304 10.5 9.04893 10.2366 9.51777 9.76778C9.98661 9.29894 10.25 8.66306 10.25 8.00002C10.25 7.33697 9.98661 6.70109 9.51777 6.23225C9.04893 5.76341 8.41304 5.50002 7.75 5.50002C7.08696 5.50002 6.45108 5.76341 5.98224 6.23225C5.5134 6.70109 5.25 7.33697 5.25 8.00002C5.25 8.66306 5.5134 9.29894 5.98224 9.76778C6.45108 10.2366 7.08696 10.5 7.75 10.5Z" fill="black"/>
</svg>
