<svg width="16" height="18" viewBox="0 0 16 18" fill="none" xmlns="http://www.w3.org/2000/svg">
<path id="Vector" d="M14.1875 7.875H13.3438V5.34375C13.3438 2.39766 10.9461 0 8 0C5.05391 0 2.65625 2.39766 2.65625 5.34375V7.875H1.8125C0.880859 7.875 0.125 8.63086 0.125 9.5625V16.3125C0.125 17.2441 0.880859 18 1.8125 18H14.1875C15.1191 18 15.875 17.2441 15.875 16.3125V9.5625C15.875 8.63086 15.1191 7.875 14.1875 7.875ZM10.5312 7.875H5.46875V5.34375C5.46875 3.94805 6.6043 2.8125 8 2.8125C9.3957 2.8125 10.5312 3.94805 10.5312 5.34375V7.875Z" fill="#9E9E9E"/>
</svg>
