<svg width="336" height="103" viewBox="0 0 336 103" fill="none" xmlns="http://www.w3.org/2000/svg">
<g clip-path="url(#clip0_1181_1643)">
<path d="M70.7501 81.6799L53.1201 91.9299L53.0601 51.3699L70.7501 41.1899V81.6799Z" fill="#317BFF"/>
<path d="M98.1799 86.0001V73.8501H99.4699V84.8501H104.88V86.0001H98.1799Z" fill="black"/>
<path d="M108.68 82.0601C108.669 82.8721 108.977 83.656 109.538 84.2432C110.099 84.8303 110.868 85.1739 111.68 85.2001C112.223 85.2533 112.769 85.1427 113.249 84.8825C113.728 84.6223 114.119 84.2243 114.37 83.7401L115.2 84.2801C114.841 84.8697 114.336 85.3565 113.733 85.6929C113.13 86.0294 112.45 86.2041 111.76 86.2001C108.99 86.2001 107.48 84.2001 107.48 81.7101C107.457 81.1476 107.547 80.5863 107.745 80.0591C107.942 79.532 108.243 79.0496 108.63 78.6406C109.017 78.2315 109.481 77.9039 109.997 77.6771C110.512 77.4504 111.067 77.3289 111.63 77.3201C112.141 77.3316 112.644 77.4447 113.111 77.6528C113.578 77.861 113.998 78.1599 114.348 78.5322C114.698 78.9045 114.971 79.3427 115.149 79.8214C115.328 80.3 115.41 80.8095 115.39 81.3201C115.404 81.5832 115.404 81.8469 115.39 82.1101L108.68 82.0601ZM111.68 78.3301C110.937 78.328 110.221 78.6074 109.675 79.112C109.13 79.6166 108.796 80.3091 108.74 81.0501H114.28C114.271 80.347 113.993 79.674 113.504 79.1685C113.016 78.663 112.352 78.3631 111.65 78.3301H111.68Z" fill="black"/>
<path d="M124.61 85.0001C124.258 85.3845 123.828 85.6895 123.348 85.8947C122.869 86.0999 122.351 86.2006 121.83 86.1901C121.471 86.2286 121.107 86.1933 120.762 86.0863C120.417 85.9793 120.097 85.8028 119.823 85.5677C119.549 85.3326 119.325 85.0439 119.166 84.7193C119.008 84.3947 118.917 84.041 118.9 83.6801C118.9 81.5901 120.84 80.7801 122.65 80.7801C123.298 80.7852 123.943 80.8726 124.57 81.0401V80.5701C124.613 80.2752 124.586 79.9745 124.493 79.6914C124.4 79.4083 124.243 79.1507 124.034 78.9385C123.825 78.7264 123.569 78.5656 123.287 78.4687C123.006 78.3718 122.705 78.3415 122.41 78.3801C121.446 78.4104 120.502 78.6601 119.65 79.1101L119.25 78.0501C120.262 77.5981 121.352 77.3468 122.46 77.3101C124.97 77.3101 125.75 78.6301 125.75 80.8101V86.0001H124.75L124.61 85.0001ZM122.61 81.7501C121.44 81.7501 120.09 82.2201 120.09 83.5401C120.089 83.7703 120.136 83.9981 120.227 84.2094C120.319 84.4208 120.452 84.6111 120.62 84.7686C120.788 84.9262 120.986 85.0475 121.203 85.1252C121.42 85.2028 121.65 85.2351 121.88 85.2201C122.91 85.1608 123.877 84.7058 124.58 83.9501V82.0001C123.932 81.8428 123.267 81.7623 122.6 81.7601L122.61 81.7501Z" fill="black"/>
<path d="M131.71 79.1201C131.91 78.6193 132.246 78.1849 132.681 77.8665C133.116 77.5482 133.632 77.3588 134.17 77.3201C134.408 77.3191 134.646 77.3426 134.88 77.3901L134.73 78.6901C134.48 78.573 134.206 78.5181 133.93 78.5301C132.93 78.5301 132.31 79.2601 131.71 80.3401V86.0001H130.53V77.5301H131.71V79.1201Z" fill="black"/>
<path d="M139.48 77.5299V78.9999C139.779 78.4712 140.216 78.0337 140.745 77.7343C141.273 77.4348 141.873 77.2847 142.48 77.2999C144.89 77.2999 145.67 78.8399 145.67 81.3899V85.9999H144.49V81.5999C144.49 80.0099 144.2 78.3899 142.31 78.3899C141.698 78.4322 141.109 78.6409 140.607 78.9933C140.105 79.3458 139.708 79.8286 139.46 80.3899V85.9999H138.3V77.5299H139.48Z" fill="black"/>
<path d="M150.33 86V84.24H151.77V86H150.33Z" fill="black"/>
<path d="M169.08 80.6201V79.4401H173.54V84.0001C172.95 84.7103 172.21 85.2806 171.373 85.6697C170.536 86.0588 169.623 86.2571 168.7 86.2501C164.97 86.2501 162.16 83.7201 162.16 79.9701C162.167 79.1237 162.344 78.2875 162.68 77.5105C163.016 76.7336 163.504 76.0318 164.115 75.4465C164.727 74.8612 165.449 74.4043 166.24 74.1026C167.031 73.801 167.874 73.6607 168.72 73.6901C169.569 73.691 170.409 73.8694 171.186 74.2138C171.963 74.5582 172.659 75.0611 173.23 75.6901L172.29 76.4201C171.594 75.6743 170.689 75.1561 169.694 74.9335C168.699 74.7108 167.659 74.7942 166.712 75.1726C165.765 75.551 164.955 76.2068 164.387 77.054C163.819 77.9012 163.52 78.9002 163.53 79.9201C163.491 80.6078 163.599 81.2958 163.848 81.9383C164.096 82.5807 164.479 83.1628 164.97 83.6455C165.461 84.1283 166.05 84.5006 166.696 84.7377C167.343 84.9747 168.033 85.071 168.72 85.0201C170.027 85.0499 171.296 84.5734 172.26 83.6901V80.6201H169.08Z" fill="black"/>
<path d="M179.55 79.1201C179.75 78.6193 180.086 78.1848 180.521 77.8665C180.956 77.5482 181.472 77.3588 182.01 77.3201C182.252 77.3195 182.493 77.343 182.73 77.3901L182.57 78.6901C182.32 78.573 182.046 78.5181 181.77 78.5301C180.77 78.5301 180.16 79.2601 179.55 80.3401V86.0001H178.37V77.5301H179.55V79.1201Z" fill="black"/>
<path d="M193.9 81.7599C193.867 82.5964 193.588 83.4046 193.099 84.0841C192.61 84.7636 191.932 85.2843 191.15 85.5816C190.367 85.8789 189.514 85.9396 188.698 85.7561C187.881 85.5726 187.136 85.1531 186.556 84.5497C185.975 83.9464 185.585 83.1857 185.434 82.3624C185.282 81.539 185.376 80.6894 185.704 79.919C186.031 79.1486 186.578 78.4915 187.276 78.0294C187.974 77.5673 188.793 77.3206 189.63 77.3199C190.206 77.3166 190.777 77.4305 191.308 77.6547C191.838 77.8788 192.318 78.2086 192.717 78.6238C193.117 79.0391 193.428 79.5313 193.631 80.0704C193.834 80.6095 193.926 81.1843 193.9 81.7599ZM189.63 78.3899C188.948 78.3232 188.263 78.4645 187.663 78.7951C187.063 79.1257 186.578 79.6302 186.271 80.242C185.963 80.8539 185.848 81.5445 185.941 82.2229C186.034 82.9013 186.33 83.5357 186.79 84.0427C187.25 84.5496 187.853 84.9053 188.52 85.0628C189.186 85.2204 189.885 85.1725 190.523 84.9254C191.162 84.6783 191.711 84.2436 192.097 83.6786C192.484 83.1135 192.691 82.4446 192.69 81.7599C192.72 81.3356 192.663 80.9096 192.524 80.5077C192.385 80.1058 192.166 79.7362 191.88 79.4213C191.594 79.1064 191.247 78.8526 190.86 78.6754C190.474 78.4981 190.055 78.401 189.63 78.3899Z" fill="black"/>
<path d="M203.46 77.53L205.35 84.85L207.35 77.53H208.51L206.1 86H204.61L202.61 78.8L200.61 86H199L196.85 77.54H198.07L199.84 84.88L201.92 77.54L203.46 77.53Z" fill="black"/>
<path d="M211.72 86V84.24H213.16V86H211.72Z" fill="black"/>
<path d="M227.74 74.8199C226.25 74.8199 225.29 75.5299 225.29 76.7099C225.29 78.0599 226.91 78.4799 228.5 79.0699C230.09 79.6599 231.66 80.4199 231.66 82.4499C231.66 85.1799 229.28 86.1999 227.55 86.1999C226.757 86.2334 225.966 86.0974 225.229 85.8008C224.493 85.5042 223.828 85.0539 223.28 84.4799L224.28 83.6199C224.688 84.0931 225.2 84.4655 225.776 84.7084C226.352 84.9512 226.976 85.0578 227.6 85.0199C228.98 85.0199 230.32 84.2899 230.32 82.6599C230.32 81.2099 228.93 80.6599 227.46 80.1099C225.79 79.4899 224 78.8599 224 76.8899C224 74.6599 225.65 73.6399 227.56 73.6399C228.86 73.6081 230.132 74.0169 231.17 74.7999L230.32 75.7399C229.595 75.1392 228.682 74.8134 227.74 74.8199Z" fill="black"/>
<path d="M242.4 86V84.5C242.103 85.0302 241.666 85.4689 241.137 85.7686C240.608 86.0682 240.008 86.2174 239.4 86.2C236.99 86.2 236.21 84.66 236.21 82.11V77.53H237.39V81.92C237.39 83.51 237.69 85.13 239.58 85.13C240.191 85.0881 240.779 84.8795 241.279 84.5269C241.78 84.1743 242.175 83.6911 242.42 83.13V77.53H243.6V86H242.4Z" fill="black"/>
<path d="M254.48 85.47C253.806 85.9499 252.998 86.2053 252.17 86.2C251.488 86.213 250.812 86.0686 250.194 85.778C249.577 85.4874 249.034 85.0583 248.61 84.5241C248.185 83.99 247.889 83.3651 247.745 82.698C247.601 82.031 247.613 81.3397 247.779 80.6778C247.946 80.016 248.262 79.4015 248.705 78.8819C249.147 78.3624 249.704 77.9518 250.331 77.6822C250.957 77.4125 251.638 77.291 252.32 77.327C253.001 77.363 253.665 77.5557 254.26 77.89L253.82 78.89C253.284 78.5729 252.673 78.4038 252.05 78.4C251.619 78.4032 251.193 78.4943 250.798 78.6678C250.403 78.8413 250.048 79.0935 249.754 79.4089C249.46 79.7244 249.234 80.0964 249.089 80.5024C248.944 80.9084 248.883 81.3397 248.91 81.77C248.876 82.205 248.934 82.6422 249.08 83.0536C249.225 83.4649 249.455 83.8414 249.754 84.1587C250.054 84.476 250.416 84.7272 250.818 84.8962C251.221 85.0652 251.654 85.1482 252.09 85.14C252.723 85.1149 253.337 84.9216 253.87 84.58L254.48 85.47Z" fill="black"/>
<path d="M264.25 85.4701C263.576 85.95 262.768 86.2054 261.94 86.2001C260.762 86.2001 259.633 85.7323 258.8 84.8996C257.968 84.067 257.5 82.9376 257.5 81.7601C257.5 80.5825 257.968 79.4532 258.8 78.6205C259.633 77.7879 260.762 77.3201 261.94 77.3201C262.681 77.321 263.409 77.5176 264.05 77.8901L263.62 78.8901C263.084 78.573 262.473 78.4039 261.85 78.4001C261.418 78.4018 260.992 78.492 260.596 78.665C260.201 78.838 259.845 79.0901 259.551 79.4059C259.257 79.7216 259.03 80.0943 258.886 80.5009C258.741 80.9075 258.681 81.3394 258.71 81.7701C258.675 82.2054 258.732 82.6433 258.876 83.0554C259.021 83.4674 259.251 83.8445 259.551 84.1621C259.85 84.4798 260.214 84.731 260.617 84.8994C261.019 85.0679 261.453 85.1499 261.89 85.1401C262.523 85.115 263.137 84.9217 263.67 84.5801L264.25 85.4701Z" fill="black"/>
<path d="M268.42 82.0601C268.409 82.8721 268.717 83.656 269.278 84.2432C269.839 84.8303 270.608 85.1739 271.42 85.2001C271.961 85.2526 272.506 85.1416 272.984 84.8814C273.462 84.6211 273.85 84.2235 274.1 83.7401L274.94 84.2801C274.581 84.8697 274.075 85.3565 273.473 85.6929C272.87 86.0294 272.19 86.2041 271.5 86.2001C268.73 86.2001 267.22 84.2001 267.22 81.7101C267.196 81.1481 267.285 80.587 267.481 80.0599C267.677 79.5328 267.977 79.0503 268.363 78.6411C268.749 78.2319 269.213 77.9042 269.728 77.6773C270.243 77.4504 270.797 77.3289 271.36 77.3201C271.872 77.3303 272.376 77.4425 272.844 77.65C273.312 77.8575 273.734 78.1562 274.085 78.5287C274.436 78.9011 274.709 79.3398 274.888 79.8191C275.068 80.2984 275.15 80.8087 275.13 81.3201C275.13 81.6001 275.13 81.9501 275.13 82.1101L268.42 82.0601ZM271.42 78.3301C270.678 78.3282 269.963 78.6079 269.419 79.1127C268.875 79.6176 268.543 80.3099 268.49 81.0501H274C273.991 80.3486 273.715 79.677 273.228 79.1718C272.741 78.6666 272.081 78.3656 271.38 78.3301H271.42Z" fill="black"/>
<path d="M279.66 82.0601C279.652 82.8714 279.961 83.6538 280.521 84.2404C281.082 84.827 281.849 85.1714 282.66 85.2001C283.203 85.2533 283.749 85.1427 284.229 84.8825C284.708 84.6223 285.099 84.2243 285.35 83.7401L286.18 84.2801C285.822 84.8683 285.318 85.3541 284.717 85.6905C284.116 86.0268 283.439 86.2024 282.75 86.2001C282.164 86.2219 281.579 86.119 281.035 85.8984C280.492 85.6777 280.001 85.3442 279.595 84.9198C279.19 84.4955 278.879 83.99 278.683 83.4367C278.488 82.8834 278.412 82.2949 278.46 81.7101C278.437 81.1476 278.527 80.5863 278.725 80.0591C278.922 79.532 279.223 79.0496 279.61 78.6406C279.997 78.2315 280.461 77.9039 280.976 77.6771C281.492 77.4504 282.047 77.3289 282.61 77.3201C283.121 77.3316 283.624 77.4447 284.091 77.6528C284.558 77.861 284.978 78.1599 285.328 78.5322C285.678 78.9045 285.95 79.3427 286.129 79.8214C286.308 80.3 286.39 80.8095 286.37 81.3201C286.367 81.5841 286.351 81.8478 286.32 82.1101L279.66 82.0601ZM282.66 78.3301C281.918 78.3282 281.203 78.6079 280.659 79.1127C280.115 79.6176 279.783 80.3099 279.73 81.0501H285.26C285.251 80.347 284.973 79.674 284.484 79.1685C283.996 78.663 283.332 78.3631 282.63 78.3301H282.66Z" fill="black"/>
<path d="M296.79 84.9C296.465 85.3115 296.05 85.6427 295.576 85.8681C295.103 86.0935 294.584 86.2071 294.06 86.2C293.485 86.2014 292.916 86.0881 292.385 85.8666C291.854 85.6451 291.373 85.3199 290.97 84.9101C290.567 84.5003 290.249 84.0142 290.036 83.4801C289.824 82.946 289.719 82.3749 289.73 81.8C289.719 81.2197 289.824 80.643 290.037 80.1031C290.25 79.5633 290.568 79.071 290.973 78.6546C291.377 78.2382 291.86 77.9059 292.393 77.6768C292.926 77.4478 293.5 77.3265 294.08 77.32C295.075 77.3108 296.039 77.6665 296.79 78.32V73H298V86H296.82L296.79 84.9ZM296.79 79.73C296.465 79.326 296.056 78.9972 295.592 78.7659C295.127 78.5346 294.618 78.4064 294.1 78.39C293.672 78.3963 293.249 78.4884 292.856 78.6607C292.464 78.8331 292.11 79.0823 291.816 79.3935C291.521 79.7048 291.292 80.0719 291.141 80.4732C290.991 80.8745 290.923 81.3018 290.94 81.73C290.92 82.1618 290.986 82.5932 291.135 82.9991C291.283 83.4049 291.512 83.7771 291.806 84.0937C292.1 84.4103 292.455 84.665 292.849 84.843C293.242 85.0209 293.668 85.1185 294.1 85.13C294.65 85.1259 295.189 84.9756 295.662 84.6944C296.134 84.4132 296.524 84.0114 296.79 83.53V79.73Z" fill="black"/>
<path d="M105.18 36.28C107.909 36.1556 110.619 36.8001 113 38.14C114.061 38.8117 114.931 39.747 115.523 40.8546C116.115 41.9622 116.411 43.2044 116.38 44.46C116.401 45.6373 116.07 46.7939 115.428 47.7812C114.787 48.7685 113.864 49.5412 112.78 50C114.181 50.4325 115.407 51.3032 116.276 52.484C117.146 53.6649 117.613 55.0936 117.61 56.56C117.612 58.1786 117.119 59.7589 116.196 61.0889C115.274 62.4188 113.967 63.4347 112.45 64C110.01 64.8506 107.433 65.2406 104.85 65.15H97.5901V36.28H105.18ZM103.49 48.05H105.14C108.53 48.05 110.51 46.93 110.51 44.66C110.534 44.1494 110.434 43.6407 110.218 43.1774C110.002 42.7141 109.677 42.3101 109.27 42C108.16 41.25 106.51 41.25 104.65 41.25H103.49V48.05ZM103.49 60.23H104.85C106.473 60.3639 108.105 60.1526 109.64 59.61C110.175 59.3514 110.619 58.9369 110.913 58.421C111.208 57.9051 111.339 57.3121 111.29 56.72C111.29 54.32 109.73 52.84 106.79 52.84H103.49V60.23Z" fill="#173CC1"/>
<path d="M128.55 65.1799H122.69V34.1799H128.55V65.1799Z" fill="#173CC1"/>
<path d="M155.51 54.32C155.422 57.2785 154.185 60.0864 152.062 62.148C149.938 64.2096 147.095 65.3627 144.135 65.3627C141.175 65.3627 138.332 64.2096 136.208 62.148C134.085 60.0864 132.848 57.2785 132.76 54.32C132.848 51.3616 134.085 48.5537 136.208 46.4921C138.332 44.4305 141.175 43.2773 144.135 43.2773C147.095 43.2773 149.938 44.4305 152.062 46.4921C154.185 48.5537 155.422 51.3616 155.51 54.32ZM144.16 48C140.94 48 138.75 50.76 138.75 54.31C138.75 57.86 140.94 60.63 144.16 60.63C147.38 60.63 149.52 57.86 149.52 54.31C149.52 50.76 147.38 48 144.16 48Z" fill="#173CC1"/>
<path d="M177.06 63.0001C174.898 64.8585 172.108 65.8207 169.26 65.6901C162.86 65.6901 158.26 61.0601 158.26 54.3301C158.215 52.8445 158.472 51.3652 159.015 49.9815C159.558 48.5979 160.375 47.3386 161.418 46.2797C162.461 45.2208 163.708 44.3843 165.083 43.8206C166.458 43.2569 167.934 42.9778 169.42 43.0001C172.206 42.9477 174.917 43.899 177.06 45.6801L174.06 49.7701C173.508 49.2091 172.849 48.7636 172.123 48.4597C171.397 48.1558 170.617 47.9996 169.83 48.0001C166.53 48.0001 164.22 50.8401 164.22 54.3101C164.22 57.9501 166.65 60.6301 169.75 60.6301C170.52 60.6605 171.288 60.5313 172.005 60.2508C172.723 59.9703 173.375 59.5445 173.92 59.0001L177.06 63.0001Z" fill="#173CC1"/>
<path d="M193.78 65.1799L188.78 57.1299L186.68 59.5699V65.1799H180.81V34.1799H186.68V52.2999H186.76L193.76 43.4599H200.45L192.68 52.5499L201 65.1799H193.78Z" fill="#173CC1"/>
<path d="M216.9 65.18L216.44 63.32C215.7 64.1356 214.785 64.7719 213.762 65.1808C212.74 65.5897 211.638 65.7605 210.54 65.68C206.54 65.68 202.73 63.24 202.73 58.78C202.73 53.46 207.73 51.78 212.19 51.78C213.509 51.799 214.822 51.9531 216.11 52.24V51.91C216.11 49.18 215 47.53 211.82 47.53C209.508 47.619 207.253 48.2712 205.25 49.43L203.68 45.22C206.583 43.7971 209.767 43.0387 213 43C219 43 222 46.51 222 52.17V65.17L216.9 65.18ZM216.11 55.73C215.127 55.4937 214.121 55.3695 213.11 55.36C210.96 55.36 208.44 56.14 208.44 58.7C208.44 60.6 210.01 61.59 211.75 61.59C213.378 61.5473 214.928 60.8816 216.08 59.73L216.11 55.73Z" fill="#173CC1"/>
<path d="M243.28 65.18L242.78 62.5C241.25 64.89 238.32 65.68 236.09 65.68C230.35 65.68 225.98 60.56 225.98 54.24C225.98 48.13 230.27 42.97 236.18 42.97C237.353 42.951 238.518 43.1718 239.603 43.6189C240.688 44.066 241.671 44.7299 242.49 45.57V34.22H248.36V65.22L243.28 65.18ZM242.49 50.36C241.888 49.6158 241.126 49.0177 240.26 48.6107C239.394 48.2037 238.447 47.9983 237.49 48.01C233.74 48.01 232 51.35 232 54.41C232 57.47 234.07 60.64 237.41 60.64C238.442 60.6751 239.464 60.4283 240.366 59.9262C241.268 59.424 242.016 58.6855 242.53 57.79L242.49 50.36Z" fill="#173CC1"/>
<path d="M258.51 55.77C258.92 58.77 260.86 60.97 263.96 60.97C266.77 60.97 268.21 59.81 269.62 57.75L273.46 60.35C270.98 63.94 268.21 65.68 263.55 65.68C256.98 65.68 252.55 61.1 252.55 54.57C252.55 48.04 257.34 42.97 263.55 42.97C269.55 42.97 274.04 47.22 274.04 52.97C274.023 53.8999 273.926 54.8266 273.75 55.74L258.51 55.77ZM268.09 51.77C268.095 51.2048 267.984 50.6446 267.766 50.1232C267.548 49.6018 267.226 49.1301 266.821 48.7366C266.415 48.3431 265.934 48.0359 265.406 47.8337C264.878 47.6314 264.315 47.5383 263.75 47.56C260.94 47.56 259.42 49.34 258.8 51.77H268.09Z" fill="#173CC1"/>
<path d="M305.25 65.18V54.18C305.36 52.5934 305.131 51.0017 304.58 49.51C304.301 49.0012 303.878 48.5863 303.364 48.3176C302.849 48.0489 302.267 47.9384 301.69 48C300.836 48.0444 300.006 48.2917 299.266 48.7212C298.527 49.1507 297.901 49.7502 297.44 50.47C297.573 51.6085 297.644 52.7536 297.65 53.9V65.18H291.78V54.18C291.912 52.5804 291.687 50.9715 291.12 49.47C290.852 48.9835 290.449 48.5854 289.959 48.3244C289.469 48.0633 288.913 47.9506 288.36 48C287.557 48.0586 286.774 48.2783 286.057 48.6459C285.341 49.0136 284.706 49.5217 284.19 50.14V65.14H278.32V43.46H283.4L283.82 46.11C284.561 45.1503 285.511 44.3717 286.597 43.8329C287.683 43.2941 288.878 43.0093 290.09 43C291.345 43.0047 292.576 43.3434 293.657 43.9814C294.738 44.6193 295.629 45.5335 296.24 46.63C297.045 45.4685 298.129 44.5277 299.392 43.8935C300.655 43.2593 302.058 42.9521 303.47 43C304.572 42.9987 305.66 43.2516 306.648 43.739C307.637 44.2263 308.5 44.935 309.17 45.81C310.86 47.99 311.11 50.81 311.11 53.94V65.18H305.25Z" fill="#173CC1"/>
<path d="M320.31 43.46L324.69 56.39H324.77L329.23 43.46H335.59L323.37 75.13L318.12 73.13L321.59 63.92L313.91 43.48L320.31 43.46Z" fill="#173CC1"/>
<path d="M0 10.25L17.62 0L17.69 71.53L0 81.71V10.25Z" fill="#004DFB"/>
<path d="M0 81.71L17.69 71.53L35.37 81.71L53.06 71.53L70.75 81.71L35.37 102.21L0 81.71Z" fill="#85B2F9"/>
<path d="M70.75 41.1899L53.06 51.3699L35.37 41.1899L17.69 51.3699L0 41.1899L35.37 20.6899L70.75 41.1899Z" fill="#85ACF9"/>
</g>
<defs>
<clipPath id="clip0_1181_1643">
<rect width="335.59" height="102.21" fill="white"/>
</clipPath>
</defs>
</svg>
