<svg width="225" height="26" viewBox="0 0 225 26" fill="none" xmlns="http://www.w3.org/2000/svg">
<path d="M1.74225 24.124V1.23241H10.9078C12.5919 1.23241 13.9965 1.48206 15.1218 1.98132C16.247 2.48058 17.0927 3.17358 17.659 4.06036C18.2254 4.93964 18.5085 5.95306 18.5085 7.10062C18.5085 7.99485 18.3297 8.78096 17.972 9.4591C17.6143 10.1298 17.1225 10.6812 16.4966 11.1134C15.8781 11.5381 15.1702 11.8399 14.3728 12.0187V12.2423C15.2447 12.2796 16.0606 12.5254 16.8207 12.98C17.5883 13.4346 18.2105 14.0717 18.6874 14.8914C19.1643 15.7036 19.4027 16.6723 19.4027 17.7975C19.4027 19.0121 19.1009 20.0963 18.4973 21.0501C17.9012 21.9965 17.0182 22.7454 15.8483 23.2969C14.6784 23.8483 13.2365 24.124 11.5226 24.124H1.74225ZM6.58213 20.1671H10.5278C11.8765 20.1671 12.8602 19.91 13.4787 19.3959C14.0972 18.8743 14.4064 18.1813 14.4064 17.3169C14.4064 16.6835 14.2536 16.1246 13.9481 15.6402C13.6426 15.1559 13.2067 14.7759 12.6403 14.5001C12.0814 14.2244 11.4145 14.0866 10.6395 14.0866H6.58213V20.1671ZM6.58213 10.8116H10.1701C10.8333 10.8116 11.422 10.6961 11.9361 10.4651C12.4578 10.2266 12.8676 9.89127 13.1657 9.4591C13.4712 9.02689 13.624 8.509 13.624 7.9054C13.624 7.07827 13.3296 6.41135 12.7409 5.90464C12.1597 5.39793 11.3326 5.14455 10.2595 5.14455H6.58213V10.8116ZM22.552 24.124V1.23241H27.3918V20.1336H37.2057V24.124H22.552ZM60.5557 12.6782C60.5557 15.1745 60.0825 17.2982 59.1361 19.0494C58.1971 20.8005 56.9155 22.1381 55.2908 23.0621C53.674 23.9787 51.8557 24.437 49.8363 24.437C47.802 24.437 45.9764 23.9749 44.3593 23.0509C42.7423 22.1269 41.4643 20.7894 40.5254 19.0382C39.5865 17.2871 39.1171 15.167 39.1171 12.6782C39.1171 10.1819 39.5865 8.05816 40.5254 6.307C41.4643 4.55589 42.7423 3.222 44.3593 2.30547C45.9764 1.38145 47.802 0.919434 49.8363 0.919434C51.8557 0.919434 53.674 1.38145 55.2908 2.30547C56.9155 3.222 58.1971 4.55589 59.1361 6.307C60.0825 8.05816 60.5557 10.1819 60.5557 12.6782ZM55.6486 12.6782C55.6486 11.0612 55.4062 9.69753 54.922 8.58722C54.4452 7.47691 53.771 6.63488 52.8992 6.06112C52.0271 5.48732 51.0062 5.20047 49.8363 5.20047C48.6664 5.20047 47.6455 5.48732 46.7737 6.06112C45.9018 6.63488 45.2237 7.47691 44.7394 8.58722C44.2624 9.69753 44.024 11.0612 44.024 12.6782C44.024 14.2952 44.2624 15.6589 44.7394 16.7692C45.2237 17.8795 45.9018 18.7215 46.7737 19.2953C47.6455 19.8691 48.6664 20.156 49.8363 20.156C51.0062 20.156 52.0271 19.8691 52.8992 19.2953C53.771 18.7215 54.4452 17.8795 54.922 16.7692C55.4062 15.6589 55.6486 14.2952 55.6486 12.6782ZM84.3383 9.24669H79.4428C79.3536 8.61329 79.1705 8.05072 78.8951 7.5589C78.6192 7.05964 78.2656 6.63488 77.8333 6.28466C77.401 5.93443 76.9016 5.66615 76.3356 5.47987C75.7764 5.29358 75.1694 5.20047 74.5137 5.20047C73.3286 5.20047 72.2967 5.49477 71.4175 6.08347C70.5383 6.66467 69.8563 7.51421 69.3721 8.63197C68.8873 9.74223 68.6455 11.091 68.6455 12.6782C68.6455 14.3101 68.8873 15.6812 69.3721 16.7915C69.8636 17.9018 70.5493 18.7401 71.4285 19.3065C72.3077 19.8728 73.3249 20.156 74.4801 20.156C75.1285 20.156 75.7281 20.0703 76.2795 19.8989C76.8382 19.7275 77.3339 19.4779 77.7662 19.15C78.1984 18.8147 78.5562 18.4085 78.839 17.9316C79.1296 17.4547 79.331 16.9108 79.4428 16.2997L84.3383 16.3221C84.2119 17.3728 83.895 18.3862 83.3883 19.3624C82.8894 20.3311 82.2148 21.1992 81.3654 21.9667C80.5235 22.7268 79.5173 23.3304 78.3474 23.7775C77.1849 24.2172 75.8698 24.437 74.4019 24.437C72.3602 24.437 70.5341 23.9749 68.9246 23.0509C67.3225 22.1269 66.0556 20.7894 65.1244 19.0382C64.2006 17.2871 63.7384 15.167 63.7384 12.6782C63.7384 10.1819 64.2079 8.05816 65.147 6.307C66.0855 4.55589 67.3597 3.222 68.9692 2.30547C70.5792 1.38145 72.3896 0.919434 74.4019 0.919434C75.7281 0.919434 76.9578 1.10577 78.0904 1.47834C79.2303 1.85091 80.2402 2.39487 81.1194 3.11026C81.9986 3.81815 82.7142 4.68626 83.2655 5.71463C83.8242 6.74294 84.182 7.9203 84.3383 9.24669ZM87.8091 24.124V1.23241H92.649V11.3257H92.9507L101.188 1.23241H106.99L98.4946 11.4822L107.09 24.124H101.3L95.0296 14.7125L92.649 17.6187V24.124H87.8091ZM113.456 24.124H108.269L116.172 1.23241H122.409L130.3 24.124H125.114L119.38 6.46349H119.201L113.456 24.124ZM113.132 15.1261H125.382V18.9041H113.132V15.1261ZM141.171 24.124H133.056V1.23241H141.238C143.54 1.23241 145.522 1.6907 147.184 2.60728C148.846 3.51635 150.124 4.82412 151.018 6.53059C151.92 8.237 152.37 10.2788 152.37 12.6558C152.37 15.0404 151.92 17.0896 151.018 18.8035C150.124 20.5174 148.838 21.8326 147.162 22.7492C145.492 23.6657 143.496 24.124 141.171 24.124ZM137.896 19.9771H140.969C142.4 19.9771 143.604 19.7238 144.579 19.2171C145.563 18.7029 146.301 17.9093 146.793 16.8363C147.292 15.7558 147.542 14.3623 147.542 12.6558C147.542 10.9643 147.292 9.58202 146.793 8.509C146.301 7.43594 145.567 6.64605 144.591 6.13934C143.615 5.63263 142.411 5.3793 140.981 5.3793H137.896V19.9771ZM155.955 24.124V1.23241H171.381V5.22282H160.795V10.6774H170.587V14.6678H160.795V20.1336H171.425V24.124H155.955ZM175.229 1.23241H181.198L187.502 16.6127H187.77L194.074 1.23241H200.043V24.124H195.348V9.22435H195.158L189.234 24.0122H186.037L180.113 9.16848H179.923V24.124H175.229V1.23241ZM202.689 1.23241H208.11L213.33 11.091H213.553L218.773 1.23241H224.195L215.845 16.0315V24.124H211.038V16.0315L202.689 1.23241Z" fill="#1F37B3"/>
</svg>
