<svg width="187" height="36" viewBox="0 0 187 36" fill="none" xmlns="http://www.w3.org/2000/svg">
<path d="M0.814514 19.8243V0.664782H8.4858C9.8953 0.664782 11.071 0.873736 12.0127 1.2916C12.9545 1.70947 13.6624 2.28948 14.1363 3.03169C14.6104 3.76761 14.8473 4.61581 14.8473 5.57628C14.8473 6.32472 14.6976 6.98267 14.3983 7.55026C14.0989 8.11157 13.6873 8.57308 13.1634 8.93483C12.6457 9.2903 12.0533 9.5429 11.3859 9.69258V9.87971C12.1156 9.91089 12.7985 10.1167 13.4347 10.4971C14.0771 10.8776 14.5979 11.4108 14.9971 12.0969C15.3962 12.7767 15.5958 13.5875 15.5958 14.5292C15.5958 15.5458 15.3432 16.4533 14.838 17.2516C14.3391 18.0437 13.6 18.6705 12.6208 19.132C11.6416 19.5935 10.4348 19.8243 9.00034 19.8243H0.814514ZM4.86534 16.5125H8.16773C9.29659 16.5125 10.1198 16.2974 10.6375 15.867C11.1552 15.4305 11.414 14.8504 11.414 14.1269C11.414 13.5968 11.2861 13.1291 11.0304 12.7237C10.7747 12.3183 10.4099 12.0002 9.93587 11.7694C9.46809 11.5387 8.90989 11.4233 8.26125 11.4233H4.86534V16.5125ZM4.86534 8.68223H7.86837C8.42345 8.68223 8.91613 8.58555 9.34646 8.39222C9.78308 8.19262 10.1261 7.91197 10.3756 7.55026C10.6313 7.18851 10.7591 6.75506 10.7591 6.24986C10.7591 5.55758 10.5128 4.99939 10.02 4.57529C9.5336 4.15119 8.84131 3.93912 7.94319 3.93912H4.86534V8.68223ZM18.2316 19.8243V0.664782H22.2824V16.4845H30.4963V19.8243H18.2316ZM50.0395 10.2445C50.0395 12.3339 49.6434 14.1114 48.8513 15.577C48.0654 17.0427 46.9927 18.1622 45.6329 18.9356C44.2797 19.7027 42.7579 20.0862 41.0677 20.0862C39.3651 20.0862 37.837 19.6996 36.4836 18.9262C35.1302 18.1528 34.0606 17.0333 33.2748 15.5677C32.489 14.102 32.096 12.3276 32.096 10.2445C32.096 8.15521 32.489 6.37772 33.2748 4.91205C34.0606 3.44643 35.1302 2.33001 36.4836 1.5629C37.837 0.789522 39.3651 0.402832 41.0677 0.402832C42.7579 0.402832 44.2797 0.789522 45.6329 1.5629C46.9927 2.33001 48.0654 3.44643 48.8513 4.91205C49.6434 6.37772 50.0395 8.15521 50.0395 10.2445ZM45.9324 10.2445C45.9324 8.89114 45.7295 7.74982 45.3243 6.82052C44.9252 5.89123 44.3609 5.18647 43.6312 4.70626C42.9013 4.226 42.0469 3.98592 41.0677 3.98592C40.0885 3.98592 39.2341 4.226 38.5044 4.70626C37.7746 5.18647 37.2071 5.89123 36.8017 6.82052C36.4025 7.74982 36.203 8.89114 36.203 10.2445C36.203 11.5979 36.4025 12.7393 36.8017 13.6685C37.2071 14.5978 37.7746 15.3026 38.5044 15.7829C39.2341 16.2631 40.0885 16.5032 41.0677 16.5032C42.0469 16.5032 42.9013 16.2631 43.6312 15.7829C44.3609 15.3026 44.9252 14.5978 45.3243 13.6685C45.7295 12.7393 45.9324 11.5979 45.9324 10.2445ZM69.9448 7.37248H65.8474C65.7727 6.84235 65.6195 6.37148 65.389 5.95986C65.158 5.54199 64.8621 5.18647 64.5003 4.89335C64.1385 4.60023 63.7205 4.37568 63.2467 4.21977C62.7787 4.06386 62.2707 3.98592 61.7218 3.98592C60.73 3.98592 59.8663 4.23224 59.1304 4.72497C58.3946 5.21141 57.8238 5.92245 57.4185 6.85798C57.0128 7.78723 56.8104 8.91608 56.8104 10.2445C56.8104 11.6104 57.0128 12.758 57.4185 13.6873C57.8299 14.6165 58.4038 15.3182 59.1397 15.7922C59.8755 16.2662 60.7269 16.5032 61.6937 16.5032C62.2364 16.5032 62.7383 16.4315 63.1998 16.288C63.6674 16.1446 64.0823 15.9357 64.4441 15.6612C64.8059 15.3806 65.1053 15.0406 65.342 14.6415C65.5852 14.2423 65.7538 13.7871 65.8474 13.2756L69.9448 13.2943C69.839 14.1737 69.5738 15.0219 69.1496 15.839C68.7321 16.6498 68.1674 17.3763 67.4566 18.0187C66.7519 18.6549 65.9097 19.1601 64.9306 19.5343C63.9576 19.9023 62.8568 20.0862 61.6283 20.0862C59.9195 20.0862 58.391 19.6996 57.044 18.9262C55.703 18.1528 54.6427 17.0333 53.8633 15.5677C53.0901 14.102 52.7033 12.3276 52.7033 10.2445C52.7033 8.15521 53.0963 6.37772 53.8822 4.91205C54.6677 3.44643 55.7342 2.33001 57.0813 1.5629C58.4288 0.789522 59.944 0.402832 61.6283 0.402832C62.7383 0.402832 63.7675 0.55879 64.7154 0.870619C65.6695 1.18245 66.5147 1.63772 67.2506 2.23648C67.9865 2.82897 68.5854 3.55554 69.0469 4.41625C69.5145 5.27692 69.8139 6.26233 69.9448 7.37248ZM72.8497 19.8243V0.664782H76.9006V9.11257H77.153L84.0478 0.664782H88.9035L81.7931 9.24354L88.9873 19.8243H84.1413L78.8931 11.9472L76.9006 14.3795V19.8243H72.8497ZM94.3155 19.8243H89.9743L96.5885 0.664782H101.809L108.414 19.8243H104.073L99.2735 5.04303H99.1237L94.3155 19.8243ZM94.0441 12.2933H104.297V15.4554H94.0441V12.2933ZM117.512 19.8243H110.72V0.664782H117.568C119.495 0.664782 121.154 1.04836 122.545 1.8155C123.936 2.57637 125.005 3.67093 125.753 5.09919C126.508 6.5274 126.885 8.23631 126.885 10.2258C126.885 12.2216 126.508 13.9367 125.753 15.3712C125.005 16.8057 123.929 17.9065 122.526 18.6736C121.129 19.4407 119.458 19.8243 117.512 19.8243ZM114.77 16.3535H117.343C118.541 16.3535 119.548 16.1414 120.365 15.7173C121.188 15.287 121.806 14.6228 122.217 13.7247C122.635 12.8204 122.844 11.654 122.844 10.2258C122.844 8.81009 122.635 7.65314 122.217 6.75506C121.806 5.85694 121.191 5.19583 120.374 4.77173C119.557 4.34763 118.55 4.1356 117.353 4.1356H114.77V16.3535ZM129.886 19.8243V0.664782H142.796V4.00462H133.937V8.56996H142.132V11.9098H133.937V16.4845H142.834V19.8243H129.886ZM146.017 0.664782H151.013L156.289 13.5376H156.513L161.79 0.664782H166.786V19.8243H162.856V7.35378H162.697L157.739 19.7307H155.063L150.105 7.30702H149.946V19.8243H146.017V0.664782ZM169 0.664782H173.538L177.906 8.91608H178.093L182.463 0.664782H187L180.011 13.0511V19.8243H175.989V13.0511L169 0.664782Z" fill="#1F37B3"/>
<path d="M0 35.6309V28.6057H0.850702V34.8762H4.1163V35.6309H0ZM8.33139 35.6309V28.6057H12.5712V29.3603H9.18209V31.7341H12.3517V32.4887H9.18209V34.8762H12.6261V35.6309H8.33139ZM17.2905 35.6309H16.3986L18.9782 28.6057H19.8563L22.4359 35.6309H21.544L19.4447 29.7171H19.3898L17.2905 35.6309ZM17.6198 32.8867H21.2147V33.6413H17.6198V32.8867ZM26.428 35.6309V28.6057H28.8017C29.3506 28.6057 29.8011 28.6995 30.1533 28.887C30.5054 29.0722 30.7661 29.3272 30.9353 29.6519C31.1046 29.9767 31.1892 30.346 31.1892 30.7599C31.1892 31.1738 31.1046 31.5409 30.9353 31.861C30.7661 32.1812 30.5066 32.4327 30.1567 32.6157C29.8068 32.7963 29.3597 32.8867 28.8154 32.8867H26.8945V32.1183H28.788C29.1631 32.1183 29.4649 32.0634 29.6936 31.9536C29.9246 31.8439 30.0915 31.6883 30.1944 31.4871C30.2996 31.2836 30.3522 31.0412 30.3522 30.7599C30.3522 30.4786 30.2996 30.2328 30.1944 30.0224C30.0892 29.812 29.9212 29.6497 29.6902 29.5353C29.4592 29.4187 29.1539 29.3603 28.7743 29.3603H27.2787V35.6309H26.428ZM29.7348 32.475L31.4636 35.6309H30.4757L28.7743 32.475H29.7348ZM41.0753 28.6057V35.6309H40.2521L36.4239 30.115H36.3553V35.6309H35.5046V28.6057H36.3279L40.1698 34.1353H40.2383V28.6057H41.0753ZM46.1559 35.6857C45.9864 35.6857 45.8411 35.6252 45.7199 35.5039C45.5987 35.3827 45.5381 35.2375 45.5381 35.0683C45.5381 34.8991 45.5987 34.7539 45.7199 34.6327C45.8411 34.5114 45.9864 34.4509 46.1559 34.4509C46.3249 34.4509 46.4703 34.5114 46.5914 34.6327C46.7126 34.7539 46.7732 34.8991 46.7732 35.0683C46.7732 35.1804 46.7447 35.2832 46.6876 35.377C46.6327 35.4708 46.5581 35.5463 46.4646 35.6034C46.3728 35.6583 46.27 35.6857 46.1559 35.6857ZM67.2651 30.8011C67.1896 30.5701 67.0904 30.3631 66.9666 30.1802C66.8454 29.995 66.7001 29.8372 66.531 29.7068C66.3642 29.5765 66.1745 29.477 65.9615 29.4084C65.749 29.3398 65.5159 29.3055 65.2617 29.3055C64.8458 29.3055 64.4674 29.4129 64.1267 29.6279C63.7855 29.8429 63.5146 30.1596 63.3135 30.5781C63.1124 30.9966 63.0114 31.51 63.0114 32.1183C63.0114 32.7266 63.1133 33.24 63.317 33.6585C63.5203 34.0769 63.796 34.3937 64.1438 34.6087C64.4911 34.8236 64.8823 34.9311 65.3165 34.9311C65.7192 34.9311 66.0735 34.8453 66.38 34.6738C66.6886 34.5 66.9288 34.2553 67.1005 33.9397C67.2744 33.6219 67.3613 33.248 67.3613 32.818L67.6217 32.8729H65.5089V32.1183H68.1846V32.8729C68.1846 33.4515 68.0607 33.9546 67.814 34.3822C67.5694 34.8099 67.2309 35.1415 66.7984 35.377C66.3686 35.6103 65.8746 35.7269 65.3165 35.7269C64.6948 35.7269 64.1482 35.5805 63.677 35.2879C63.2081 34.9951 62.8424 34.5789 62.5794 34.0392C62.3186 33.4995 62.1881 32.8592 62.1881 32.1183C62.1881 31.5626 62.2628 31.0629 62.4112 30.6193C62.5622 30.1733 62.7747 29.7937 63.0492 29.4804C63.3236 29.1671 63.6485 28.927 64.0235 28.7601C64.3984 28.5932 64.8112 28.5096 65.2617 28.5096C65.6322 28.5096 65.9778 28.5657 66.2979 28.6778C66.6201 28.7875 66.9073 28.9441 67.1589 29.1477C67.4127 29.3489 67.6243 29.5902 67.7933 29.8715C67.9624 30.1505 68.0792 30.4604 68.1433 30.8011H67.2651ZM72.5393 35.6309V28.6057H74.9129C75.4617 28.6057 75.9122 28.6995 76.2644 28.887C76.6165 29.0722 76.8773 29.3272 77.0468 29.6519C77.2158 29.9767 77.3006 30.346 77.3006 30.7599C77.3006 31.1738 77.2158 31.5409 77.0468 31.861C76.8773 32.1812 76.6178 32.4327 76.2679 32.6157C75.9179 32.7963 75.4709 32.8867 74.9269 32.8867H73.006V32.1183H74.8993C75.2742 32.1183 75.5763 32.0634 75.8051 31.9536C76.036 31.8439 76.2029 31.6883 76.3056 31.4871C76.411 31.2836 76.4637 31.0412 76.4637 30.7599C76.4637 30.4786 76.411 30.2328 76.3056 30.0224C76.2007 29.812 76.0325 29.6497 75.8016 29.5353C75.5706 29.4187 75.265 29.3603 74.8857 29.3603H73.3902V35.6309H72.5393ZM75.8459 32.475L77.575 35.6309H76.5871L74.8857 32.475H75.8459ZM87.5432 32.1183C87.5432 32.8592 87.4098 33.4995 87.1419 34.0392C86.8745 34.5789 86.5075 34.9951 86.0407 35.2879C85.5744 35.5805 85.0414 35.7269 84.4425 35.7269C83.8432 35.7269 83.3106 35.5805 82.8438 35.2879C82.3775 34.9951 82.0105 34.5789 81.7426 34.0392C81.4753 33.4995 81.3413 32.8592 81.3413 32.1183C81.3413 31.3774 81.4753 30.7371 81.7426 30.1973C82.0105 29.6576 82.3775 29.2414 82.8438 28.9487C83.3106 28.656 83.8432 28.5096 84.4425 28.5096C85.0414 28.5096 85.5744 28.656 86.0407 28.9487C86.5075 29.2414 86.8745 29.6576 87.1419 30.1973C87.4098 30.7371 87.5432 31.3774 87.5432 32.1183ZM86.72 32.1183C86.72 31.51 86.6185 30.9966 86.4148 30.5781C86.2137 30.1596 85.9402 29.8429 85.5951 29.6279C85.2522 29.4129 84.868 29.3055 84.4425 29.3055C84.017 29.3055 83.6315 29.4129 83.2864 29.6279C82.9435 29.8429 82.67 30.1596 82.4667 30.5781C82.2651 30.9966 82.1646 31.51 82.1646 32.1183C82.1646 32.7266 82.2651 33.24 82.4667 33.6585C82.67 34.0769 82.9435 34.3937 83.2864 34.6087C83.6315 34.8236 84.017 34.9311 84.4425 34.9311C84.868 34.9311 85.2522 34.8236 85.5951 34.6087C85.9402 34.3937 86.2137 34.0769 86.4148 33.6585C86.6185 33.24 86.72 32.7266 86.72 32.1183ZM93.1475 35.6309L91.2266 28.6057H92.0911L93.5594 34.3273H93.6279L95.1234 28.6057H96.0841L97.5795 34.3273H97.648L99.1163 28.6057H99.9808L98.0599 35.6309H97.1817L95.6314 30.0327H95.5765L94.0257 35.6309H93.1475ZM103.485 35.6857C103.316 35.6857 103.171 35.6252 103.049 35.5039C102.928 35.3827 102.867 35.2375 102.867 35.0683C102.867 34.8991 102.928 34.7539 103.049 34.6327C103.171 34.5114 103.316 34.4509 103.485 34.4509C103.654 34.4509 103.799 34.5114 103.921 34.6327C104.042 34.7539 104.102 34.8991 104.102 35.0683C104.102 35.1804 104.074 35.2832 104.017 35.377C103.962 35.4708 103.887 35.5463 103.794 35.6034C103.702 35.6583 103.599 35.6857 103.485 35.6857ZM123.634 30.362C123.593 30.0144 123.426 29.7446 123.133 29.5524C122.84 29.3603 122.481 29.2643 122.056 29.2643C121.745 29.2643 121.473 29.3146 121.239 29.4152C121.008 29.5159 120.828 29.6542 120.698 29.8303C120.569 30.0064 120.506 30.2065 120.506 30.4306C120.506 30.6181 120.55 30.7793 120.639 30.9143C120.731 31.0469 120.847 31.1578 120.989 31.247C121.131 31.3339 121.28 31.4059 121.435 31.4631C121.591 31.518 121.733 31.5626 121.864 31.5969L122.577 31.789C122.76 31.837 122.964 31.9033 123.188 31.9879C123.415 32.0725 123.631 32.1881 123.836 32.3344C124.044 32.4785 124.216 32.6637 124.351 32.8901C124.486 33.1165 124.553 33.3943 124.553 33.7236C124.553 34.1032 124.454 34.4463 124.255 34.7527C124.058 35.0591 123.77 35.3027 123.39 35.4834C123.013 35.664 122.554 35.7544 122.015 35.7544C121.512 35.7544 121.076 35.6732 120.708 35.5108C120.342 35.3485 120.054 35.122 119.844 34.8316C119.635 34.5412 119.518 34.2039 119.49 33.8197H120.368C120.391 34.085 120.48 34.3045 120.636 34.4783C120.794 34.6498 120.993 34.7779 121.233 34.8625C121.475 34.9448 121.736 34.986 122.015 34.986C122.34 34.986 122.631 34.9334 122.889 34.8282C123.148 34.7207 123.353 34.572 123.504 34.3822C123.654 34.1901 123.73 33.966 123.73 33.7099C123.73 33.4766 123.665 33.2869 123.534 33.1405C123.404 32.9941 123.233 32.8752 123.02 32.7837C122.807 32.6923 122.577 32.6122 122.33 32.5436L121.466 32.2966C120.917 32.1389 120.482 31.9136 120.162 31.6209C119.842 31.3282 119.682 30.9451 119.682 30.4718C119.682 30.0784 119.789 29.7354 120.001 29.4427C120.216 29.1477 120.504 28.919 120.866 28.7566C121.229 28.592 121.635 28.5096 122.083 28.5096C122.536 28.5096 122.939 28.5908 123.291 28.7532C123.643 28.9133 123.922 29.1328 124.128 29.4118C124.336 29.6908 124.446 30.0075 124.457 30.362H123.634ZM133.46 28.6057H134.311V33.2571C134.311 33.7374 134.198 34.1662 133.971 34.5435C133.747 34.9185 133.43 35.2147 133.021 35.4319C132.612 35.6469 132.131 35.7544 131.58 35.7544C131.029 35.7544 130.549 35.6469 130.139 35.4319C129.73 35.2147 129.412 34.9185 129.186 34.5435C128.962 34.1662 128.85 33.7374 128.85 33.2571V28.6057H129.7V33.1885C129.7 33.5315 129.776 33.8369 129.927 34.1044C130.078 34.3697 130.293 34.5789 130.572 34.7321C130.853 34.8831 131.189 34.9585 131.58 34.9585C131.971 34.9585 132.307 34.8831 132.589 34.7321C132.87 34.5789 133.085 34.3697 133.233 34.1044C133.385 33.8369 133.46 33.5315 133.46 33.1885V28.6057ZM144.561 30.8011H143.71C143.659 30.5564 143.571 30.3414 143.445 30.1562C143.322 29.971 143.171 29.8154 142.993 29.6897C142.817 29.5616 142.621 29.4655 142.406 29.4015C142.191 29.3375 141.967 29.3055 141.734 29.3055C141.308 29.3055 140.923 29.4129 140.578 29.6279C140.235 29.8429 139.962 30.1596 139.758 30.5781C139.557 30.9966 139.456 31.51 139.456 32.1183C139.456 32.7266 139.557 33.24 139.758 33.6585C139.962 34.0769 140.235 34.3937 140.578 34.6087C140.923 34.8236 141.308 34.9311 141.734 34.9311C141.967 34.9311 142.191 34.8991 142.406 34.835C142.621 34.771 142.817 34.6761 142.993 34.5504C143.171 34.4223 143.322 34.2656 143.445 34.0804C143.571 33.8929 143.659 33.6779 143.71 33.4355H144.561C144.497 33.7945 144.38 34.1158 144.211 34.3994C144.041 34.6829 143.831 34.9242 143.579 35.1232C143.328 35.3199 143.045 35.4696 142.732 35.5726C142.421 35.6755 142.088 35.7269 141.734 35.7269C141.135 35.7269 140.602 35.5805 140.135 35.2879C139.669 34.9951 139.302 34.5789 139.034 34.0392C138.767 33.4995 138.633 32.8592 138.633 32.1183C138.633 31.3774 138.767 30.7371 139.034 30.1973C139.302 29.6576 139.669 29.2414 140.135 28.9487C140.602 28.656 141.135 28.5096 141.734 28.5096C142.088 28.5096 142.421 28.5611 142.732 28.664C143.045 28.7669 143.328 28.9179 143.579 29.1168C143.831 29.3135 144.041 29.5536 144.211 29.8372C144.38 30.1184 144.497 30.4398 144.561 30.8011ZM154.486 30.8011H153.635C153.585 30.5564 153.497 30.3414 153.371 30.1562C153.248 29.971 153.097 29.8154 152.918 29.6897C152.742 29.5616 152.547 29.4655 152.332 29.4015C152.117 29.3375 151.893 29.3055 151.66 29.3055C151.234 29.3055 150.849 29.4129 150.503 29.6279C150.161 29.8429 149.887 30.1596 149.684 30.5781C149.483 30.9966 149.382 31.51 149.382 32.1183C149.382 32.7266 149.483 33.24 149.684 33.6585C149.887 34.0769 150.161 34.3937 150.503 34.6087C150.849 34.8236 151.234 34.9311 151.66 34.9311C151.893 34.9311 152.117 34.8991 152.332 34.835C152.547 34.771 152.742 34.6761 152.918 34.5504C153.097 34.4223 153.248 34.2656 153.371 34.0804C153.497 33.8929 153.585 33.6779 153.635 33.4355H154.486C154.422 33.7945 154.305 34.1158 154.136 34.3994C153.967 34.6829 153.757 34.9242 153.505 35.1232C153.253 35.3199 152.971 35.4696 152.658 35.5726C152.347 35.6755 152.014 35.7269 151.66 35.7269C151.06 35.7269 150.528 35.5805 150.061 35.2879C149.595 34.9951 149.228 34.5789 148.96 34.0392C148.692 33.4995 148.558 32.8592 148.558 32.1183C148.558 31.3774 148.692 30.7371 148.96 30.1973C149.228 29.6576 149.595 29.2414 150.061 28.9487C150.528 28.656 151.06 28.5096 151.66 28.5096C152.014 28.5096 152.347 28.5611 152.658 28.664C152.971 28.7669 153.253 28.9179 153.505 29.1168C153.757 29.3135 153.967 29.5536 154.136 29.8372C154.305 30.1184 154.422 30.4398 154.486 30.8011ZM158.758 35.6309V28.6057H162.998V29.3603H159.609V31.7341H162.779V32.4887H159.609V34.8762H163.053V35.6309H158.758ZM167.43 35.6309V28.6057H171.669V29.3603H168.28V31.7341H171.45V32.4887H168.28V34.8762H171.724V35.6309H167.43ZM178.269 35.6309H176.1V28.6057H178.364C179.046 28.6057 179.629 28.7463 180.114 29.0276C180.599 29.3066 180.97 29.708 181.229 30.2316C181.487 30.753 181.617 31.3774 181.617 32.1045C181.617 32.8363 181.486 33.4664 181.225 33.9946C180.965 34.5206 180.585 34.9254 180.086 35.209C179.588 35.4902 178.982 35.6309 178.269 35.6309ZM176.951 34.8762H178.214C178.795 34.8762 179.276 34.7641 179.658 34.54C180.039 34.3159 180.324 33.9969 180.512 33.583C180.699 33.1691 180.793 32.6763 180.793 32.1045C180.793 31.5374 180.701 31.0492 180.515 30.6398C180.33 30.2282 180.053 29.9127 179.685 29.6931C179.317 29.4713 178.858 29.3603 178.309 29.3603H176.951V34.8762ZM185.978 35.6857C185.809 35.6857 185.663 35.6252 185.542 35.5039C185.421 35.3827 185.361 35.2375 185.361 35.0683C185.361 34.8991 185.421 34.7539 185.542 34.6327C185.663 34.5114 185.809 34.4509 185.978 34.4509C186.147 34.4509 186.293 34.5114 186.414 34.6327C186.535 34.7539 186.596 34.8991 186.596 35.0683C186.596 35.1804 186.567 35.2832 186.51 35.377C186.455 35.4708 186.38 35.5463 186.287 35.6034C186.195 35.6583 186.092 35.6857 185.978 35.6857Z" fill="#1F37B3"/>
</svg>
