<svg width="336" height="103" viewBox="0 0 336 103" fill="none" xmlns="http://www.w3.org/2000/svg">
<g clip-path="url(#clip0_1452_726)">
<path d="M70.7001 81.6999L53.1001 91.9V51.4L70.7001 41.2V81.6999Z" fill="#317BFF"/>
<path d="M98.2 86V73.8H99.5V84.8H104.9V86H98.2Z" fill="black"/>
<path d="M108.7 82.1C108.8 83.7 109.9 85.2 111.7 85.2C112.8 85.2 113.8 84.9 114.4 83.7L115.2 84.2C114.5 85.5 113 86.1 111.8 86.1C109 86.1 107.5 84.1 107.5 81.6C107.5 79.1 109.3 77.2 111.6 77.2C113.8 77.2 115.4 79.1 115.4 81.2C115.4 81.5 115.4 81.8 115.3 82H108.7V82.1ZM111.6 78.3C110 78.3 108.9 79.4 108.7 81H114.2C114.2 79.6 113.1 78.3 111.6 78.3Z" fill="black"/>
<path d="M124.6 85C123.8 85.9 122.8 86.2 121.8 86.2C120.2 86.2 118.9 85.3 118.9 83.7C118.9 81.6 120.8 80.8 122.6 80.8C123.2 80.8 123.8 80.9 124.5 81.1V80.6C124.5 79.2 123.8 78.4 122.3 78.4C121.3 78.4 120.2 78.8 119.5 79.1L119.1 78C119.9 77.6 121.2 77.3 122.3 77.3C124.8 77.3 125.6 78.6 125.6 80.8V86H124.5L124.6 85ZM122.6 81.8C121.4 81.8 120.1 82.3 120.1 83.6C120.1 84.6 120.9 85.3 121.9 85.3C122.9 85.3 123.8 84.8 124.6 84V82C123.8 81.8 123.2 81.8 122.6 81.8Z" fill="black"/>
<path d="M131.7 79.1C132.2 78.2 133 77.3 134.2 77.3C134.4 77.3 134.7 77.3 134.9 77.4L134.7 78.7C134.4 78.6 134.2 78.5 133.9 78.5C132.9 78.5 132.3 79.2 131.7 80.3V86H130.5V77.5H131.7V79.1Z" fill="black"/>
<path d="M139.5 77.5V79C140.2 77.9 141.2 77.3 142.5 77.3C144.9 77.3 145.7 78.8 145.7 81.4V86H144.5V81.6C144.5 80 144.2 78.4 142.3 78.4C141 78.4 140 79.3 139.5 80.4V86H138.3V77.5H139.5Z" fill="black"/>
<path d="M150.3 86V84.2H151.7V86H150.3Z" fill="black"/>
<path d="M169.1 80.6001V79.4001H173.6V83.9001C172.5 85.3001 170.7 86.2001 168.8 86.2001C165.1 86.2001 162.3 83.7001 162.3 79.9001C162.3 76.3001 165.2 73.6001 168.9 73.6001C170.7 73.6001 172.3 74.4001 173.4 75.6001L172.5 76.3001C171.6 75.4001 170.3 74.7001 168.9 74.7001C165.9 74.7001 163.7 76.8001 163.7 79.8001C163.7 82.9001 165.8 84.9001 168.9 84.9001C170.3 84.9001 171.5 84.4001 172.4 83.6001V80.5001H169.1V80.6001Z" fill="black"/>
<path d="M179.6 79.1C180.1 78.2 180.9 77.3 182.1 77.3C182.3 77.3 182.6 77.3 182.8 77.4L182.6 78.7C182.3 78.6 182.1 78.5 181.8 78.5C180.8 78.5 180.2 79.2 179.6 80.3V86H178.4V77.5H179.6V79.1Z" fill="black"/>
<path d="M193.9 81.7999C193.9 84.2999 192.1 86.1999 189.6 86.1999C187.1 86.1999 185.3 84.1999 185.3 81.7999C185.3 79.2999 187.1 77.3999 189.6 77.3999C192.1 77.3999 193.9 79.2999 193.9 81.7999ZM189.6 78.3999C187.7 78.3999 186.5 79.9999 186.5 81.7999C186.5 83.5999 187.7 85.1999 189.6 85.1999C191.5 85.1999 192.7 83.5999 192.7 81.7999C192.7 79.9999 191.5 78.3999 189.6 78.3999Z" fill="black"/>
<path d="M203.5 77.5L205.4 84.8L207.3 77.5H208.5L206.1 86H204.6L202.6 78.8L200.6 86H199L196.8 77.5H198L199.8 84.8L201.9 77.5H203.5Z" fill="black"/>
<path d="M211.7 86V84.2H213.1V86H211.7Z" fill="black"/>
<path d="M227.7 74.8C226.2 74.8 225.3 75.5 225.3 76.7C225.3 78.1 226.9 78.5 228.5 79.1C230.1 79.7 231.7 80.5 231.7 82.5C231.7 85.2 229.3 86.2 227.6 86.2C225.9 86.2 224.6 85.7 223.3 84.5L224.3 83.6C225.5 84.8 226.4 85 227.6 85C229 85 230.3 84.3 230.3 82.6C230.3 81.1 228.9 80.6 227.4 80.1C225.7 79.5 223.9 78.9 223.9 76.9C223.9 74.7 225.5 73.7 227.5 73.7C228.9 73.7 230.1 74.1 231.1 74.9L230.3 75.8C229.8 75.2 228.7 74.8 227.7 74.8Z" fill="black"/>
<path d="M242.4 86V84.5C241.7 85.6 240.7 86.2 239.4 86.2C237 86.2 236.2 84.7 236.2 82.1V77.5H237.4V81.9C237.4 83.5 237.7 85.1 239.6 85.1C240.9 85.1 241.9 84.2 242.4 83.1V77.5H243.6V86H242.4Z" fill="black"/>
<path d="M254.5 85.4999C253.8 85.9999 253.1 86.1999 252.2 86.1999C249.6 86.1999 247.7 84.2999 247.7 81.7999C247.7 79.2999 249.6 77.3999 252.1 77.3999C252.9 77.3999 253.6 77.5999 254.2 77.9999L253.8 78.9999C253.3 78.6999 252.6 78.4999 252 78.4999C250.1 78.4999 248.9 79.9999 248.9 81.8999C248.9 83.7999 250.1 85.2999 252.1 85.2999C252.6 85.2999 253.5 85.0999 253.9 84.6999L254.5 85.4999Z" fill="black"/>
<path d="M264.3 85.4999C263.6 85.9999 262.9 86.1999 262 86.1999C259.4 86.1999 257.5 84.2999 257.5 81.7999C257.5 79.2999 259.4 77.3999 261.9 77.3999C262.7 77.3999 263.4 77.5999 264 77.9999L263.6 78.9999C263.1 78.6999 262.4 78.4999 261.8 78.4999C259.9 78.4999 258.7 79.9999 258.7 81.8999C258.7 83.7999 259.9 85.2999 261.9 85.2999C262.4 85.2999 263.3 85.0999 263.7 84.6999L264.3 85.4999Z" fill="black"/>
<path d="M268.4 82.1C268.5 83.7 269.6 85.2 271.4 85.2C272.5 85.2 273.5 84.9 274.1 83.7L274.9 84.2C274.2 85.5 272.7 86.1 271.5 86.1C268.7 86.1 267.2 84.1 267.2 81.6C267.2 79.1 269 77.2 271.3 77.2C273.5 77.2 275.1 79.1 275.1 81.2C275.1 81.5 275.1 81.8 275 82H268.4V82.1ZM271.4 78.3C269.8 78.3 268.7 79.4 268.5 81H274C273.9 79.6 272.8 78.3 271.4 78.3Z" fill="black"/>
<path d="M279.7 82.1C279.8 83.7 280.9 85.2 282.7 85.2C283.8 85.2 284.8 84.9 285.4 83.7L286.2 84.2C285.5 85.5 284 86.1 282.8 86.1C280 86.1 278.5 84.1 278.5 81.6C278.5 79.1 280.3 77.2 282.6 77.2C284.8 77.2 286.4 79.1 286.4 81.2C286.4 81.5 286.4 81.8 286.3 82H279.7V82.1ZM282.6 78.3C281 78.3 279.9 79.4 279.7 81H285.2C285.2 79.6 284.1 78.3 282.6 78.3Z" fill="black"/>
<path d="M296.8 84.9C296.2 85.8 295.1 86.2 294.1 86.2C291.6 86.2 289.8 84.2 289.8 81.8C289.8 79.4 291.7 77.3 294.2 77.3C295.2 77.3 296.2 77.7 296.9 78.3V73H298.1V86H296.9V84.9H296.8ZM296.8 79.7C296.2 78.9 295.1 78.4 294.1 78.4C292.3 78.4 290.9 79.9 290.9 81.7C290.9 83.5 292.2 85.1 294.1 85.1C295.1 85.1 296.3 84.5 296.8 83.5V79.7Z" fill="black"/>
<path d="M105.2 36.3C108 36.3 110.9 36.8001 113 38.2001C115.2 39.6001 116.4 41.9 116.4 44.5C116.4 46.9 115.2 49 112.8 50.1C115.7 51.1 117.6 53.6 117.6 56.7001C117.6 60.1 115.6 62.8 112.4 64.1C110.2 65 107.4 65.3001 104.8 65.3001H97.5V36.3H105.2ZM103.5 48H105.2C108.6 48 110.6 46.9 110.6 44.6C110.6 43.3 110.1 42.5001 109.4 41.9001C108.3 41.2001 106.6 41.2001 104.8 41.2001H103.6V48H103.5ZM103.5 60.2001H104.9C106.6 60.2001 108.5 60.2 109.7 59.6C110.7 59.1 111.4 58.2001 111.4 56.7001C111.4 54.3001 109.8 52.8 106.9 52.8H103.6V60.2001H103.5Z" fill="#173CC1"/>
<path d="M128.6 65.2002H122.7V34.2002H128.6V65.2002Z" fill="#173CC1"/>
<path d="M155.5 54.3001C155.5 60.7001 150.8 65.7001 144.1 65.7001C137.5 65.7001 132.7 60.7001 132.7 54.3001C132.7 47.9001 137.4 42.9001 144.1 42.9001C150.8 43.0001 155.5 47.9001 155.5 54.3001ZM144.2 48.0001C141 48.0001 138.8 50.8001 138.8 54.3001C138.8 57.8001 141 60.6001 144.2 60.6001C147.4 60.6001 149.6 57.8001 149.6 54.3001C149.6 50.8001 147.4 48.0001 144.2 48.0001Z" fill="#173CC1"/>
<path d="M177.1 63.0001C175 64.9001 172.4 65.7001 169.3 65.7001C162.9 65.7001 158.3 61.1001 158.3 54.3001C158.3 48.0001 162.9 42.9001 169.5 42.9001C172.5 42.9001 175 43.8001 177.1 45.6001L174.1 49.7001C172.9 48.6001 171.6 48.0001 169.9 48.0001C166.6 48.0001 164.3 50.8001 164.3 54.3001C164.3 57.9001 166.7 60.6001 169.8 60.6001C171.4 60.6001 172.7 60.1001 174 58.9001L177.1 63.0001Z" fill="#173CC1"/>
<path d="M193.8 65.2001L188.8 57.1001L186.7 59.5001V65.1001H180.8V34.1001H186.7V52.2001H186.8L193.8 43.4001H200.5L192.7 52.5001L201 65.1001H193.8V65.2001Z" fill="#173CC1"/>
<path d="M216.9 65.2001L216.4 63.3001C215 65.0001 212.8 65.7001 210.5 65.7001C206.5 65.7001 202.7 63.3001 202.7 58.8001C202.7 53.5001 207.7 51.8001 212.2 51.8001C213.4 51.8001 214.8 52.0001 216.1 52.3001V52.0001C216.1 49.3001 215 47.6001 211.8 47.6001C209.3 47.6001 207.1 48.5001 205.2 49.5001L203.6 45.3001C206.4 43.9001 209.7 43.1001 212.9 43.1001C218.9 43.1001 221.9 46.6001 221.9 52.3001V65.3001H216.9V65.2001ZM216.1 55.7001C215 55.5001 214 55.3001 213.1 55.3001C211 55.3001 208.4 56.1001 208.4 58.6001C208.4 60.5001 210 61.5001 211.7 61.5001C213.4 61.5001 214.8 60.8001 216 59.6001V55.7001H216.1Z" fill="#173CC1"/>
<path d="M243.3 65.2002L242.8 62.5002C241.3 64.9002 238.3 65.7002 236.1 65.7002C230.4 65.7002 226 60.6002 226 54.3002C226 48.2002 230.3 43.0002 236.2 43.0002C238.3 43.0002 240.9 43.7002 242.5 45.6002V34.2002H248.4V65.2002H243.3ZM242.5 50.4002C241 48.7002 239.3 48.0002 237.5 48.0002C233.7 48.0002 232 51.3002 232 54.4002C232 57.6002 234.1 60.6002 237.4 60.6002C239.3 60.6002 241.2 59.9002 242.5 57.8002V50.4002Z" fill="#173CC1"/>
<path d="M258.5 55.8C258.9 58.8 260.9 61 264 61C266.8 61 268.3 59.8 269.7 57.8L273.5 60.4C271 64 268.3 65.7 263.6 65.7C257 65.7 252.6 61.1 252.6 54.6C252.6 48 257.4 43 263.6 43C269.6 43 274.1 47.3 274.1 53C274.1 53.9 274 54.9 273.8 55.8H258.5ZM268.1 51.8C268 49.2 266.2 47.6 263.8 47.6C261 47.6 259.5 49.4 258.8 51.8H268.1Z" fill="#173CC1"/>
<path d="M305.2 65.2V54.2C305.2 52.6 305.2 50.8 304.5 49.5C304 48.4 302.9 48 301.6 48C300.1 48 298.4 48.9 297.3 50.5C297.4 51.6 297.5 52.7 297.5 53.9V65.2H291.6V54.2C291.6 52.6 291.6 50.7 290.9 49.5C290.4 48.5 289.4 48 288.1 48C286.7 48 285 48.9 283.9 50.1V65.1H278V43.5H283.1L283.5 46.1C285.2 43.9 287.6 43 289.8 43C292.3 43 294.8 44.4 296 46.6C298 43.7 300.9 43 303.2 43C305.5 43 307.5 44.1 308.9 45.8C310.6 48 310.8 50.8 310.8 53.9V65.2H305.2Z" fill="#173CC1"/>
<path d="M320.3 43.5L324.7 56.4H324.8L329.3 43.5H335.7L323.5 75.2L318.3 73.2L321.8 64L314.1 43.6H320.3V43.5Z" fill="#173CC1"/>
<path d="M0 10.2L17.6 0L17.7 71.5L0 81.7V10.2Z" fill="#004DFB"/>
<path d="M0 81.7L17.7 71.5L35.4 81.7L53.1 71.5L70.7 81.7L35.4 102.2L0 81.7Z" fill="#85B2F9"/>
<path d="M70.7 41.2L53.1 51.4L35.4 41.2L17.7 51.4L0 41.2L35.4 20.7L70.7 41.2Z" fill="#85ACF9"/>
</g>
<defs>
<clipPath id="clip0_1452_726">
<rect width="335.6" height="102.2" fill="white"/>
</clipPath>
</defs>
</svg>
