<svg width="305" height="326" viewBox="0 0 305 326" fill="none" xmlns="http://www.w3.org/2000/svg">
<g filter="url(#filter0_d_5_2431)">
<path d="M200.065 325.5H224.377V187.496H200.065V325.5Z" fill="url(#paint0_linear_5_2431)"/>
<path d="M304.462 129.315C304.462 96.6821 278.007 70.2275 245.374 70.2275H140.735L140.716 187.497H304.462V129.315Z" fill="url(#paint1_linear_5_2431)"/>
<path d="M141.074 70.2275C108.494 70.2275 82.0825 96.479 82.0825 128.861V187.495H200.065V128.861C200.065 96.479 173.653 70.2275 141.074 70.2275Z" fill="url(#paint2_linear_5_2431)"/>
<path fill-rule="evenodd" clip-rule="evenodd" d="M198.423 115.276H106.376V187.964H200.065V129.123C200.065 124.354 199.497 119.717 198.423 115.276Z" fill="white"/>
<path opacity="0.1" d="M200.065 119.566L131.421 188.21H200.065V119.566Z" fill="url(#paint3_linear_5_2431)"/>
<path d="M141.074 246.13C108.494 246.13 82.0825 219.878 82.0825 187.496H200.065C200.065 219.878 173.653 246.13 141.074 246.13Z" fill="url(#paint4_linear_5_2431)"/>
<path d="M246.543 30.9004H280.15V58.7872H246.543V30.9004Z" fill="url(#paint5_linear_5_2431)"/>
<path d="M116.405 146.737H137.856V125.286H116.405V146.737Z" fill="url(#paint6_linear_5_2431)"/>
<path d="M200.065 146.738H154.302M245.113 136.012V30.9004M200.065 163.899H154.302" stroke="#2B2F36" stroke-width="1.94393"/>
<path opacity="0.3" d="M304.462 124.571L241.538 187.495H304.462V124.571Z" fill="url(#paint7_linear_5_2431)"/>
<path d="M145.722 325.5L158.592 312.629L171.463 325.5L158.592 338.371L145.722 325.5ZM291.591 325.5L298.026 319.064L304.462 325.5L298.026 331.935L291.591 325.5Z" fill="#474D57"/>
<path d="M57.0559 58.0722L70.6418 71.6581L84.2277 58.0722L70.6418 44.4863L57.0559 58.0722Z" fill="url(#paint8_linear_5_2431)"/>
<path d="M49.1904 132.079L55.2683 138.157L61.3462 132.079L55.2683 126.001L49.1904 132.079Z" fill="url(#paint9_linear_5_2431)"/>
<path d="M14.5974 94.7415L20.6752 100.819L26.7531 94.7415L20.6752 88.6636L14.5974 94.7415Z" fill="url(#paint10_linear_5_2431)"/>
<path d="M24.1638 160.324L34.8895 171.049L45.6151 160.324L34.8895 149.598L24.1638 160.324ZM152.872 20.1748L157.877 25.1801L162.883 20.1748L157.877 15.1694L152.872 20.1748ZM72.0719 261.86L77.0772 266.866L82.0825 261.86L77.0772 256.855L72.0719 261.86Z" fill="white"/>
</g>
<defs>
<filter id="filter0_d_5_2431" x="0.0179119" y="0.589994" width="319.023" height="352.36" filterUnits="userSpaceOnUse" color-interpolation-filters="sRGB">
<feFlood flood-opacity="0" result="BackgroundImageFix"/>
<feColorMatrix in="SourceAlpha" type="matrix" values="0 0 0 0 0 0 0 0 0 0 0 0 0 0 0 0 0 0 127 0" result="hardAlpha"/>
<feOffset/>
<feGaussianBlur stdDeviation="7.28972"/>
<feColorMatrix type="matrix" values="0 0 0 0 0 0 0 0 0 0 0 0 0 0 0 0 0 0 0.03 0"/>
<feBlend mode="normal" in2="BackgroundImageFix" result="effect1_dropShadow_5_2431"/>
<feBlend mode="normal" in="SourceGraphic" in2="effect1_dropShadow_5_2431" result="shape"/>
</filter>
<linearGradient id="paint0_linear_5_2431" x1="210.799" y1="318.236" x2="210.799" y2="187.496" gradientUnits="userSpaceOnUse">
<stop stop-color="#474D57"/>
<stop offset="1" stop-color="#2B2F36"/>
</linearGradient>
<linearGradient id="paint1_linear_5_2431" x1="190.532" y1="187.497" x2="225.621" y2="62.1046" gradientUnits="userSpaceOnUse">
<stop stop-color="#0B74F0"/>
<stop offset="1" stop-color="#120EE3"/>
</linearGradient>
<linearGradient id="paint2_linear_5_2431" x1="82.3707" y1="107.356" x2="199.986" y2="107.356" gradientUnits="userSpaceOnUse">
<stop stop-color="#474D57"/>
<stop offset="1" stop-color="#14151A"/>
</linearGradient>
<linearGradient id="paint3_linear_5_2431" x1="200.065" y1="153.888" x2="131.421" y2="153.888" gradientUnits="userSpaceOnUse">
<stop/>
<stop offset="1" stop-opacity="0"/>
</linearGradient>
<linearGradient id="paint4_linear_5_2431" x1="117.976" y1="246.13" x2="130.627" y2="180.982" gradientUnits="userSpaceOnUse">
<stop stop-color="#0B74F0"/>
<stop offset="1" stop-color="#120EE3"/>
</linearGradient>
<linearGradient id="paint5_linear_5_2431" x1="256.767" y1="58.7872" x2="266.201" y2="29.6924" gradientUnits="userSpaceOnUse">
<stop stop-color="#0B74F0"/>
<stop offset="1" stop-color="#120EE3"/>
</linearGradient>
<linearGradient id="paint6_linear_5_2431" x1="122.931" y1="125.286" x2="131.315" y2="146.743" gradientUnits="userSpaceOnUse">
<stop stop-color="#0B74F0"/>
<stop offset="1" stop-color="#120EE3"/>
</linearGradient>
<linearGradient id="paint7_linear_5_2431" x1="304.462" y1="156.033" x2="241.538" y2="156.033" gradientUnits="userSpaceOnUse">
<stop/>
<stop offset="1" stop-opacity="0"/>
</linearGradient>
<linearGradient id="paint8_linear_5_2431" x1="65.3222" y1="71.6581" x2="75.9424" y2="44.4788" gradientUnits="userSpaceOnUse">
<stop stop-color="#0B74F0"/>
<stop offset="1" stop-color="#120EE3"/>
</linearGradient>
<linearGradient id="paint9_linear_5_2431" x1="52.8885" y1="138.157" x2="57.6397" y2="125.998" gradientUnits="userSpaceOnUse">
<stop stop-color="#0B74F0"/>
<stop offset="1" stop-color="#120EE3"/>
</linearGradient>
<linearGradient id="paint10_linear_5_2431" x1="18.2954" y1="100.819" x2="23.0466" y2="88.6602" gradientUnits="userSpaceOnUse">
<stop stop-color="#0B74F0"/>
<stop offset="1" stop-color="#120EE3"/>
</linearGradient>
</defs>
</svg>
