<svg width="30" height="30" viewBox="0 0 30 30" fill="none" xmlns="http://www.w3.org/2000/svg">
<path d="M4.62488 13.75C4.14572 13.75 3.78613 13.5467 3.54613 13.14C3.30613 12.7333 3.30113 12.3221 3.53113 11.9062L7.65613 4.46875C7.8853 4.05208 8.24988 3.84375 8.74988 3.84375C9.24988 3.84375 9.61447 4.05208 9.84363 4.46875L13.9686 11.9062C14.1978 12.3229 14.1924 12.7346 13.9524 13.1412C13.7124 13.5479 13.3532 13.7508 12.8749 13.75H4.62488ZM8.74988 26.25C7.37488 26.25 6.1978 25.7604 5.21863 24.7812C4.23947 23.8021 3.74988 22.625 3.74988 21.25C3.74988 19.875 4.23947 18.6979 5.21863 17.7187C6.1978 16.7396 7.37488 16.25 8.74988 16.25C10.1249 16.25 11.302 16.7396 12.2811 17.7187C13.2603 18.6979 13.7499 19.875 13.7499 21.25C13.7499 22.625 13.2603 23.8021 12.2811 24.7812C11.302 25.7604 10.1249 26.25 8.74988 26.25ZM17.4999 26.25C17.1457 26.25 16.8486 26.13 16.6086 25.89C16.3686 25.65 16.2491 25.3533 16.2499 25V17.5C16.2499 17.1458 16.3699 16.8487 16.6099 16.6087C16.8499 16.3687 17.1466 16.2492 17.4999 16.25H24.9999C25.3541 16.25 25.6511 16.37 25.8911 16.61C26.1311 16.85 26.2507 17.1467 26.2499 17.5V25C26.2499 25.3542 26.1299 25.6512 25.8899 25.8912C25.6499 26.1312 25.3532 26.2508 24.9999 26.25H17.4999ZM19.4999 8.125L17.1249 5.75C16.8957 5.52083 16.7811 5.22917 16.7811 4.875C16.7811 4.52083 16.8957 4.22917 17.1249 4C17.3541 3.77083 17.6457 3.65625 17.9999 3.65625C18.3541 3.65625 18.6457 3.77083 18.8749 4L21.2499 6.375L23.6249 4C23.8541 3.77083 24.1457 3.65625 24.4999 3.65625C24.8541 3.65625 25.1457 3.77083 25.3749 4C25.604 4.22917 25.7186 4.52083 25.7186 4.875C25.7186 5.22917 25.604 5.52083 25.3749 5.75L22.9999 8.125L25.3749 10.5C25.604 10.7292 25.7186 11.0208 25.7186 11.375C25.7186 11.7292 25.604 12.0208 25.3749 12.25C25.1457 12.4792 24.8541 12.5938 24.4999 12.5938C24.1457 12.5938 23.8541 12.4792 23.6249 12.25L21.2499 9.875L18.8749 12.25C18.6457 12.4792 18.3541 12.5938 17.9999 12.5938C17.6457 12.5938 17.3541 12.4792 17.1249 12.25C16.8957 12.0208 16.7811 11.7292 16.7811 11.375C16.7811 11.0208 16.8957 10.7292 17.1249 10.5L19.4999 8.125Z" fill="#1F2328"/>
</svg>
