<svg width="66" height="66" viewBox="0 0 66 66" fill="none" xmlns="http://www.w3.org/2000/svg">
<g id="mobile">
<g id="g7608">
<g id="g7610">
<g id="Clip path group">
<mask id="mask0_993_94" style="mask-type:luminance" maskUnits="userSpaceOnUse" x="0" y="0" width="66" height="66">
<g id="clipPath7616">
<path id="path7614" d="M0 7.62939e-06H66V66H0V7.62939e-06Z" fill="white"/>
</g>
</mask>
<g mask="url(#mask0_993_94)">
<g id="g7612">
<g id="g7618">
<path id="path7620" d="M38.4687 42.9921C38.4687 49.693 33.0615 55.1251 26.3911 55.1251C19.7208 55.1251 14.3135 49.693 14.3135 42.9921C14.3135 36.2913 19.7208 30.859 26.3911 30.859C33.0615 30.859 38.4687 36.2913 38.4687 42.9921Z" fill="#FFDBD3"/>
</g>
<g id="g7622">
<path id="path7624" d="M43.3981 47.8938H23.4112C21.8048 47.8938 20.5024 46.5913 20.5024 44.985V3.87554C20.5024 2.26911 21.8048 0.96677 23.4112 0.96677H43.3981C45.0045 0.96677 46.3068 2.26911 46.3068 3.87554V44.985C46.3068 46.5913 45.0045 47.8938 43.3981 47.8938Z" fill="#7776D0"/>
</g>
<g id="g7626">
<path id="path7628" d="M43.3981 0.966778H38.2419C39.8483 0.966778 41.1505 2.26912 41.1505 3.87555V44.985C41.1505 46.5915 39.8483 47.8937 38.2419 47.8937H43.3981C45.0045 47.8937 46.3068 46.5915 46.3068 44.985V3.87555C46.3068 2.26912 45.0045 0.966778 43.3981 0.966778Z" fill="#6967BF"/>
</g>
<path id="path7630" d="M46.3069 41.5037H20.5024V5.35397H46.3069V41.5037Z" fill="#D4D9FF"/>
<path id="path7632" d="M41.1506 41.5037H46.3069V5.35384H41.1506V41.5037Z" fill="#C7CDFF"/>
<g id="g7634">
<path id="path7636" d="M24.415 49.3326C27.9257 44.2275 26.3757 35.7109 20.4456 33.1449V21.4474C20.4456 19.7463 19.0729 18.3672 17.3796 18.3672C15.6861 18.3672 14.3135 19.7463 14.3135 21.4474V44.5173L9.76238 49.0892L20.3605 59.7361L25.0141 55.061" fill="#FFDBD3"/>
</g>
<g id="g7638">
<path id="path7640" d="M20.4456 33.1449V21.4474C20.4456 19.7463 19.0729 18.3672 17.3796 18.3672C15.6861 18.3672 14.3135 19.7463 14.3135 21.4474V33.1637C18.5289 35.015 20.5142 39.8833 20.0223 44.3692C19.7325 47.0109 21.7576 49.3325 24.415 49.3325C27.9258 44.2276 26.3757 35.7109 20.4456 33.1449Z" fill="#FFD1C7"/>
</g>
<g id="g7642">
<path id="path7644" d="M42.289 14.9618V14.9487C42.289 13.3925 43.5507 12.1309 45.1069 12.1309H46.795C48.3513 12.1309 49.613 13.3925 49.613 14.9487V14.9618C49.613 16.5181 48.3513 17.7798 46.795 17.7798H45.1069C43.5507 17.7798 42.289 16.5181 42.289 14.9618Z" fill="#FFDBD3"/>
</g>
<g id="g7646">
<path id="path7648" d="M46.795 12.1309H45.1071C44.7207 12.1309 44.3526 12.2086 44.0174 12.3492C45.0327 12.7753 45.7458 13.7788 45.7458 14.9487V14.9618C45.7458 16.1318 45.0327 17.1353 44.0174 17.5614C44.3526 17.7021 44.7207 17.7798 45.1071 17.7798H46.795C48.3514 17.7798 49.613 16.5181 49.613 14.9618V14.9487C49.613 13.3925 48.3514 12.1309 46.795 12.1309Z" fill="#FFD1C7"/>
</g>
<g id="g7650">
<path id="path7652" d="M42.289 20.6107V20.5978C42.289 19.0414 43.5507 17.7798 45.1069 17.7798H46.795C48.3513 17.7798 49.613 19.0414 49.613 20.5978V20.6107C49.613 22.167 48.3513 23.4287 46.795 23.4287H45.1069C43.5507 23.4287 42.289 22.167 42.289 20.6107Z" fill="#FFDBD3"/>
</g>
<g id="g7654">
<path id="path7656" d="M46.795 17.7798H45.1071C44.7207 17.7798 44.3526 17.8575 44.0174 17.9981C45.0327 18.4242 45.7458 19.4277 45.7458 20.5977V20.6107C45.7458 21.7808 45.0327 22.7842 44.0174 23.2103C44.3526 23.351 44.7207 23.4287 45.1071 23.4287H46.795C48.3514 23.4287 49.613 22.167 49.613 20.6107V20.5977C49.613 19.0414 48.3514 17.7798 46.795 17.7798Z" fill="#FFD1C7"/>
</g>
<g id="g7658">
<path id="path7660" d="M42.289 26.2597V26.2468C42.289 24.6904 43.5507 23.4288 45.1069 23.4288H46.795C48.3513 23.4288 49.613 24.6904 49.613 26.2468V26.2597C49.613 27.8162 48.3513 29.0778 46.795 29.0778H45.1069C43.5507 29.0778 42.289 27.8162 42.289 26.2597Z" fill="#FFDBD3"/>
</g>
<g id="g7662">
<path id="path7664" d="M46.795 23.4288H45.1071C44.7207 23.4288 44.3526 23.5067 44.0174 23.6472C45.0327 24.0734 45.7458 25.0768 45.7458 26.2468V26.2597C45.7458 27.4298 45.0327 28.4332 44.0174 28.8594C44.3526 29 44.7207 29.0778 45.1071 29.0778H46.795C48.3514 29.0778 49.613 27.8162 49.613 26.2597V26.2468C49.613 24.6904 48.3514 23.4288 46.795 23.4288Z" fill="#FFD1C7"/>
</g>
<g id="g7666">
<path id="path7668" d="M42.289 31.9087V31.8958C42.289 30.3394 43.5507 29.0778 45.1069 29.0778H46.795C48.3513 29.0778 49.613 30.3394 49.613 31.8958V31.9087C49.613 33.4651 48.3513 34.7267 46.795 34.7267H45.1069C43.5507 34.7267 42.289 33.4651 42.289 31.9087Z" fill="#FFDBD3"/>
</g>
<g id="g7670">
<path id="path7672" d="M46.795 29.0778H45.1071C44.7207 29.0778 44.3526 29.1556 44.0174 29.2961C45.0327 29.7223 45.7458 30.7257 45.7458 31.8958V31.9088C45.7458 33.0787 45.0327 34.0823 44.0174 34.5083C44.3526 34.6491 44.7207 34.7267 45.1071 34.7267H46.795C48.3514 34.7267 49.613 33.4651 49.613 31.9088V31.8958C49.613 30.3395 48.3514 29.0778 46.795 29.0778Z" fill="#FFD1C7"/>
</g>
<g id="g7674">
<path id="path7676" d="M22.3315 63.7735C20.6597 65.4529 17.9477 65.4529 16.276 63.7735L6.29556 53.7473C4.62571 52.0699 4.62571 49.352 6.29556 47.6747C7.96722 45.9953 10.6791 45.9953 12.3509 47.6747L22.3315 57.701C24.0011 59.3784 24.0011 62.0962 22.3315 63.7735Z" fill="#7776D0"/>
</g>
<g id="g7678">
<path id="path7680" d="M5.69013 42.2742C4.42182 38.9974 3.72637 35.4353 3.72637 31.7109C3.72637 22.1435 8.31595 13.6481 15.4139 8.30634" stroke="black" stroke-width="2" stroke-miterlimit="10" stroke-linecap="round" stroke-linejoin="round"/>
</g>
<g id="g7682">
<path id="path7684" d="M50.8719 8.52403C57.8069 13.8772 62.2737 22.2724 62.2737 31.7109C62.2737 47.8783 49.1674 60.9846 33 60.9846C32.1346 60.9846 31.2779 60.9471 30.4316 60.8735C29.5958 60.8008 28.7702 60.693 27.9561 60.5516" stroke="black" stroke-width="2" stroke-miterlimit="10" stroke-linecap="round" stroke-linejoin="round"/>
</g>
<g id="g7686">
<path id="path7688" d="M11.7027 47.14L14.3135 44.5171V21.4474C14.3135 19.7462 15.6861 18.3672 17.3796 18.3672C19.0729 18.3672 20.4456 19.7462 20.4456 21.4474V33.1449C26.3757 35.7109 27.9258 44.2274 24.415 49.3325" stroke="black" stroke-width="2" stroke-miterlimit="10" stroke-linecap="round" stroke-linejoin="round"/>
</g>
<g id="g7690">
<path id="path7692" d="M37.2567 48.2961C35.2974 52.339 31.1682 55.1251 26.391 55.1251L25.0141 55.0609L22.359 57.7284" stroke="black" stroke-width="2" stroke-miterlimit="10" stroke-linecap="round" stroke-linejoin="round"/>
</g>
<g id="g7694">
<path id="path7696" d="M46.3068 34.7543V44.9849C46.3068 46.5913 45.0045 47.8938 43.3982 47.8938H25.2323" stroke="black" stroke-width="2" stroke-miterlimit="10" stroke-linecap="round" stroke-linejoin="round"/>
</g>
<g id="g7698">
<path id="path7700" d="M31.1481 0.966806H43.3981C45.0045 0.966806 46.3068 2.26915 46.3068 3.87558V12.1309" stroke="black" stroke-width="2" stroke-miterlimit="10" stroke-linecap="round" stroke-linejoin="round"/>
</g>
<g id="g7702">
<path id="path7704" d="M20.5024 33.1448V3.87545C20.5024 2.26902 21.8049 0.966683 23.4112 0.966683H25.8651" stroke="black" stroke-width="2" stroke-miterlimit="10" stroke-linecap="round" stroke-linejoin="round"/>
</g>
<g id="g7706">
<path id="path7708" d="M46.3068 41.5037H26.321" stroke="black" stroke-width="2" stroke-miterlimit="10" stroke-linecap="round" stroke-linejoin="round"/>
</g>
<g id="g7710">
<path id="path7712" d="M20.5024 5.354H46.3068" stroke="black" stroke-width="2" stroke-miterlimit="10" stroke-linecap="round" stroke-linejoin="round"/>
</g>
<g id="g7714">
<path id="path7716" d="M42.289 14.9618V14.9487C42.289 13.3925 43.5507 12.1309 45.1069 12.1309H46.795C48.3513 12.1309 49.613 13.3925 49.613 14.9487V14.9618C49.613 16.5181 48.3513 17.7798 46.795 17.7798H45.1069C43.5507 17.7798 42.289 16.5181 42.289 14.9618Z" stroke="black" stroke-width="2" stroke-miterlimit="10" stroke-linecap="round" stroke-linejoin="round"/>
</g>
<g id="g7718">
<path id="path7720" d="M42.289 20.6107V20.5978C42.289 19.0414 43.5507 17.7798 45.1069 17.7798H46.795C48.3513 17.7798 49.613 19.0414 49.613 20.5978V20.6107C49.613 22.167 48.3513 23.4287 46.795 23.4287H45.1069C43.5507 23.4287 42.289 22.167 42.289 20.6107Z" stroke="black" stroke-width="2" stroke-miterlimit="10" stroke-linecap="round" stroke-linejoin="round"/>
</g>
<g id="g7722">
<path id="path7724" d="M42.289 26.2597V26.2468C42.289 24.6904 43.5507 23.4288 45.1069 23.4288H46.795C48.3513 23.4288 49.613 24.6904 49.613 26.2468V26.2597C49.613 27.8162 48.3513 29.0778 46.795 29.0778H45.1069C43.5507 29.0778 42.289 27.8162 42.289 26.2597Z" stroke="black" stroke-width="2" stroke-miterlimit="10" stroke-linecap="round" stroke-linejoin="round"/>
</g>
<g id="g7726">
<path id="path7728" d="M42.289 31.9087V31.8958C42.289 30.3394 43.5507 29.0778 45.1069 29.0778H46.795C48.3513 29.0778 49.613 30.3394 49.613 31.8958V31.9087C49.613 33.4651 48.3513 34.7267 46.795 34.7267H45.1069C43.5507 34.7267 42.289 33.4651 42.289 31.9087Z" stroke="black" stroke-width="2" stroke-miterlimit="10" stroke-linecap="round" stroke-linejoin="round"/>
</g>
<g id="g7730">
<path id="path7732" d="M15.8973 63.3931L16.276 63.7735C17.9476 65.4529 20.6597 65.4529 22.3315 63.7735C24.0011 62.0962 24.0011 59.3784 22.3315 57.701L12.3509 47.6747C10.6793 45.9953 7.96721 45.9953 6.29555 47.6747C4.62583 49.352 4.62583 52.07 6.29555 53.7473L12.2795 59.7588" stroke="black" stroke-width="2" stroke-miterlimit="10" stroke-linecap="round" stroke-linejoin="round"/>
</g>
<g id="g7734">
<path id="path7736" d="M24.9061 12.9543L27.736 10.0496" stroke="black" stroke-width="2" stroke-miterlimit="10" stroke-linecap="round" stroke-linejoin="round"/>
</g>
<g id="g7738">
<path id="path7740" d="M24.9061 19.1703L33.7915 10.0495" stroke="black" stroke-width="2" stroke-miterlimit="10" stroke-linecap="round" stroke-linejoin="round"/>
</g>
</g>
</g>
</g>
</g>
</g>
</g>
</svg>
