<svg width="101" height="120" viewBox="0 0 101 120" fill="none" xmlns="http://www.w3.org/2000/svg">
<path d="M100 37.2244V93.7758H23.9578C22.6841 93.7758 21.6539 92.7436 21.6539 91.4719V29.4338C21.6539 28.1602 22.6841 27.1299 23.9578 27.1299H51.8974C52.507 27.1299 53.0925 27.3713 53.5252 27.8039L59.9677 34.2465C60.4004 34.6791 60.9859 34.9205 61.5974 34.9205H97.6961C98.9677 34.9207 100 35.9529 100 37.2244Z" fill="#756F6F"/>
<path d="M63.2939 46.1533C66.3956 46.1533 68.9101 43.6389 68.9101 40.5371C68.9101 37.4354 66.3956 34.9209 63.2939 34.9209C60.1921 34.9209 57.6777 37.4354 57.6777 40.5371C57.6777 43.6389 60.1921 46.1533 63.2939 46.1533Z" fill="#5B5555"/>
<path d="M42.6781 53.7939C43.6921 54.8061 42.9759 56.5404 41.5414 56.5404H23.807C23.0806 56.5404 22.3623 56.5041 21.6541 56.4357V29.4338C21.6541 28.1602 22.6843 27.1299 23.958 27.1299H43.98C44.9136 29.5463 45.4267 32.1742 45.4267 34.9207C45.4267 40.8906 43.0062 46.2949 39.0947 50.2084L42.6781 53.7939Z" fill="#5B5555"/>
<path d="M100 37.2248V93.7762H92.35V37.2248C92.35 35.9531 91.3197 34.9209 90.0461 34.9209H97.6959C98.9677 34.9211 100 35.9533 100 37.2248Z" fill="#5B5555"/>
<path d="M101 44.8087V93.3431C101 94.2542 100.261 94.9946 99.3485 94.9946H22.6515C21.7388 94.9946 21 94.2542 21 93.3431V44.8087C21 43.8977 21.7388 43.1572 22.6515 43.1572H99.3485C100.261 43.1572 101 43.8977 101 44.8087Z" fill="#B7CFFC"/>
<path d="M92.7296 89.7853C92.7296 91.6203 92.3899 93.3765 91.7686 94.9942H64.5847C63.9634 93.3765 63.6237 91.6203 63.6237 89.7853C63.6237 81.7467 70.1396 75.2324 78.1767 75.2324C86.2137 75.2326 92.7296 81.7469 92.7296 89.7853Z" fill="#9DBFFF"/>
<path d="M99.3483 43.1572H96.6895C97.6017 43.1572 98.3412 43.8967 98.3412 44.8089V93.3425C98.3412 94.2547 97.6017 94.9942 96.6895 94.9942H99.3483C100.261 94.9942 101 94.2547 101 93.3425V44.8089C101 43.8967 100.261 43.1572 99.3483 43.1572Z" fill="#8FB5FF"/>
<path d="M72.1677 116.426L69.8715 113.451C69.6745 113.196 69.373 113.043 69.0507 113.035L65.2938 112.943C64.5076 112.924 64.0102 112.091 64.3657 111.39L71.9043 96.5117L81.5075 101.378L73.9689 116.256C73.6136 116.957 72.6481 117.049 72.1677 116.426Z" fill="#E5646E"/>
<path d="M71.9038 96.5127L71.2229 97.8551L78.1766 101.379L71.9141 113.738C71.5791 114.399 70.6694 114.485 70.2162 113.898L71.1923 115.162L72.1678 116.426C72.6475 117.049 73.6133 116.959 73.969 116.257L81.507 101.379L71.9038 96.5127Z" fill="#DB4655"/>
<path d="M90.8477 116.426L93.1439 113.451C93.3409 113.196 93.6424 113.043 93.9647 113.035L97.7216 112.943C98.5078 112.924 99.0051 112.091 98.6497 111.39L91.1111 96.5117L81.5078 101.378L89.0465 116.256C89.4018 116.957 90.3672 117.049 90.8477 116.426Z" fill="#E5646E"/>
<path d="M98.6496 111.39L91.1109 96.5117L88.4603 97.8548L95.3184 111.39C95.6738 112.091 95.1764 112.924 94.3903 112.943L90.6333 113.035C90.3111 113.043 90.0096 113.196 89.8125 113.451L88.492 115.162L89.0463 116.256C89.4018 116.957 90.3672 117.049 90.8477 116.426L93.1439 113.451C93.3409 113.196 93.6424 113.043 93.9647 113.035L97.7216 112.943C98.5076 112.924 99.005 112.091 98.6496 111.39Z" fill="#DB4655"/>
<path d="M95.7912 53.9324V89.7859H32.2467C31.7912 89.7859 31.3549 89.596 31.0427 89.2628L26.6547 84.5819C26.3682 84.2761 26.2089 83.872 26.2089 83.4519V50.0177C26.2089 49.1067 26.9493 48.3662 27.8604 48.3662H90.1219C90.5517 48.3662 90.9654 48.5352 91.2744 48.8346L95.2922 52.7493C95.6109 53.06 95.7912 53.4864 95.7912 53.9324Z" fill="#F4F8FF"/>
<path d="M92.7296 89.7853H63.6237C63.6237 81.7467 70.1396 75.2324 78.1767 75.2324C86.2137 75.2326 92.7296 81.7469 92.7296 89.7853Z" fill="#E1ECFF"/>
<path d="M95.2918 52.7487L91.274 48.8348C90.9656 48.5344 90.552 48.3662 90.1215 48.3662H86.8989C87.3295 48.3662 87.743 48.5343 88.0514 48.8348L92.0693 52.7487C92.3885 53.0595 92.5685 53.4862 92.5685 53.9318V89.785H95.791V53.9318C95.791 53.4862 95.611 53.0597 95.2918 52.7487Z" fill="#A3C3FF"/>
<path d="M81.2381 104.338C89.2754 104.338 95.791 97.8227 95.791 89.7853C95.791 81.748 89.2754 75.2324 81.2381 75.2324C73.2007 75.2324 66.6852 81.748 66.6852 89.7853C66.6852 97.8227 73.2007 104.338 81.2381 104.338Z" fill="#F4DBB3"/>
<path d="M81.2381 75.2324C80.721 75.2324 80.2105 75.2599 79.7073 75.3124C87.0249 76.0775 92.7292 82.265 92.7292 89.7852C92.7292 97.3055 87.0249 103.493 79.7073 104.258C80.2105 104.311 80.721 104.338 81.2381 104.338C89.2754 104.338 95.791 97.8224 95.791 89.785C95.791 81.7477 89.2754 75.2324 81.2381 75.2324Z" fill="#EAC89F"/>
<path d="M90.2941 89.7858C90.2941 94.1254 87.2422 97.752 83.1666 98.6357C82.1499 98.8576 81.0679 98.9 80.0358 98.7628C79.907 98.7451 79.7799 98.7258 79.6543 98.7033C79.5352 98.6823 79.4161 98.6582 79.2986 98.6324C75.2294 97.7455 72.1823 94.1206 72.1823 89.7858C72.1823 85.4059 75.2905 81.752 79.4209 80.9101C79.4805 80.8988 79.54 80.8876 79.5996 80.8779C79.5996 80.8763 79.5996 80.8763 79.5996 80.8763C79.7428 80.8506 79.8893 80.8264 80.0358 80.8071C81.0364 80.6732 82.0851 80.7116 83.0732 80.9133C87.194 81.7634 90.2941 85.4125 90.2941 89.7858Z" fill="#C3AFF0"/>
<path d="M77.8467 72.0192H44.3738C43.7141 72.0192 43.1793 71.4843 43.1793 70.8247V67.0519C43.1793 66.3922 43.7142 65.8574 44.3738 65.8574H77.8467C78.5065 65.8574 79.0412 66.3923 79.0412 67.0519V70.8247C79.0414 71.4843 78.5065 72.0192 77.8467 72.0192Z" fill="#8FB5FF"/>
<path d="M77.8467 65.8564H74.6241C75.2839 65.8564 75.8187 66.3913 75.8187 67.0511V70.8239C75.8187 71.4836 75.2838 72.0185 74.6241 72.0185H77.8467C78.5065 72.0185 79.0414 71.4836 79.0414 70.8239V67.0511C79.0414 66.3912 78.5065 65.8564 77.8467 65.8564Z" fill="#004DFB"/>
<path d="M66.5746 55.4272H55.4254C54.7586 55.4272 54.2182 54.8867 54.2182 54.2199C54.2182 53.5532 54.7586 53.0127 55.4254 53.0127H66.5746C67.2415 53.0127 67.7818 53.5532 67.7818 54.2199C67.7818 54.8867 67.2413 55.4272 66.5746 55.4272Z" fill="#4786FF"/>
<path d="M71.9067 61.4448H50.0933C49.4264 61.4448 48.886 60.9042 48.886 60.2375C48.886 59.5708 49.4264 59.0303 50.0933 59.0303H71.9067C72.5736 59.0303 73.114 59.5708 73.114 60.2375C73.114 60.9042 72.5734 61.4448 71.9067 61.4448Z" fill="#4786FF"/>
<path d="M50.9921 86.2861C50.7666 86.2861 50.5401 86.2232 50.3409 86.095C49.8847 85.8016 49.6777 85.2421 49.8385 84.7239C50.2002 83.5465 50.2531 82.2301 50.0482 81.9326C50.0309 81.9294 50.0011 81.926 49.9515 81.927C48.637 81.9545 46.2873 83.9062 45.0388 85.2833C44.6573 85.7041 44.0336 85.8022 43.5415 85.5186C43.0491 85.235 42.821 84.647 42.9939 84.1058C43.531 82.4133 43.9797 79.5626 43.2938 78.5267C43.1884 78.3676 43.0388 78.2153 42.6614 78.1799C41.6941 78.0891 40.4218 79.1898 39.1785 81.2014C38.0708 82.9942 37.3706 84.8725 37.3636 84.8912C37.1323 85.5164 36.4378 85.8357 35.8129 85.6049C35.1877 85.3739 34.8679 84.6803 35.0985 84.0551C35.4272 83.1635 38.4349 75.3594 42.8873 75.7758C43.9214 75.8731 44.7584 76.3642 45.3084 77.196C45.918 78.1184 46.1551 79.4523 46.016 81.1692C47.4763 80.0929 48.7806 79.5363 49.9008 79.5128C50.7579 79.4975 51.4892 79.8327 51.9644 80.4636C52.4223 81.0716 52.5743 81.8859 52.5796 82.684C54.2607 81.909 56.7579 81.2292 59.8642 81.7612C60.5213 81.8739 60.9628 82.4978 60.8503 83.155C60.7378 83.8122 60.1139 84.2534 59.4565 84.1411C54.8138 83.3451 51.9209 85.87 51.8 85.9779C51.5723 86.1816 51.283 86.2859 50.9921 86.2861Z" fill="#918291"/>
<path d="M25.447 91.3727C26.1076 91.3727 26.6431 90.8372 26.6431 90.1766C26.6431 89.516 26.1076 88.9805 25.447 88.9805C24.7864 88.9805 24.2509 89.516 24.2509 90.1766C24.2509 90.8372 24.7864 91.3727 25.447 91.3727Z" fill="#004DFB"/>
<path d="M96.1823 48.9186C96.8429 48.9186 97.3784 48.3831 97.3784 47.7225C97.3784 47.0619 96.8429 46.5264 96.1823 46.5264C95.5217 46.5264 94.9861 47.0619 94.9861 47.7225C94.9861 48.3831 95.5217 48.9186 96.1823 48.9186Z" fill="#004DFB"/>
<path d="M36.5533 70.145H33.0794C32.4125 70.145 31.8721 69.6044 31.8721 68.9377C31.8721 68.271 32.4125 67.7305 33.0794 67.7305H36.5533C37.2202 67.7305 37.7606 68.271 37.7606 68.9377C37.7606 69.6044 37.2202 70.145 36.5533 70.145Z" fill="#8FB5FF"/>
<path d="M89.1238 70.145H85.6498C84.9829 70.145 84.4426 69.6044 84.4426 68.9377C84.4426 68.271 84.9829 67.7305 85.6498 67.7305H89.1238C89.7907 67.7305 90.331 68.271 90.331 68.9377C90.331 69.6044 89.7905 70.145 89.1238 70.145Z" fill="#8FB5FF"/>
<path d="M85.3525 85.7407C84.699 83.5548 83.6463 81.8727 82.9187 80.8844C81.9806 80.7062 80.9828 80.6813 80.0358 80.8071C79.8894 80.8264 79.5996 80.8763 79.5996 80.878C78.9107 81.8598 77.9046 83.5548 77.2817 85.7584C76.4061 88.857 76.1517 93.5508 79.6543 98.7033C79.7799 98.7258 79.9071 98.7452 80.0358 98.7629C80.963 98.8866 81.9409 98.8636 82.8608 98.6969C86.5517 93.5444 86.2813 88.8442 85.3525 85.7407ZM81.2656 96.7556C79.1908 93.4317 78.6226 89.9902 79.5787 86.5085C80.023 84.8941 80.7199 83.5886 81.2737 82.721C82.8415 85.0051 85.4733 90.391 81.2656 96.7556Z" fill="#AA96E6"/>
<path d="M45.4263 27.8443C45.4263 15.9041 35.7468 6.22461 23.8068 6.22461C11.8777 6.22461 2.18689 15.9154 2.18689 27.8445C2.18708 39.7848 11.8664 49.4641 23.8066 49.4641H41.541C42.9748 49.4641 43.6929 47.7305 42.6791 46.7166L39.0941 43.1316C43.0066 39.2195 45.4263 33.8145 45.4263 27.8443Z" fill="#31A7FB"/>
<path d="M42.6781 46.7169C43.6921 47.731 42.9759 49.4634 41.5414 49.4634H34.2496C35.6822 49.4634 36.4005 47.731 35.3863 46.7169L33.1632 44.4927C32.4238 43.7528 32.3769 42.572 33.0511 41.7722C36.2226 38.0105 38.1347 33.1495 38.1347 27.8437C38.1347 17.1476 30.3662 8.26416 20.1628 6.53174C21.1501 6.36241 22.1599 6.26162 23.1875 6.23252C35.2783 5.8919 45.2222 15.3814 45.4234 27.4753C45.5251 33.5907 43.0861 39.1394 39.0945 43.1312L42.6781 46.7169Z" fill="#1C96F9"/>
<path d="M28.0748 27.844L32.0965 23.8223C33.2752 22.6436 33.2752 20.7327 32.0965 19.5542C30.9179 18.3754 29.0068 18.3754 27.8283 19.5542L23.8066 23.5758L19.7851 19.554C18.6066 18.3752 16.6955 18.3752 15.517 19.554C14.3383 20.7325 14.3383 22.6434 15.517 23.8221L19.5386 27.8438L15.517 31.8655C14.3383 33.0442 14.3383 34.9551 15.517 36.1336C16.1062 36.7231 16.8787 37.0176 17.6511 37.0176C18.4236 37.0176 19.1959 36.7229 19.7853 36.1336L23.807 32.112L27.8287 36.1336C28.4181 36.7231 29.1902 37.0176 29.9629 37.0176C30.7351 37.0176 31.5076 36.7229 32.097 36.1336C33.2758 34.9551 33.2758 33.0442 32.097 31.8655L28.0748 27.844Z" fill="#F8F3F1"/>
<path d="M63.2939 41.3984C66.3957 41.3984 68.9101 38.884 68.9101 35.7822C68.9101 32.6805 66.3957 30.166 63.2939 30.166C60.1922 30.166 57.6777 32.6805 57.6777 35.7822C57.6777 38.884 60.1922 41.3984 63.2939 41.3984Z" fill="#BCEA73"/>
<path d="M68.9097 35.7814C68.9097 38.8844 66.3945 41.3996 63.2941 41.3996C62.2547 41.3996 61.2795 41.1172 60.4453 40.6219C62.65 40.1137 64.2925 38.14 64.2925 35.7814C64.2925 33.4254 62.6525 31.4492 60.4478 30.941C61.282 30.4482 62.2547 30.166 63.2941 30.166C66.3947 30.1658 68.9097 32.6811 68.9097 35.7814Z" fill="#99D53B"/>
<path d="M82.9629 29.0486C85.4106 29.0486 87.3949 27.0643 87.3949 24.6166C87.3949 22.1689 85.4106 20.1846 82.9629 20.1846C80.5151 20.1846 78.5308 22.1689 78.5308 24.6166C78.5308 27.0643 80.5151 29.0486 82.9629 29.0486Z" fill="#BCEA73"/>
<path d="M87.3945 24.6162C87.3945 27.0648 85.4097 29.0496 82.9631 29.0496C82.1427 29.0496 81.3732 28.8268 80.7148 28.4359C82.4547 28.035 83.7507 26.4773 83.7507 24.6162C83.7507 22.7568 82.4566 21.1975 80.7168 20.7963C81.375 20.4074 82.1425 20.1846 82.9629 20.1846C85.4097 20.1846 87.3945 22.1695 87.3945 24.6162Z" fill="#99D53B"/>
<path d="M72.8359 16.5157L73.6523 15.6993C74.2417 15.1099 74.2417 14.1546 73.6523 13.5651C73.063 12.9759 72.1076 12.9759 71.5181 13.5651L70.7017 14.3815L69.8853 13.5651C69.296 12.9757 68.3406 12.9757 67.7511 13.5651C67.1617 14.1544 67.1617 15.1099 67.7511 15.6993L68.5675 16.5157L67.7511 17.3321C67.1617 17.9216 67.1617 18.8769 67.7511 19.4663C68.0458 19.761 68.432 19.9083 68.8181 19.9083C69.2042 19.9083 69.5906 19.7608 69.8851 19.4663L70.7015 18.6499L71.5179 19.4663C71.8126 19.761 72.1988 19.9083 72.5849 19.9083C72.971 19.9083 73.3574 19.7608 73.6519 19.4663C74.2413 18.8771 74.2413 17.9216 73.6519 17.3321L72.8359 16.5157Z" fill="#64B9FC"/>
<path d="M11.2988 50.775C10.7095 50.1857 9.75405 50.1857 9.1646 50.775L7.74312 52.1964L6.32163 50.775C5.73237 50.1857 4.7769 50.1857 4.18745 50.775C3.598 51.3642 3.598 52.3197 4.18745 52.9091L5.60894 54.3306L4.18745 55.7521C3.598 56.3414 3.598 57.2968 4.18745 57.8863C4.48218 58.181 4.86831 58.3283 5.25444 58.3283C5.64058 58.3283 6.0269 58.1808 6.32144 57.8863L7.74292 56.4648L9.1644 57.8863C9.45913 58.181 9.84526 58.3283 10.2314 58.3283C10.6175 58.3283 11.0039 58.1808 11.2984 57.8863C11.8878 57.297 11.8878 56.3416 11.2984 55.7521L9.8769 54.3306L11.2984 52.9091C11.888 52.3197 11.888 51.3642 11.2988 50.775Z" fill="#A8E7EF"/>
</svg>
