<svg width="277" height="321" viewBox="0 0 277 321" fill="none" xmlns="http://www.w3.org/2000/svg">
<path d="M31.2635 76.3687H63.3457V184.735H31.2635V76.3687Z" fill="#0B0E11"/>
<path d="M79.7433 76.3688L50.5128 76.3574V168.338H134.666V102.023C134.667 88.5358 124.263 77.4782 111.044 76.4373L95.4279 92.0534L79.7433 76.3688Z" fill="url(#paint0_linear_4_2102)"/>
<path d="M125.746 211.458L145.708 191.485L199.517 245.324L179.554 265.297L125.746 211.458Z" fill="#FFBEA6"/>
<path d="M216.64 302.382L256.908 262.089H216.271L205.933 251.751L185.971 271.713L216.64 302.382Z" fill="#14151A"/>
<path d="M56.2163 145.573H31.3063C21.147 145.573 16.0587 133.282 23.243 126.096L43.7399 105.588" stroke="#FFBBA2" stroke-width="22.7705" stroke-linejoin="round"/>
<path fill-rule="evenodd" clip-rule="evenodd" d="M50.5129 76.3687L19.8566 107.025L39.1059 126.274L69.8905 95.4718L50.5129 76.3687Z" fill="#328DFD"/>
<path d="M113.18 18.9846C102.747 8.54538 85.9173 8.44995 75.5901 18.7714C65.2629 29.0929 65.3489 45.9227 75.7822 56.3619C86.2156 66.801 103.045 66.8965 113.373 56.575C123.7 46.2536 123.614 29.4237 113.18 18.9846Z" fill="#FFBEA6"/>
<path d="M113.19 18.9738C102.756 8.53493 85.9316 8.44368 75.6097 18.7713C65.2878 29.0989 65.379 45.9327 75.8121 56.3716L113.19 18.9738Z" fill="#14151A"/>
<path d="M75.5776 56.1527L123.696 8.00806" stroke="#14151A" stroke-width="4.31217"/>
<path fill-rule="evenodd" clip-rule="evenodd" d="M60.4227 98.8818V76.3687H74.0398V99.7002C74.0398 107.089 70.7075 113.919 65.4845 119.145L50.5128 134.117L41.2447 124.135L56.0666 109.42C58.8608 106.625 60.4305 102.834 60.4305 98.8818H60.4227Z" fill="url(#paint1_linear_4_2102)"/>
<path fill-rule="evenodd" clip-rule="evenodd" d="M89.5055 212.573V240.169C89.5056 247.386 86.6396 254.307 81.5377 259.412L40.8903 300.088L20.7192 279.921L60.988 239.631V212.572H89.5055V212.573Z" fill="#FFBEA6"/>
<path d="M89.3979 194.208H95.2254L120.48 219.475L147.472 192.578L131.788 176.893V168.338H50.5128V221.024H89.3979V194.208Z" fill="#1D53AB"/>
<path d="M197.378 177.7L169.573 193.29V113.349L197.378 97.7568V177.698V177.7Z" fill="#28D294"/>
<path d="M141.769 177.7L169.573 193.29V113.349L141.769 97.7568V177.698V177.7Z" fill="#54E8B4"/>
<path d="M141.79 177.686L113.986 193.278V113.337L141.79 97.7449V177.686Z" fill="#28D294"/>
<path d="M86.1811 177.686L113.986 193.278V113.337L86.1811 97.7449V177.686Z" fill="#54E8B4"/>
<path d="M63.0698 145.903L79.4624 162.305L95.8549 145.903L79.4624 129.501L63.0698 145.903ZM181.002 146.855L197.394 163.257L213.787 146.855L197.394 130.453L181.002 146.855Z" fill="#FFBEA6"/>
<path d="M179.554 265.297L199.517 245.324L205.933 251.751L185.971 271.714L179.554 265.297ZM52.6395 288.275L32.5041 268.14L38.3002 262.351L58.4357 282.487L52.641 288.277L52.6395 288.275Z" fill="#F8D33A"/>
<path d="M184.218 71.4973H197.645V84.9241H184.218V71.4973Z" fill="url(#paint2_linear_4_2102)"/>
<path fill-rule="evenodd" clip-rule="evenodd" d="M190.931 17.789C188.261 17.79 185.7 18.8513 183.812 20.7396C181.923 22.6279 180.862 25.1888 180.861 27.8593V31.2158H167.434V27.8593C167.434 14.8824 177.955 4.3623 190.931 4.3623C203.908 4.3623 214.43 14.8824 214.43 27.8593C214.43 34.347 211.792 40.2287 207.547 44.4743L197.646 54.3755V61.4336H184.219V48.8139L198.053 34.9794C198.99 34.046 199.734 32.9362 200.24 31.714C200.746 30.4918 201.005 29.1814 201.002 27.8586C201.001 25.1881 199.94 22.6272 198.052 20.7389C196.164 18.8505 193.603 17.7893 190.932 17.7883L190.931 17.789Z" fill="url(#paint3_linear_4_2102)"/>
<path d="M227.063 79.6199L234.975 87.5321L227.063 95.4442L219.151 87.5321L227.063 79.6199Z" fill="url(#paint4_linear_4_2102)"/>
<path fill-rule="evenodd" clip-rule="evenodd" d="M262.669 51.9257C259.391 48.6483 254.078 48.6483 250.8 51.9257L248.822 53.9041L240.91 45.9905L242.888 44.0121C250.535 36.3651 262.934 36.3651 270.581 44.0121C274.252 47.6847 276.315 52.6652 276.315 57.8584C276.315 63.0515 274.252 68.0321 270.581 71.7047C268.764 73.5252 266.606 74.969 264.229 75.9532C261.853 76.9375 259.306 77.4428 256.734 77.4403H245.065L240.91 81.5953L232.998 73.6831L240.43 66.2507H256.735C257.837 66.2531 258.929 66.0371 259.948 65.6152C260.967 65.1933 261.891 64.5738 262.669 63.7925C265.947 60.5151 265.947 55.2016 262.669 51.9242L262.669 51.9257Z" fill="url(#paint5_linear_4_2102)"/>
<path d="M0.607269 300.012L32.4706 268.149L52.6517 288.33L40.8882 300.093L60.7692 319.974H20.5695L0.607269 300.012Z" fill="#0B0E11"/>
<path d="M177.416 317.341H257.265V320.193H177.416V317.341Z" fill="#E6E8EA"/>
<defs>
<linearGradient id="paint0_linear_4_2102" x1="96.6484" y1="76.5357" x2="96.6484" y2="168.302" gradientUnits="userSpaceOnUse">
<stop offset="0.292" stop-color="#328DFD"/>
<stop offset="0.708" stop-color="#1773EB"/>
</linearGradient>
<linearGradient id="paint1_linear_4_2102" x1="57.2857" y1="76.3687" x2="57.2857" y2="133.404" gradientUnits="userSpaceOnUse">
<stop stop-color="#1E2026"/>
<stop offset="1" stop-color="#0B0E11"/>
</linearGradient>
<linearGradient id="paint2_linear_4_2102" x1="197.378" y1="84.9241" x2="197.378" y2="4.36219" gradientUnits="userSpaceOnUse">
<stop stop-color="#E56700"/>
<stop offset="1" stop-color="#FF7E0D"/>
</linearGradient>
<linearGradient id="paint3_linear_4_2102" x1="197.378" y1="84.9242" x2="197.378" y2="4.3623" gradientUnits="userSpaceOnUse">
<stop stop-color="#E56700"/>
<stop offset="1" stop-color="#FF7E0D"/>
</linearGradient>
<linearGradient id="paint4_linear_4_2102" x1="260.34" y1="95.6182" x2="260.34" y2="38.5832" gradientUnits="userSpaceOnUse">
<stop stop-color="#E56700"/>
<stop offset="1" stop-color="#FF7E0D"/>
</linearGradient>
<linearGradient id="paint5_linear_4_2102" x1="260.34" y1="95.618" x2="260.34" y2="38.5831" gradientUnits="userSpaceOnUse">
<stop stop-color="#E56700"/>
<stop offset="1" stop-color="#FF7E0D"/>
</linearGradient>
</defs>
</svg>
