<svg width="16" height="16" viewBox="0 0 16 16" fill="none" xmlns="http://www.w3.org/2000/svg">
<g id="octicon:link-16">
<path id="Vector" d="M7.77493 3.27518L9.02493 2.02518C9.34995 1.70016 9.73581 1.44234 10.1605 1.26644C10.5851 1.09053 11.0403 1 11.4999 1C11.9596 1 12.4147 1.09053 12.8394 1.26644C13.2641 1.44234 13.6499 1.70016 13.9749 2.02518C14.3 2.3502 14.5578 2.73606 14.7337 3.16072C14.9096 3.58538 15.0001 4.04053 15.0001 4.50018C15.0001 4.95983 14.9096 5.41498 14.7337 5.83964C14.5578 6.2643 14.3 6.65016 13.9749 6.97518L11.4749 9.47518C11.1499 9.80022 10.7641 10.0581 10.3394 10.234C9.91475 10.4099 9.45959 10.5004 8.99993 10.5004C8.54028 10.5004 8.08512 10.4099 7.66046 10.234C7.2358 10.0581 6.84994 9.80022 6.52493 9.47518C6.39253 9.33292 6.32042 9.14487 6.32378 8.95055C6.32714 8.75623 6.40569 8.57078 6.54293 8.43318C6.68054 8.29593 6.86599 8.21738 7.0603 8.21402C7.25462 8.21067 7.44267 8.28277 7.58493 8.41518C7.77055 8.60137 7.99108 8.7491 8.23389 8.8499C8.47671 8.9507 8.73703 9.00258 8.99993 9.00258C9.26284 9.00258 9.52316 8.9507 9.76597 8.8499C10.0088 8.7491 10.2293 8.60137 10.4149 8.41518L12.9149 5.91518C13.272 5.53623 13.4673 5.0331 13.4596 4.51252C13.4518 3.99194 13.2416 3.49485 12.8734 3.1267C12.5053 2.75856 12.0082 2.54831 11.4876 2.54056C10.967 2.5328 10.4639 2.72816 10.0849 3.08518L8.83493 4.33518C8.69267 4.46759 8.50462 4.53969 8.3103 4.53633C8.11599 4.53298 7.93054 4.45442 7.79293 4.31718C7.65569 4.17957 7.57714 3.99413 7.57378 3.79981C7.57042 3.60549 7.64253 3.41744 7.77493 3.27518ZM3.08493 12.9152C3.27055 13.1014 3.49108 13.2491 3.73389 13.3499C3.97671 13.4507 4.23703 13.5026 4.49993 13.5026C4.76284 13.5026 5.02316 13.4507 5.26597 13.3499C5.50879 13.2491 5.72932 13.1014 5.91493 12.9152L7.16493 11.6652C7.3072 11.5328 7.49525 11.4607 7.68956 11.464C7.88388 11.4674 8.06933 11.5459 8.20693 11.6832C8.34418 11.8208 8.42273 12.0062 8.42609 12.2005C8.42945 12.3949 8.35734 12.5829 8.22493 12.7252L6.97493 13.9752C6.64991 14.3002 6.26406 14.558 5.83939 14.7339C5.41473 14.9098 4.95958 15.0004 4.49993 15.0004C3.57163 15.0004 2.68135 14.6316 2.02493 13.9752C1.36852 13.3188 0.999756 12.4285 0.999756 11.5002C0.999756 10.5719 1.36852 9.68159 2.02493 9.02518L4.52493 6.52518C4.84994 6.20014 5.2358 5.9423 5.66046 5.76638C6.08512 5.59047 6.54028 5.49993 6.99993 5.49993C7.45959 5.49993 7.91475 5.59047 8.33941 5.76638C8.76407 5.9423 9.14992 6.20014 9.47493 6.52518C9.60734 6.66744 9.67945 6.85549 9.67609 7.04981C9.67273 7.24413 9.59418 7.42957 9.45693 7.56718C9.31933 7.70442 9.13388 7.78298 8.93956 7.78633C8.74525 7.78969 8.5572 7.71759 8.41493 7.58518C8.22932 7.39899 8.00879 7.25126 7.76597 7.15046C7.52316 7.04966 7.26284 6.99777 6.99993 6.99777C6.73703 6.99777 6.47671 7.04966 6.23389 7.15046C5.99108 7.25126 5.77055 7.39899 5.58493 7.58518L3.08493 10.0852C2.89874 10.2708 2.75101 10.4913 2.65021 10.7341C2.54942 10.977 2.49753 11.2373 2.49753 11.5002C2.49753 11.7631 2.54942 12.0234 2.65021 12.2662C2.75101 12.509 2.89874 12.7296 3.08493 12.9152Z" fill="#1E2329"/>
</g>
</svg>
