<svg width="66" height="66" viewBox="0 0 66 66" fill="none" xmlns="http://www.w3.org/2000/svg">
<g id="QC" clip-path="url(#clip0_993_189)">
<g id="Group">
<g id="Group_2">
<path id="Vector" d="M65.0353 37.2543V28.7456C65.0353 28.1393 64.5439 27.6479 63.9376 27.6479H59.9776C59.4694 27.6479 59.0226 27.3022 58.9048 26.8077C58.2442 24.0352 57.1494 21.4313 55.6973 19.0707C55.4301 18.6362 55.4922 18.0764 55.8528 17.7158L58.6605 14.9081C59.0891 14.4795 59.0891 13.7845 58.6605 13.3558L52.6439 7.33928C52.2153 6.91067 51.5202 6.91067 51.0916 7.33928L48.2839 10.147C47.9232 10.5077 47.3635 10.5697 46.9291 10.3024C44.5684 8.85032 41.9647 7.75552 39.192 7.095C38.6975 6.97718 38.3518 6.53052 38.3518 6.02211V2.06211C38.3518 1.45587 37.8604 0.964478 37.2542 0.964478H28.7455C28.1392 0.964478 27.6478 1.45587 27.6478 2.06211V6.02211C27.6478 6.53039 27.3021 6.97718 26.8076 7.095C24.0351 7.75552 21.4312 8.85045 19.0705 10.3024C18.6361 10.5697 18.0763 10.5075 17.7157 10.147L14.908 7.33928C14.4794 6.91067 13.7843 6.91067 13.3557 7.33928L7.33916 13.3558C6.91054 13.7845 6.91054 14.4795 7.33916 14.9081L10.1469 17.7158C10.5075 18.0765 10.5695 18.6362 10.3023 19.0707C8.8502 21.4313 7.7554 24.0352 7.09488 26.8077C6.97706 27.3022 6.5304 27.6479 6.02199 27.6479H2.06199C1.45575 27.6479 0.964355 28.1393 0.964355 28.7456V37.2543C0.964355 37.8605 1.45575 38.3519 2.06199 38.3519H6.02199C6.53027 38.3519 6.97706 38.6977 7.09488 39.1921C7.7554 41.9647 8.8502 44.5686 10.3023 46.9292C10.5695 47.3636 10.5074 47.9235 10.1469 48.284L7.33916 51.0917C6.91054 51.5203 6.91054 52.2154 7.33916 52.644L13.3557 58.6606C13.7843 59.0892 14.4794 59.0892 14.908 58.6606L17.7157 55.8529C18.0764 55.4922 18.6361 55.4302 19.0705 55.6974C21.4312 57.1496 24.0351 58.2444 26.8076 58.9049C27.3021 59.0227 27.6478 59.4695 27.6478 59.9778V63.9376C27.6478 64.5439 28.1392 65.0353 28.7455 65.0353H37.2542C37.8604 65.0353 38.3518 64.5439 38.3518 63.9376V59.9778C38.3518 59.4695 38.6975 59.0227 39.192 58.9049C41.9645 58.2444 44.5684 57.1494 46.9291 55.6974C47.3635 55.4302 47.9234 55.4923 48.2839 55.8529L51.0916 58.6606C51.5202 59.0892 52.2153 59.0892 52.6439 58.6606L58.6605 52.644C59.0891 52.2154 59.0891 51.5203 58.6605 51.0917L55.8528 48.284C55.4921 47.9233 55.4301 47.3636 55.6973 46.9292C57.1494 44.5686 58.2442 41.9647 58.9048 39.1921C59.0226 38.6977 59.4692 38.3519 59.9776 38.3519H63.9376C64.5439 38.3519 65.0353 37.8605 65.0353 37.2543Z" fill="#A2AEE6"/>
</g>
<g id="Group_3">
<path id="Vector_2" d="M45.2875 55.1698L46.0921 56.1901C43.957 57.3991 41.6406 58.3213 39.1917 58.9053C38.6979 59.0223 38.3518 59.4699 38.3518 59.978V63.9382C38.3518 64.5439 37.8605 65.0353 37.2547 65.0353H34.6823C35.2881 65.0353 35.7795 64.5439 35.7795 63.9382V58.7688C35.7795 58.2608 36.1254 57.8144 36.6194 57.6961C39.3924 57.0363 41.5255 56.1205 43.9319 55.0144C44.3962 54.8007 44.9261 54.8097 45.2875 55.1698Z" fill="#8795DE"/>
</g>
<g id="Group_4">
<path id="Vector_3" d="M39.1917 7.09472C41.7062 7.69414 44.4054 8.83908 46.5867 10.0957L45.8656 11.2196C45.5042 11.5798 44.9447 11.6428 44.5099 11.3752C42.1498 9.92305 39.5313 8.99467 36.6193 8.09181C36.1344 7.94009 35.7793 7.5272 35.7793 7.01789V2.06196C35.7793 1.45623 35.2881 0.964844 34.6822 0.964844H37.2545C37.8603 0.964844 38.3517 1.45623 38.3517 2.06196V6.02209C38.3518 6.53011 38.6978 6.97768 39.1917 7.09472Z" fill="#8795DE"/>
</g>
<g id="Group_5">
<path id="Vector_4" d="M57.4054 38.3518H59.9777C59.4697 38.3518 59.0222 38.6978 58.9051 39.1918C58.244 41.9648 57.1494 44.5681 55.6974 46.9295C55.4299 47.3642 55.4917 47.9237 55.853 48.2839L58.6607 51.0916C59.0891 51.52 59.0891 52.2158 58.6607 52.644L52.6439 58.6609C52.2155 59.0892 51.5197 59.0892 51.0915 58.6609L50.5822 58.1515L56.0884 52.644C56.5167 52.2157 56.5167 51.5198 56.0884 51.0916L53.2807 48.2839C52.9192 47.9237 52.8575 47.3643 53.1251 46.9295C54.5772 44.5681 55.6718 41.9648 56.3328 39.1918C56.4498 38.6978 56.8974 38.3518 57.4054 38.3518Z" fill="#8795DE"/>
</g>
<g id="Group_6">
<path id="Vector_5" d="M59.9779 27.6483H57.4055C56.8975 27.6483 56.45 27.3023 56.3329 26.8084C55.6718 24.0354 54.5772 21.4321 53.1252 19.0707C52.8577 18.636 52.9195 18.0765 53.2808 17.7163L56.0885 14.9086C56.5169 14.4802 56.5169 13.7844 56.0885 13.3562L50.5823 7.84993L51.0916 7.33933C51.5199 6.91098 52.2158 6.91098 52.644 7.33933L58.6608 13.3562C59.0892 13.7845 59.0892 14.4804 58.6608 14.9086L55.8531 17.7163C55.4917 18.0765 55.4299 18.6359 55.6975 19.0707C57.1497 21.4321 58.2442 24.0354 58.9052 26.8084C59.0223 27.3023 59.4698 27.6483 59.9779 27.6483Z" fill="#8795DE"/>
</g>
<g id="Group_7">
<path id="Vector_6" d="M65.0352 28.7453V37.2548C65.0352 37.8607 64.5439 38.3519 63.938 38.3519H61.3657C61.9716 38.3519 62.4628 37.8607 62.4628 37.2548V28.7453C62.4628 28.1395 61.9715 27.6482 61.3657 27.6482H63.938C64.5439 27.6482 65.0352 28.1395 65.0352 28.7453Z" fill="#8795DE"/>
</g>
<g id="Group_8">
<path id="Vector_7" d="M33 52.7216C43.892 52.7216 52.7216 43.8919 52.7216 32.9999C52.7216 22.108 43.892 13.2783 33 13.2783C22.1081 13.2783 13.2784 22.108 13.2784 32.9999C13.2784 43.8919 22.1081 52.7216 33 52.7216Z" fill="#FAF7F7"/>
</g>
<g id="Group_9">
<path id="Vector_8" d="M52.7212 33C52.7212 43.8914 43.8915 52.7212 33 52.7212C29.9414 52.7212 27.0449 52.0254 24.4623 50.7817C26.3144 51.3579 28.2836 51.6679 30.3261 51.6679C41.2175 51.6679 50.0473 42.8382 50.0473 31.9467C50.0473 24.1151 45.4813 17.3497 38.8665 14.1664C46.8935 16.6641 52.7212 24.1509 52.7212 33Z" fill="#EDE1DD"/>
</g>
<g id="Group_10">
<g id="Group_11">
<path id="Vector_9" d="M30.2593 42.0502C29.4314 42.0502 28.6342 41.7288 28.0371 41.1517L22.7116 36.0046C21.4419 34.7771 21.4073 32.7527 22.6345 31.4828C23.8619 30.2132 25.8858 30.178 27.1564 31.4057L30.1294 34.279L38.7165 24.9785C39.9144 23.6808 41.9376 23.6001 43.2353 24.7981C44.5327 25.9962 44.6136 28.0194 43.4154 29.3169L32.6089 41.0214C32.0251 41.6539 31.2109 42.0241 30.3505 42.0487C30.3202 42.0497 30.2898 42.0502 30.2593 42.0502Z" fill="#A6E7F0"/>
</g>
</g>
<g id="Group_12">
<g id="Group_13">
<path id="Vector_10" d="M43.4156 29.3176L32.609 41.0219C32.0251 41.6534 31.2109 42.0239 30.3505 42.0483C30.3195 42.0495 30.29 42.0495 30.2592 42.0495C29.4308 42.0495 28.6347 41.7281 28.0366 41.1518L27.6366 40.7647C28.3736 40.6438 29.0539 40.2798 29.5659 39.7255L40.9719 27.3716C41.8363 26.4353 42.0704 25.1414 41.6936 24.0121C42.2517 24.1227 42.7868 24.3838 43.2357 24.7979C44.5332 25.9966 44.613 28.0198 43.4156 29.3176Z" fill="#6BD9E7"/>
</g>
</g>
<g id="Group_14">
<path id="Vector_11" d="M63.9376 26.6833H59.9778C59.9134 26.6833 59.857 26.6417 59.8432 26.5842C59.1687 23.7526 58.0503 21.0546 56.5191 18.5652C56.485 18.51 56.4917 18.4412 56.5351 18.398L59.3428 15.5903C59.7323 15.2006 59.9468 14.6828 59.9468 14.132C59.9468 13.581 59.7323 13.0631 59.3428 12.6737L53.3262 6.65723C52.9368 6.26755 52.4188 6.05305 51.8679 6.05305C51.3171 6.05305 50.7992 6.26755 50.4096 6.6571L47.6018 9.46481C47.5585 9.50812 47.4896 9.51483 47.4347 9.48079C44.9452 7.94952 42.2472 6.83113 39.4157 6.15669C39.3583 6.14303 39.3165 6.08644 39.3165 6.02224V2.06237C39.3167 0.92516 38.3915 0 37.2543 0H28.7456C27.6085 0 26.6832 0.92516 26.6832 2.06237V6.02224C26.6832 6.08657 26.6416 6.14303 26.5841 6.15669C23.7525 6.83126 21.0545 7.94952 18.5651 9.48079C18.51 9.51496 18.4409 9.50825 18.3979 9.46481L15.5902 6.6571C15.2005 6.26755 14.6827 6.05305 14.1319 6.05305C13.5809 6.05305 13.063 6.26755 12.6735 6.6571L6.65736 12.6738C6.26768 13.0632 6.05318 13.5812 6.05318 14.1321C6.05318 14.6829 6.26768 15.2008 6.65723 15.5904L9.46494 18.3981C9.50825 18.4413 9.51496 18.5102 9.48093 18.5653C7.94965 21.0548 6.83126 23.7528 6.15682 26.5843C6.14316 26.6417 6.08657 26.6835 6.02224 26.6835H2.06237C0.92516 26.6833 0 27.6085 0 28.7457V37.2544C0 38.3915 0.92516 39.3168 2.06237 39.3168H6.02224C6.08657 39.3168 6.14303 39.3584 6.15682 39.4159C6.83126 42.2475 7.94965 44.9455 9.48093 47.4349C9.51496 47.4901 9.50825 47.5589 9.46494 47.6021L6.65723 50.4099C6.26768 50.7995 6.05318 51.3174 6.05318 51.8683C6.05318 52.4192 6.26768 52.9371 6.65723 53.3266L12.6738 59.343C13.0632 59.7326 13.5812 59.9472 14.1321 59.9472C14.6829 59.9472 15.2008 59.7327 15.5904 59.3431L18.3981 56.5354C18.4412 56.4919 18.5103 56.4852 18.5653 56.5195C21.0546 58.0506 23.7526 59.1691 26.5846 59.8437C26.6418 59.8574 26.6835 59.9139 26.6835 59.9781V63.938C26.6835 65.0751 27.6086 66.0004 28.7458 66.0004H37.2545C38.3916 66.0004 39.3169 65.0752 39.3169 63.938V59.9781C39.3169 59.9139 39.3586 59.8575 39.416 59.8437C42.2477 59.1691 44.9456 58.0506 47.435 56.5195C47.49 56.4853 47.5591 56.492 47.6022 56.5354L50.4099 59.3431C50.7996 59.7326 51.3174 59.9472 51.8683 59.9472C52.4192 59.9472 52.9371 59.7327 53.3264 59.3431L54.7457 57.9239C55.1225 57.5472 55.1225 56.9363 54.7458 56.5597C54.369 56.183 53.7582 56.1829 53.3816 56.5595L51.9621 57.9789C51.93 58.011 51.8933 58.0179 51.8681 58.0179C51.843 58.0179 51.8064 58.011 51.7742 57.9788L48.9664 55.1711C48.2887 54.4934 47.2431 54.3721 46.424 54.876C44.1094 56.2999 41.601 57.3398 38.969 57.9669C38.0379 58.1885 37.3875 59.0156 37.3875 59.9781V63.938C37.3875 64.0114 37.3278 64.071 37.2544 64.071H28.7457C28.6724 64.071 28.6127 64.0114 28.6127 63.938V59.9781C28.6127 59.0156 27.9623 58.1885 27.0314 57.9669C24.3991 57.3398 21.8907 56.2999 19.5761 54.876C18.7568 54.3724 17.7115 54.4934 17.0337 55.1711L14.226 57.9788C14.1939 58.011 14.1571 58.0179 14.132 58.0179C14.1069 58.0179 14.0702 58.011 14.038 57.9788L8.02132 51.9622C7.98922 51.9301 7.98239 51.8934 7.98239 51.8683C7.98239 51.8431 7.98922 51.8065 8.02145 51.7743L10.8292 48.9666C11.5067 48.2889 11.628 47.2435 11.1242 46.4242C9.70019 44.1094 8.66044 41.601 8.03344 38.9689C7.81159 38.0379 6.98453 37.3876 6.02211 37.3876H2.06237C1.98902 37.3876 1.92934 37.3279 1.92934 37.2545V28.7458C1.92934 28.6725 1.98902 28.6128 2.06237 28.6128H6.02224C6.98466 28.6128 7.81172 27.9626 8.03357 27.0315C8.66057 24.3994 9.70032 21.891 11.1243 19.5762C11.6281 18.7569 11.5068 17.7115 10.8293 17.0338L8.02158 14.2261C7.98935 14.194 7.98252 14.1573 7.98252 14.1321C7.98252 14.107 7.98935 14.0704 8.02158 14.0381L14.0381 8.02145C14.0702 7.98935 14.107 7.98252 14.1321 7.98252C14.1573 7.98252 14.1939 7.98935 14.2261 8.02158L17.0338 10.8293C17.7116 11.5067 18.7569 11.6281 19.5762 11.1243C21.891 9.70032 24.3994 8.66057 27.0315 8.03357C27.9625 7.81172 28.6128 6.98466 28.6128 6.02224V2.06237C28.6128 1.98902 28.6725 1.92934 28.7458 1.92934H37.2545C37.3279 1.92934 37.3876 1.98902 37.3876 2.06237V6.02224C37.3876 6.98466 38.0378 7.81172 38.9689 8.03357C41.601 8.66057 44.1094 9.70032 46.4242 11.1243C47.2435 11.628 48.2888 11.5069 48.9666 10.8293L51.7743 8.02158C51.8064 7.98935 51.8431 7.98252 51.8683 7.98252C51.8934 7.98252 51.93 7.98935 51.9622 8.02158L57.9789 14.0381C58.011 14.0702 58.0179 14.107 58.0179 14.1321C58.0179 14.1573 58.011 14.1939 57.9788 14.2261L55.1711 17.0338C54.4936 17.7115 54.3723 18.7569 54.876 19.5762C56.3001 21.891 57.3398 24.3994 57.9668 27.0315C58.1887 27.9625 59.0157 28.6128 59.9781 28.6128H63.938C64.0114 28.6128 64.071 28.6725 64.071 28.7458V37.2545C64.071 37.3279 64.0114 37.3876 63.938 37.3876H59.9781C59.0157 37.3876 58.1887 38.0378 57.9668 38.9689C57.3398 41.601 56.3001 44.1094 54.876 46.4242C54.3723 47.2435 54.4936 48.2889 55.1711 48.9666L57.9788 51.7743C58.011 51.8064 58.0179 51.8431 58.0179 51.8683C58.0179 51.8934 58.011 51.93 57.9788 51.9622L56.5433 53.3977C56.1666 53.7745 56.1666 54.3853 56.5433 54.7621C56.92 55.1385 57.5307 55.1387 57.9076 54.7621L59.343 53.3266C59.7327 52.9371 59.9472 52.4192 59.9472 51.8683C59.9472 51.3174 59.7327 50.7996 59.3431 50.4099L56.5354 47.6021C56.4921 47.5589 56.4854 47.4901 56.5195 47.4349C58.0507 44.9455 59.1691 42.2475 59.8436 39.4159C59.8572 39.3586 59.9138 39.3168 59.9781 39.3168H63.938C65.0751 39.3168 66.0004 38.3916 66.0004 37.2544V28.7457C66 27.6085 65.0748 26.6833 63.9376 26.6833Z" fill="black"/>
<path id="Vector_12" d="M13.6323 29.1368C13.1054 29.0576 12.615 29.4229 12.537 29.9499C12.3887 30.9529 12.3136 31.979 12.3136 33C12.3136 44.4065 21.5935 53.6863 33 53.6863C44.4065 53.6863 53.6864 44.4065 53.6864 33C53.6864 21.5934 44.4065 12.3136 33 12.3136C28.7773 12.3136 24.7157 13.5778 21.2542 15.9695C17.8735 18.3054 15.2865 21.5506 13.7717 25.3571L13.7326 25.4561C13.5371 25.9516 13.7802 26.512 14.2758 26.7075C14.7712 26.903 15.3317 26.66 15.5273 26.1643L15.5653 26.068C16.9379 22.6188 19.2844 19.6757 22.3508 17.5569C25.4885 15.3888 29.1708 14.2429 33 14.2429C43.3427 14.2429 51.757 22.6573 51.757 33C51.757 43.3426 43.3427 51.757 33 51.757C22.6573 51.757 14.243 43.3426 14.243 33C14.243 32.0731 14.3112 31.1419 14.4456 30.232C14.5235 29.705 14.1594 29.2146 13.6323 29.1368Z" fill="black"/>
<path id="Vector_13" d="M30.2595 43.0148C30.2992 43.0148 30.3389 43.0142 30.3783 43.0131C31.4917 42.9811 32.563 42.4937 33.3179 41.6759L44.1241 29.9715C44.8783 29.1546 45.2694 28.093 45.2252 26.982C45.1809 25.8711 44.7068 24.8439 43.8897 24.0896C42.2035 22.5327 39.5647 22.638 38.0078 24.3243L30.0901 32.8996L27.8269 30.7121C26.1764 29.1171 23.536 29.1624 21.941 30.8126C20.3461 32.4629 20.391 35.103 22.0413 36.6982L27.3668 41.8453C28.1471 42.5994 29.1743 43.0148 30.2595 43.0148ZM23.3282 32.1532C23.7657 31.7007 24.3498 31.4731 24.9343 31.4731C25.4934 31.4731 26.0532 31.6813 26.4861 32.0994L29.4591 34.9727C29.6457 35.153 29.8988 35.2498 30.1569 35.2434C30.4165 35.236 30.662 35.1243 30.8382 34.9335L39.4253 25.6329C40.2608 24.7281 41.6764 24.672 42.581 25.507C43.0191 25.9116 43.2736 26.4627 43.2973 27.0589C43.321 27.6549 43.1113 28.2244 42.7065 28.6627L31.8999 40.3674C31.4952 40.8061 30.9202 41.0675 30.3226 41.0846C29.7186 41.1019 29.1412 40.8774 28.7073 40.4582L23.3819 35.3111C22.4967 34.4551 22.4726 33.0386 23.3282 32.1532Z" fill="black"/>
</g>
</g>
</g>
<defs>
<clipPath id="clip0_993_189">
<rect width="66" height="66" fill="white"/>
</clipPath>
</defs>
</svg>
