<svg width="340" height="222" viewBox="0 0 340 222" fill="none" xmlns="http://www.w3.org/2000/svg">
<path opacity="0.2" d="M252.498 164.895H138.112V221.293H252.498V164.895Z" fill="url(#paint0_linear_190_2253)"/>
<path opacity="0.2" d="M267.357 75.467H110.528V118.153H267.357V75.467Z" fill="url(#paint1_linear_190_2253)"/>
<path opacity="0.2" d="M263.333 40.8247H97.4971V66.5757H263.333V40.8247Z" fill="url(#paint2_linear_190_2253)"/>
<path d="M125.523 130.861L129.264 134.599L133.005 130.861L129.264 127.124L125.523 130.861Z" fill="#328DFD"/>
<path d="M206.992 164.765L204.612 162.387L202.232 164.765L204.612 167.143L206.992 164.765Z" fill="white"/>
<path d="M24.9265 148.723L20.3357 144.136L15.7448 148.723L20.3357 153.311L24.9265 148.723Z" fill="#0B30F0"/>
<path d="M161.894 101.398L157.304 96.811L152.713 101.398L157.304 105.985L161.894 101.398Z" fill="white"/>
<path d="M135.172 25.3492L128.371 18.5535L121.57 25.3492L128.371 32.145L135.172 25.3492Z" fill="#0B30F0"/>
<path d="M39.207 157.728L36.8267 155.35L34.4464 157.728L36.8267 160.106L39.207 157.728Z" fill="#FF7E0D"/>
<path d="M236.71 117.877L234.33 115.499L231.949 117.877L234.33 120.255L236.71 117.877Z" fill="#FF7E0D"/>
<path d="M58.3993 56.5656L55.3387 53.5075L52.2782 56.5656L55.3387 59.6236L58.3993 56.5656Z" fill="#FF7E0D"/>
<path fill-rule="evenodd" clip-rule="evenodd" d="M125.338 75.3047L135.24 75.3064C135.357 75.3064 135.47 75.2598 135.553 75.1767L152.181 58.5625L162.072 68.4451L145.444 85.0596C142.738 87.764 139.066 89.2834 135.237 89.2826L125.336 89.2811L125.338 75.3047Z" fill="#FFBEA6"/>
<g style="mix-blend-mode:soft-light" opacity="0.6">
<path fill-rule="evenodd" clip-rule="evenodd" d="M125.338 75.3047L135.423 75.3064L152.18 58.5625L162.071 68.4451L145.313 85.1889C142.69 87.8104 139.131 89.2834 135.421 89.2826L125.335 89.281L125.338 75.3047Z" fill="url(#paint3_linear_190_2253)"/>
</g>
<path d="M169.845 50.0876L159.954 59.9702L150.063 50.0875L159.954 40.2048L169.845 50.0876Z" fill="#FFBEA6"/>
<path d="M102.341 180.174L103.08 144.695" stroke="#FFBEA6" stroke-width="16.8091"/>
<path d="M102.41 113.823V128.685L102.412 152.752" stroke="#328DFD" stroke-width="22"/>
<path d="M75.4899 123.433L89.3283 123.386L111.737 123.308" stroke="#328DFD" stroke-width="24.1987"/>
<path d="M62.9142 176.232L63.1519 147.742C63.1574 147.095 63.4168 146.476 63.8745 146.019L80.1748 129.732" stroke="#FFBEA6" stroke-width="16.8091"/>
<path d="M83.7451 113.824V125.681C83.7451 127.609 82.9955 129.461 81.6557 130.848L67.4293 145.563" stroke="#328DFD" stroke-width="22"/>
<g style="mix-blend-mode:soft-light">
<path fill-rule="evenodd" clip-rule="evenodd" d="M74.4861 113.83V124.909L60.8011 139.065L74.2801 152.075L88.5073 137.358C89.8261 135.993 90.891 134.43 91.6739 132.74L111.771 132.671L111.705 113.946L93.2267 114.01V113.83H74.4861Z" fill="#14151A" stroke="#14151A" stroke-width="3"/>
</g>
<path fill-rule="evenodd" clip-rule="evenodd" d="M61.3232 88.8979H24.2116V74.9216H61.3232V88.8979Z" fill="#FFBEA6"/>
<g style="mix-blend-mode:soft-light" opacity="0.6">
<path fill-rule="evenodd" clip-rule="evenodd" d="M61.3242 88.8979H24.2125V74.9216H61.3242V88.8979Z" fill="url(#paint4_linear_190_2253)"/>
</g>
<path d="M9.89095 92.4997L-0.000162125 82.6172L9.89095 72.7346L19.7812 82.6172L9.89095 92.4997Z" fill="#FFBEA6"/>
<path fill-rule="evenodd" clip-rule="evenodd" d="M113.416 74.5679H134.61V90.5405H113.416V74.5679Z" fill="#1F37B3"/>
<g style="mix-blend-mode:soft-light" opacity="0.6">
<path fill-rule="evenodd" clip-rule="evenodd" d="M113.416 74.5679H134.61V90.5405H113.416V74.5679Z" fill="url(#paint5_linear_190_2253)"/>
</g>
<path fill-rule="evenodd" clip-rule="evenodd" d="M73.7676 90.4577H55.2152V74.4849L73.7676 74.4849V90.4577Z" fill="#1F37B3"/>
<g style="mix-blend-mode:soft-light" opacity="0.6">
<path fill-rule="evenodd" clip-rule="evenodd" d="M73.7686 90.4574H55.2162V74.4847L73.7686 74.4846V90.4574Z" fill="url(#paint6_linear_190_2253)"/>
</g>
<path fill-rule="evenodd" clip-rule="evenodd" d="M87.5579 74.5171L95.3208 82.2578L103.084 74.5171H114.555V119.695L70.5939 119.857V74.5171H87.5579Z" fill="#1F37B3"/>
<path d="M87.7018 64.8395C81.4901 61.2562 79.3619 53.3198 82.9483 47.1132C86.534 40.9066 94.4773 38.7801 100.688 42.3635C106.9 45.9468 109.029 53.8832 105.443 60.0898C101.856 66.2964 93.9135 68.4229 87.7018 64.8395Z" fill="#FFBEA6"/>
<path d="M105.443 60.0899C109.029 53.8833 106.898 45.9455 100.689 42.3636C94.4802 38.7816 86.5345 40.9068 82.9488 47.1133L105.443 60.0899Z" fill="#935A30"/>
<path d="M185.503 201.796H103.131L122.151 182.829H204.523L181.563 192.313L185.503 201.796Z" fill="#328DFD"/>
<path d="M176.564 164.86H51.6752L13.2098 203.294V206.289L51.6752 167.855H176.564V164.86Z" fill="#0F31E7"/>
<path d="M176.564 182.829H51.6752L13.2098 221.264H138.099L176.564 182.829Z" fill="#7AB5FF"/>
<path d="M13.2103 221.264L51.6757 182.829H168.072H176.065C171.927 182.829 168.572 179.477 168.572 175.342C168.572 171.207 171.927 167.854 176.065 167.854H168.072H51.6757L13.2103 206.289V221.264Z" fill="white"/>
<path d="M51.6768 182.829L13.2106 221.264V206.289L51.6768 167.855V182.829Z" fill="#E6E8EA"/>
<g style="mix-blend-mode:soft-light" opacity="0.6">
<path d="M176.565 182.829H51.6762L13.2108 221.264H138.1L176.565 182.829Z" fill="url(#paint7_linear_190_2253)"/>
</g>
<path d="M16.21 203.296H13.2129V221.265L16.21 218.27V203.296Z" fill="#0F31E7"/>
<path d="M297.557 146.466C320.767 146.466 339.582 127.666 339.582 104.475C339.582 81.2843 320.767 62.484 297.557 62.484C274.347 62.484 255.532 81.2843 255.532 104.475V146.466H297.557Z" fill="url(#paint8_linear_190_2253)"/>
<path d="M308.549 121.549C311.134 118.966 311.134 114.778 308.549 112.195C305.963 109.612 301.772 109.612 299.187 112.195L294.506 116.872L299.187 121.549C301.772 124.131 305.963 124.131 308.549 121.549Z" stroke="white" stroke-width="2.80335"/>
<path d="M280.464 93.4895C283.049 90.9059 287.241 90.9059 289.826 93.4895C292.411 96.0722 292.411 100.26 289.826 102.843L285.145 107.519L280.464 102.843C277.879 100.26 277.879 96.0722 280.464 93.4895Z" stroke="white" stroke-width="2.80335"/>
<path d="M294.504 116.875L285.142 107.521L261.631 131.014L270.992 140.368L294.504 116.875Z" stroke="white" stroke-width="2.80335"/>
<path d="M255.539 121.004L281.01 146.455L264.464 162.986L238.994 137.536L255.539 121.004Z" fill="url(#paint9_linear_190_2253)"/>
<path d="M260.981 159.508L242.477 141.019L236.381 147.11L254.886 165.599L260.981 159.508Z" fill="#474D57"/>
<path d="M255.102 128.403L273.606 146.892" stroke="#474D57" stroke-width="2.80335"/>
<path d="M250.75 132.752L269.254 151.242" stroke="#474D57" stroke-width="2.80335"/>
<path d="M246.394 137.103L264.898 155.592" stroke="#474D57" stroke-width="2.80335"/>
<path d="M272.368 195.248L276.504 185.794L261.857 200.396L241.18 199.599L250.628 203.736L253.112 210.081L268.237 216.704L274.849 201.585L272.368 195.248Z" fill="#76808F"/>
<path d="M259.695 196.45L266.308 181.331L276.499 185.794L265.753 210.362L241.176 199.599L251.922 175.031L262.744 179.77L256.131 194.889L259.695 196.45Z" fill="url(#paint10_linear_190_2253)"/>
<path d="M280.064 192.235L285.736 194.718L283.257 200.388L277.585 197.904L280.064 192.235Z" fill="#76808F"/>
<path d="M247.529 42.4454L258.084 36.6437L232.177 39.4076L208.618 23.1429L217.089 34.1279L216.122 41.9681L229.687 59.5543L246.563 50.2754L247.529 42.4454Z" fill="#76808F"/>
<path d="M232.062 34.0686L248.94 24.7909L258.079 36.6401L230.652 51.717L208.614 23.1391L236.039 8.06245L245.744 20.6457L228.866 29.9235L232.062 34.0686Z" fill="url(#paint11_linear_190_2253)"/>
<path d="M258.31 45.3819L263.396 51.977L257.067 55.4564L251.98 48.8613L258.31 45.3819Z" fill="#76808F"/>
<defs>
<linearGradient id="paint0_linear_190_2253" x1="252.498" y1="221.293" x2="138.112" y2="221.293" gradientUnits="userSpaceOnUse">
<stop stop-color="#3A9DF8" stop-opacity="0"/>
<stop offset="1" stop-color="#3A7BF8"/>
</linearGradient>
<linearGradient id="paint1_linear_190_2253" x1="267.357" y1="118.153" x2="73.5683" y2="118.153" gradientUnits="userSpaceOnUse">
<stop stop-color="#3A64F8" stop-opacity="0"/>
<stop offset="1" stop-color="#3A91F8"/>
</linearGradient>
<linearGradient id="paint2_linear_190_2253" x1="263.333" y1="66.5757" x2="97.4971" y2="66.5757" gradientUnits="userSpaceOnUse">
<stop stop-color="#3A42F8" stop-opacity="0"/>
<stop offset="1" stop-color="#303493"/>
</linearGradient>
<linearGradient id="paint3_linear_190_2253" x1="116.215" y1="77.6491" x2="149.026" y2="77.6491" gradientUnits="userSpaceOnUse">
<stop/>
<stop offset="1" stop-opacity="0"/>
</linearGradient>
<linearGradient id="paint4_linear_190_2253" x1="76.8594" y1="87.2042" x2="24.3241" y2="87.2042" gradientUnits="userSpaceOnUse">
<stop/>
<stop offset="1" stop-opacity="0"/>
</linearGradient>
<linearGradient id="paint5_linear_190_2253" x1="111.183" y1="77.26" x2="134.514" y2="77.26" gradientUnits="userSpaceOnUse">
<stop/>
<stop offset="1" stop-opacity="0"/>
</linearGradient>
<linearGradient id="paint6_linear_190_2253" x1="61.8012" y1="79.7822" x2="72.9794" y2="90.9693" gradientUnits="userSpaceOnUse">
<stop stop-opacity="0"/>
<stop offset="1"/>
</linearGradient>
<linearGradient id="paint7_linear_190_2253" x1="104.879" y1="182.829" x2="104.879" y2="221.264" gradientUnits="userSpaceOnUse">
<stop stop-opacity="0"/>
<stop offset="1"/>
</linearGradient>
<linearGradient id="paint8_linear_190_2253" x1="321.119" y1="140.316" x2="261.734" y2="80.8839" gradientUnits="userSpaceOnUse">
<stop stop-color="#F0B90B"/>
<stop offset="1" stop-color="#F8D33A"/>
</linearGradient>
<linearGradient id="paint9_linear_190_2253" x1="238.994" y1="137.536" x2="264.444" y2="163.007" gradientUnits="userSpaceOnUse">
<stop stop-color="#1E2026"/>
<stop offset="1"/>
</linearGradient>
<linearGradient id="paint10_linear_190_2253" x1="265.753" y1="210.362" x2="251.942" y2="175.024" gradientUnits="userSpaceOnUse">
<stop stop-color="#0B74F0"/>
<stop offset="1" stop-color="#120EE3"/>
</linearGradient>
<linearGradient id="paint11_linear_190_2253" x1="230.652" y1="51.717" x2="242.114" y2="9.72061" gradientUnits="userSpaceOnUse">
<stop stop-color="#0B74F0"/>
<stop offset="1" stop-color="#120EE3"/>
</linearGradient>
</defs>
</svg>
