<svg width="56" height="53" viewBox="0 0 56 53" fill="none" xmlns="http://www.w3.org/2000/svg">
<path opacity="0.3" d="M46.6641 2.99968L49.3308 5.66635L51.9974 2.99968L49.3308 0.333008L46.6641 2.99968Z" fill="#AEB4BC"/>
<path opacity="0.3" d="M0.664062 24.333L2.66406 26.333L4.66406 24.333L2.66406 22.333L0.664062 24.333Z" fill="#AEB4BC"/>
<path opacity="0.3" d="M53.9961 32.333H55.9961V30.333H53.9961V32.333Z" fill="#AEB4BC"/>
<path d="M29.3307 31.0003C30.8035 31.0003 31.9974 29.8064 31.9974 28.3337C31.9974 26.8609 30.8035 25.667 29.3307 25.667C27.858 25.667 26.6641 26.8609 26.6641 28.3337C26.6641 29.8064 27.858 31.0003 29.3307 31.0003Z" fill="url(#paint0_linear_79_2356)"/>
<path opacity="0.3" d="M21.3301 33L29.3301 41L37.3301 33V53H21.3301V33Z" fill="#AEB4BC"/>
<path d="M21.3301 33H15.9968C10.1057 33 5.33008 37.7756 5.33008 43.6667V53H21.3301V33Z" fill="url(#paint1_linear_79_2356)"/>
<path d="M37.3301 33V53H53.3301V43.6667C53.3301 37.7756 48.5545 33 42.6634 33H37.3301Z" fill="url(#paint2_linear_79_2356)"/>
<path d="M19.3308 12.9996C19.3308 7.47684 23.8079 2.99968 29.3308 2.99968C34.8536 2.99968 39.3308 7.47684 39.3308 12.9996V14.333H41.9974V12.9996C41.9974 6.00407 36.3264 0.333008 29.3308 0.333008C22.3351 0.333008 16.6641 6.00407 16.6641 12.9996V14.333H19.3308V12.9996Z" fill="url(#paint3_linear_79_2356)"/>
<path d="M44.6634 20.9048C44.6634 22.7984 43.0716 24.3334 41.1079 24.3334H39.3301V14H41.1079C43.0716 14 44.6634 15.5351 44.6634 17.4286V20.9048Z" fill="url(#paint4_linear_79_2356)"/>
<path d="M13.9971 20.9048C13.9971 22.7984 15.5889 24.3334 17.5526 24.3334H19.3304V14H17.5526C15.5889 14 13.9971 15.5351 13.9971 17.4286V20.9048Z" fill="url(#paint5_linear_79_2356)"/>
<defs>
<linearGradient id="paint0_linear_79_2356" x1="29.3307" y1="25.667" x2="29.3307" y2="31.0004" gradientUnits="userSpaceOnUse">
<stop stop-color="#F0B90B"/>
<stop offset="1" stop-color="#F8D33A"/>
</linearGradient>
<linearGradient id="paint1_linear_79_2356" x1="29.3301" y1="53" x2="29.3301" y2="33" gradientUnits="userSpaceOnUse">
<stop stop-color="#76808F"/>
<stop offset="1" stop-color="#929AA5"/>
</linearGradient>
<linearGradient id="paint2_linear_79_2356" x1="29.3301" y1="53" x2="29.3301" y2="33" gradientUnits="userSpaceOnUse">
<stop stop-color="#76808F"/>
<stop offset="1" stop-color="#929AA5"/>
</linearGradient>
<linearGradient id="paint3_linear_79_2356" x1="29.3308" y1="0.333008" x2="29.3308" y2="14.333" gradientUnits="userSpaceOnUse">
<stop stop-color="#929AA5"/>
<stop offset="1" stop-color="#76808F"/>
</linearGradient>
<linearGradient id="paint4_linear_79_2356" x1="41.9968" y1="24.3334" x2="41.9968" y2="14" gradientUnits="userSpaceOnUse">
<stop stop-color="#F0B90B"/>
<stop offset="1" stop-color="#F8D33A"/>
</linearGradient>
<linearGradient id="paint5_linear_79_2356" x1="16.6637" y1="24.3334" x2="16.6637" y2="14" gradientUnits="userSpaceOnUse">
<stop stop-color="#F0B90B"/>
<stop offset="1" stop-color="#F8D33A"/>
</linearGradient>
</defs>
</svg>
