<svg width="106" height="89" viewBox="0 0 106 89" fill="none" xmlns="http://www.w3.org/2000/svg">
<g id="Page-1">
<g id="008---Certificate">
<path id="Shape" d="M78.5862 80.4138H98.6897C102.727 80.4138 106 77.1408 106 73.1035V7.31035C106 3.27295 102.727 0 98.6897 0H7.31034C3.27295 0 0 3.27295 0 7.31035V73.1035C0 77.1408 3.27295 80.4138 7.31034 80.4138H78.5862Z" fill="url(#paint0_linear_1341_923)"/>
<path id="Shape_2" d="M65.7929 65.793H18.2757C14.2383 65.793 10.9653 62.5201 10.9653 58.4827V21.931C10.9653 17.8936 14.2383 14.6206 18.2757 14.6206H65.7929V65.793Z" fill="white"/>
<path id="Shape_3" d="M65.7929 67.6208H18.2756C13.2314 67.6148 9.14374 63.5271 9.1377 58.4829V21.9311C9.14374 16.8869 13.2314 12.7993 18.2756 12.7932H65.7929C66.8022 12.7932 67.6205 13.6115 67.6205 14.6208V65.7932C67.6205 66.8026 66.8022 67.6208 65.7929 67.6208ZM18.2756 16.4484C15.2476 16.4484 12.7929 18.9031 12.7929 21.9311V58.4829C12.7929 61.5109 15.2476 63.9656 18.2756 63.9656H63.9653V16.4484H18.2756Z" fill="white"/>
<g id="Group">
<path id="Shape_4" d="M45.6897 42.0343H20.1035C19.0941 42.0343 18.2759 41.2161 18.2759 40.2067C18.2759 39.1974 19.0941 38.3792 20.1035 38.3792H45.6897C46.699 38.3792 47.5173 39.1974 47.5173 40.2067C47.5173 41.2161 46.699 42.0343 45.6897 42.0343Z" fill="#547580"/>
<path id="Shape_5" d="M45.6897 34.724H20.1035C19.0941 34.724 18.2759 33.9058 18.2759 32.8964C18.2759 31.8871 19.0941 31.0688 20.1035 31.0688H45.6897C46.699 31.0688 47.5173 31.8871 47.5173 32.8964C47.5173 33.9058 46.699 34.724 45.6897 34.724Z" fill="#547580"/>
<path id="Shape_6" d="M45.6897 27.4137H20.1035C19.0941 27.4137 18.2759 26.5955 18.2759 25.5861C18.2759 24.5768 19.0941 23.7585 20.1035 23.7585H45.6897C46.699 23.7585 47.5173 24.5768 47.5173 25.5861C47.5173 26.5955 46.699 27.4137 45.6897 27.4137Z" fill="#547580"/>
<path id="Shape_7" d="M20.1032 60.3103C19.237 60.3113 18.4891 59.704 18.3122 58.8561C18.1352 58.0081 18.5779 57.1524 19.3722 56.8069C20.6466 56.3509 21.8244 55.6603 22.8446 54.7709C23.7778 53.8548 24.2899 52.5931 24.2592 51.2857C24.2039 50.3812 24.8198 49.5728 25.7065 49.3859C26.5932 49.1991 27.4829 49.6902 27.7974 50.5401C28.3498 52.1879 29.4578 53.5924 30.9317 54.5132C31.2793 54.7671 31.7109 54.8782 32.1379 54.8239C32.4097 54.6434 32.5661 54.3328 32.5491 54.007C32.4853 53.1012 33.0962 52.286 33.9834 52.0928C34.8707 51.8997 35.7652 52.3872 36.0837 53.2376C36.2664 53.7219 36.7032 54.4091 38.4083 54.802L39.8211 55.1364C42.2771 55.8725 44.8309 56.2299 47.3946 56.1964C48.4014 56.1238 49.2765 56.881 49.3492 57.8879C49.4219 58.8947 48.6646 59.7698 47.6578 59.8425C44.7198 59.9055 41.7896 59.5171 38.9694 58.6911L37.5878 58.364C36.6338 58.1614 35.7227 57.7933 34.8957 57.2765C34.4837 57.7008 33.985 58.0311 33.4337 58.2452C31.9954 58.7295 30.4145 58.5274 29.1443 57.6969C28.2336 57.1742 27.4133 56.5077 26.7154 55.7231C26.3573 56.3213 25.9277 56.8736 25.4361 57.3679C24.0964 58.586 22.5337 59.5337 20.8343 60.1586C20.6039 60.2598 20.3548 60.3115 20.1032 60.3103Z" fill="#547580"/>
</g>
<path id="Shape_8" d="M87 44.3982V86.9459C86.9998 87.6861 86.3907 88.3533 85.4566 88.6365C84.5226 88.9198 83.4475 88.7632 82.7325 88.2399L77 84.043L71.2675 88.2399C70.5525 88.7632 69.4774 88.9198 68.5434 88.6365C67.6093 88.3533 67.0002 87.6861 67 86.9459V43.7759C67.7121 44.2916 68.6733 44.581 69.675 44.5812C70.1284 44.581 70.5777 44.5189 71 44.3982C71.421 44.2742 71.8712 44.2121 72.325 44.2152C73.8288 44.222 75.1921 44.8637 75.825 45.8624C76.4467 46.8574 77.8055 47.4944 79.3 47.4914C80.2659 47.4942 81.1965 47.2256 81.9 46.741C81.925 46.7227 81.975 46.7044 82 46.6861L87 44.3982Z" fill="#3E3E3E"/>
<path id="Shape_9" d="M97.9404 31.142C98.4243 31.6563 98.6925 32.3366 98.6897 33.0427C98.6927 34.1352 98.0567 35.1286 97.0632 35.5831C96.0659 36.0457 95.4252 37.0424 95.4183 38.1417C95.4152 38.4734 95.4773 38.8025 95.6011 39.1103C95.7217 39.419 95.7836 39.7475 95.7839 40.0789C95.7762 41.5848 94.5838 42.8174 93.079 42.8751C91.6181 42.9287 90.4461 44.1007 90.3925 45.5617C90.3764 46.2819 90.0738 46.9659 89.5518 47.4624C89.0312 47.9774 88.3286 48.2663 87.5963 48.2665C87.2649 48.2663 86.9364 48.2043 86.6277 48.0838C86.3199 47.96 85.9908 47.8979 85.659 47.901C84.5597 47.9079 83.5631 48.5486 83.1004 49.5458C82.6459 50.5393 81.6526 51.1754 80.5601 51.1724C79.8539 51.1752 79.1737 50.907 78.6594 50.4231C77.617 49.4453 76.0018 49.4216 74.9311 50.3683C74.9128 50.3865 74.8763 50.4048 74.858 50.4231C74.3437 50.907 73.6634 51.1752 72.9573 51.1724C71.8648 51.1754 70.8715 50.5393 70.417 49.5458C69.9543 48.5486 68.9577 47.9079 67.8583 47.901C67.5266 47.8979 67.1975 47.96 66.8897 48.0838C66.581 48.2043 66.2525 48.2663 65.9211 48.2665C65.1888 48.2663 64.4862 47.9774 63.9656 47.4624C63.4436 46.9659 63.141 46.2819 63.1249 45.5617C63.0713 44.1007 61.8993 42.9287 60.4383 42.8751C58.9336 42.8174 57.7412 41.5848 57.7335 40.0789C57.7338 39.7475 57.7957 39.419 57.9163 39.1103C58.04 38.8025 58.1021 38.4734 58.099 38.1417C58.0922 37.0424 57.4515 36.0457 56.4542 35.5831C55.4607 35.1286 54.8247 34.1352 54.8277 33.0427C54.8249 32.3366 55.0931 31.6563 55.577 31.142C56.5761 30.0719 56.5761 28.4109 55.577 27.3407C55.0931 26.8264 54.8249 26.1461 54.8277 25.44C54.8247 24.3475 55.4607 23.3541 56.4542 22.8996C57.4515 22.437 58.0922 21.4404 58.099 20.341C58.1021 20.0093 58.04 19.6802 57.9163 19.3724C57.7957 19.0637 57.7338 18.7352 57.7335 18.4038C57.7412 16.8979 58.9336 15.6653 60.4383 15.6076C61.8993 15.554 63.0713 14.382 63.1249 12.921C63.1826 11.4162 64.4152 10.2239 65.9211 10.2162C66.2525 10.2164 66.581 10.2784 66.8897 10.3989C67.1975 10.5227 67.5266 10.5848 67.8583 10.5817C68.9577 10.5748 69.9543 9.93415 70.417 8.93688C70.8715 7.94339 71.8648 7.30736 72.9573 7.31032C73.6634 7.30755 74.3437 7.57574 74.858 8.05963C75.9282 9.05874 77.5892 9.05874 78.6594 8.05963C79.3159 7.45017 80.2247 7.19219 81.1036 7.36579C81.9824 7.53938 82.7249 8.12355 83.1004 8.93688C83.5631 9.93415 84.5597 10.5748 85.659 10.5817C85.9908 10.5848 86.3199 10.5227 86.6277 10.3989C86.9364 10.2784 87.2649 10.2164 87.5963 10.2162C89.1021 10.2239 90.3348 11.4162 90.3925 12.921C90.4461 14.382 91.6181 15.554 93.079 15.6076C94.5838 15.6653 95.7762 16.8979 95.7839 18.4038C95.7836 18.7352 95.7217 19.0637 95.6011 19.3724C95.4773 19.6802 95.4152 20.0093 95.4183 20.341C95.4252 21.4404 96.0659 22.437 97.0632 22.8996C98.0567 23.3541 98.6927 24.3475 98.6897 25.44C98.6925 26.1461 98.4243 26.8264 97.9404 27.3407C96.9413 28.4109 96.9413 30.0719 97.9404 31.142Z" fill="url(#paint1_linear_1341_923)"/>
<path id="Oval" d="M76.7584 42.0344C83.8239 42.0344 89.5515 36.3068 89.5515 29.2413C89.5515 22.1759 83.8239 16.4482 76.7584 16.4482C69.693 16.4482 63.9653 22.1759 63.9653 29.2413C63.9653 36.3068 69.693 42.0344 76.7584 42.0344Z" fill="white"/>
<path id="Shape_10" d="M76.7584 43.862C68.6836 43.862 62.1377 37.3161 62.1377 29.2413C62.1377 21.1665 68.6836 14.6206 76.7584 14.6206C84.8332 14.6206 91.3791 21.1665 91.3791 29.2413C91.37 37.3123 84.8294 43.8529 76.7584 43.862ZM76.7584 18.2758C70.7023 18.2758 65.7929 23.1852 65.7929 29.2413C65.7929 35.2974 70.7023 40.2068 76.7584 40.2068C82.8145 40.2068 87.7239 35.2974 87.7239 29.2413C87.7179 23.1877 82.812 18.2818 76.7584 18.2758Z" fill="url(#paint2_linear_1341_923)"/>
</g>
</g>
<defs>
<linearGradient id="paint0_linear_1341_923" x1="32.2478" y1="80.4138" x2="57.5118" y2="-4.81448" gradientUnits="userSpaceOnUse">
<stop stop-color="#0B74F0"/>
<stop offset="1" stop-color="#120EE3"/>
</linearGradient>
<linearGradient id="paint1_linear_1341_923" x1="76.7587" y1="7.3103" x2="76.7587" y2="51.1724" gradientUnits="userSpaceOnUse">
<stop stop-color="#E6E6E6"/>
<stop offset="1" stop-color="#AAAAAA"/>
</linearGradient>
<linearGradient id="paint2_linear_1341_923" x1="76.7584" y1="14.6206" x2="76.7584" y2="43.862" gradientUnits="userSpaceOnUse">
<stop stop-color="#868686"/>
<stop offset="1" stop-color="#AAAAAA"/>
</linearGradient>
</defs>
</svg>
