<svg width="125" height="126" viewBox="0 0 125 126" fill="none" xmlns="http://www.w3.org/2000/svg">
<g id="certificate 1" clip-path="url(#clip0_1804_1367)">
<g id="Group">
<g id="Group_2">
<path id="Vector" d="M115.356 89.7451H9.64436C4.31789 89.7451 0 85.3927 0 80.0236V11.6629C0 6.29384 4.31789 1.94141 9.64436 1.94141H115.356C120.682 1.94141 125 6.29384 125 11.6629V80.0236C125 85.3927 120.682 89.7451 115.356 89.7451Z" fill="url(#paint0_linear_1804_1367)"/>
<path id="Vector_2" d="M0 29.1665V61.5535L59.139 1.94141H27.0091L0 29.1665Z" fill="url(#paint1_linear_1804_1367)"/>
<path id="Vector_3" d="M0 48.8506V80.024C0 85.3931 4.31789 89.7455 9.64436 89.7455H115.356C120.682 89.7455 125 85.3931 125 80.024V48.8506H0Z" fill="url(#paint2_linear_1804_1367)"/>
<path id="Vector_4" d="M36.9189 89.7454H74.9964L48.7964 63.3358L45.492 62.8987L36.9189 54.2568V89.7454Z" fill="url(#paint3_linear_1804_1367)"/>
<path id="Vector_5" d="M110.656 8.19531H14.3432C9.65133 8.19531 5.84766 12.0361 5.84766 16.7739V74.9121C5.84766 79.6499 9.65109 83.4907 14.343 83.4907H110.656C115.348 83.4907 119.152 79.6499 119.152 74.9121V16.7739C119.152 12.0361 115.348 8.19531 110.656 8.19531Z" fill="url(#paint4_linear_1804_1367)"/>
<path id="Vector_6" d="M5.84766 23.2718V55.6588L52.9342 8.19531H20.8045L5.84766 23.2718Z" fill="url(#paint5_linear_1804_1367)"/>
<path id="Vector_7" d="M36.9189 83.4913H68.792L48.7964 63.3358L45.492 62.8987L36.9189 54.2568V83.4913Z" fill="url(#paint6_linear_1804_1367)"/>
</g>
<g id="Group_3">
<g id="Group_4">
<path id="Vector_8" d="M15.7787 33.7427C17.4066 33.7427 17.464 34.9782 17.4831 35.48C17.5213 36.175 18.1725 36.3874 18.9769 36.3874C19.9921 36.3874 20.4708 36.1172 20.4708 34.959C20.4708 32.5071 18.4027 31.1172 15.6637 31.1172C13.1549 31.1172 11.0674 32.3527 11.0674 35.673V40.7888C11.0674 44.1093 13.1549 45.3448 15.6637 45.3448C18.4027 45.3448 20.4708 43.8778 20.4708 41.3101C20.4708 40.1519 19.9921 39.8816 18.9578 39.8816C18.1919 39.8816 17.5407 40.0746 17.4831 40.7888C17.4257 41.5418 17.3299 42.7193 15.7978 42.7193C14.687 42.7193 14.0549 42.1014 14.0549 40.7888V35.673C14.0549 34.3603 14.687 33.7427 15.7787 33.7427Z" fill="url(#paint7_linear_1804_1367)"/>
<path id="Vector_9" d="M30.1045 33.7427C30.6792 33.7427 31.0047 33.1248 31.0047 32.4105C31.0047 31.7926 30.7366 31.1172 30.1045 31.1172H23.2866C22.6354 31.1172 21.9844 31.426 21.9844 32.0437V44.3025C21.9844 44.9204 22.6354 45.2292 23.2866 45.2292H30.1045C30.7366 45.2292 31.0047 44.5535 31.0047 43.9358C31.0047 43.2213 30.6792 42.6037 30.1045 42.6037H24.9719V39.3218H27.8449C28.4768 39.3218 28.7449 38.7041 28.7449 38.1828C28.7449 37.5652 28.4194 37.0051 27.8449 37.0051H24.9719V33.7427H30.1045Z" fill="url(#paint8_linear_1804_1367)"/>
<path id="Vector_10" d="M39.5846 39.1674C40.9253 38.6463 41.902 37.4108 41.902 35.2485C41.902 32.1017 39.8142 31.1172 37.1905 31.1172H33.226C32.6704 31.1172 32.3066 31.5419 32.3066 32.0244V44.3025C32.3066 44.9204 33.0535 45.2292 33.8005 45.2292C34.5476 45.2292 35.2944 44.9204 35.2944 44.3025V39.6499H36.5584L39.1821 44.7852C39.3929 45.1906 39.7569 45.3451 40.1397 45.3451C41.0209 45.3451 42.0167 44.5342 42.0167 43.7814C42.0167 43.6848 41.9976 43.5497 41.9209 43.4341L39.5846 39.1674ZM37.1905 37.3337H35.2944V33.7429H37.1905C38.263 33.7429 38.914 34.1869 38.914 35.5383C38.914 36.8897 38.263 37.3337 37.1905 37.3337Z" fill="url(#paint9_linear_1804_1367)"/>
<path id="Vector_11" d="M51.6311 31.1172H43.3573C42.7252 31.1172 42.457 31.8119 42.457 32.4493C42.457 33.1828 42.7825 33.82 43.3573 33.82H46.0002V44.3027C46.0002 44.9206 46.7472 45.2294 47.494 45.2294C48.2411 45.2294 48.9879 44.9206 48.9879 44.3027V33.82H51.6311C52.2056 33.82 52.5311 33.1828 52.5311 32.4493C52.5311 31.8122 52.2629 31.1172 51.6311 31.1172Z" fill="url(#paint10_linear_1804_1367)"/>
<path id="Vector_12" d="M55.2126 31.1172C54.4656 31.1172 53.7188 31.3875 53.7188 32.0244V44.3025C53.7188 44.9204 54.4656 45.2292 55.2126 45.2292C55.9597 45.2292 56.7065 44.9204 56.7065 44.3025V32.0244C56.7063 31.3875 55.9594 31.1172 55.2126 31.1172Z" fill="url(#paint11_linear_1804_1367)"/>
<path id="Vector_13" d="M66.7222 31.1172H60.0766C59.4254 31.1172 58.7744 31.426 58.7744 32.0437V44.3025C58.7744 44.9204 59.5212 45.2292 60.2683 45.2292C61.0153 45.2292 61.7622 44.9204 61.7622 44.3025V39.3218H64.6543C65.2862 39.3218 65.5543 38.7041 65.5543 38.1828C65.5543 37.5652 65.2288 37.0051 64.6543 37.0051H61.7622V33.7427H66.7225C67.2972 33.7427 67.6227 33.1248 67.6227 32.4105C67.6225 31.7929 67.3546 31.1172 66.7222 31.1172Z" fill="url(#paint12_linear_1804_1367)"/>
<path id="Vector_14" d="M70.1316 31.1172C69.3845 31.1172 68.6377 31.3875 68.6377 32.0244V44.3025C68.6377 44.9204 69.3845 45.2292 70.1316 45.2292C70.8786 45.2292 71.6254 44.9204 71.6254 44.3025V32.0244C71.6252 31.3875 70.8786 31.1172 70.1316 31.1172Z" fill="url(#paint13_linear_1804_1367)"/>
<path id="Vector_15" d="M78.2523 33.7427C79.8802 33.7427 79.9376 34.9782 79.9567 35.48C79.9949 36.175 80.6462 36.3874 81.4506 36.3874C82.4658 36.3874 82.9444 36.1172 82.9444 34.959C82.9444 32.5071 80.8763 31.1172 78.1373 31.1172C75.6285 31.1172 73.541 32.3527 73.541 35.673V40.7888C73.541 44.1093 75.6285 45.3448 78.1373 45.3448C80.8763 45.3448 82.9444 43.8778 82.9444 41.3101C82.9444 40.1519 82.4658 39.8816 81.4315 39.8816C80.6655 39.8816 80.0143 40.0746 79.9567 40.7888C79.8993 41.5418 79.8035 42.7193 78.2714 42.7193C77.1606 42.7193 76.5285 42.1014 76.5285 40.7888V35.673C76.5283 34.3603 77.1604 33.7427 78.2523 33.7427Z" fill="url(#paint14_linear_1804_1367)"/>
<path id="Vector_16" d="M91.0076 32.0048C90.7971 31.3293 89.9351 31.001 89.0542 31.001C88.173 31.001 87.3113 31.3293 87.1005 32.0048L83.5382 43.7811C83.5191 43.8582 83.5 43.9355 83.5 43.9933C83.5 44.7078 84.5917 45.2288 85.4152 45.2288C85.8939 45.2288 86.277 45.0744 86.3917 44.669L87.0429 42.2557H91.0838L91.7351 44.669C91.85 45.0744 92.2328 45.2288 92.7118 45.2288C93.5351 45.2288 94.6267 44.7078 94.6267 43.9933C94.6267 43.9355 94.6076 43.8582 94.5885 43.7811L91.0076 32.0048ZM87.6559 39.9393L89.0542 34.7657L90.4522 39.9393H87.6559Z" fill="url(#paint15_linear_1804_1367)"/>
<path id="Vector_17" d="M102.824 31.1172H94.5506C93.9185 31.1172 93.6504 31.8119 93.6504 32.4493C93.6504 33.1828 93.9759 33.82 94.5506 33.82H97.1935V44.3027C97.1935 44.9206 97.9406 45.2294 98.6874 45.2294C99.4345 45.2294 100.181 44.9206 100.181 44.3027V33.82H102.824C103.399 33.82 103.724 33.1828 103.724 32.4493C103.724 31.8122 103.457 31.1172 102.824 31.1172Z" fill="url(#paint16_linear_1804_1367)"/>
<path id="Vector_18" d="M113.032 42.6037H107.9V39.3218H110.773C111.405 39.3218 111.673 38.7041 111.673 38.1828C111.673 37.5652 111.347 37.0051 110.773 37.0051H107.9V33.7427H113.032C113.607 33.7427 113.932 33.1248 113.932 32.4105C113.932 31.7926 113.664 31.1172 113.032 31.1172H106.214C105.563 31.1172 104.912 31.426 104.912 32.0437V44.3025C104.912 44.9204 105.563 45.2292 106.214 45.2292H113.032C113.664 45.2292 113.932 44.5535 113.932 43.9358C113.933 43.2213 113.607 42.6037 113.032 42.6037Z" fill="url(#paint17_linear_1804_1367)"/>
</g>
<g id="Group_5">
<g id="Group_6">
<path id="Vector_19" d="M50.3068 65.9951H62.1058C63.5433 65.9951 64.7085 67.1696 64.7085 68.6186C64.7085 70.0676 63.5433 71.2422 62.1058 71.2422H50.3068C48.8693 71.2422 47.7041 70.0676 47.7041 68.6186C47.7041 67.1699 48.8693 65.9951 50.3068 65.9951Z" fill="#26A6FE"/>
<path id="Vector_20" d="M68.5264 68.6186C68.5264 67.1696 69.6916 65.9951 71.1291 65.9951H74.0788C75.5163 65.9951 76.6815 67.1696 76.6815 68.6186C76.6815 70.0676 75.5163 71.2422 74.0788 71.2422H71.1291C69.6916 71.2422 68.5264 70.0676 68.5264 68.6186Z" fill="#26A6FE"/>
</g>
<path id="Vector_21" d="M82.2895 58.8828H42.0959C40.6584 58.8828 39.4932 57.7083 39.4932 56.2593C39.4932 54.8103 40.6584 53.6357 42.0959 53.6357H82.2893C83.7268 53.6357 84.8919 54.8105 84.8919 56.2593C84.8922 57.7083 83.727 58.8828 82.2895 58.8828Z" fill="#26A6FE"/>
</g>
<path id="Vector_22" d="M56.2931 20.4434H68.0921C69.5296 20.4434 70.6948 21.6179 70.6948 23.0669C70.6948 24.5159 69.5296 25.6904 68.0921 25.6904H56.2931C54.8556 25.6904 53.6904 24.5159 53.6904 23.0669C53.6904 21.6179 54.8556 20.4434 56.2931 20.4434Z" fill="url(#paint18_linear_1804_1367)"/>
</g>
<g id="Group_7">
<path id="Vector_23" d="M9.62305 120.861C9.62305 123.248 12.4804 124.497 14.1748 122.83C14.1873 122.817 14.1998 122.805 14.2123 122.792L15.9721 121.018C17.6488 119.328 20.3669 119.328 22.0436 121.018L23.8034 122.792C25.4802 124.482 28.1983 124.482 29.875 122.792L31.6348 121.018C33.3115 119.328 36.0297 119.328 37.7064 121.018L39.4662 122.792C39.4787 122.805 39.4909 122.817 39.5037 122.83C41.198 124.497 44.0554 123.248 44.0554 120.861V78.1377H9.62305V120.861Z" fill="url(#paint19_linear_1804_1367)"/>
<path id="Vector_24" d="M13.8369 85.8896V101.098L32.782 120.195C34.3847 119.403 36.3737 119.675 37.7063 121.018L39.4661 122.792C39.4786 122.805 39.4911 122.817 39.5033 122.829C41.1977 124.497 44.0551 123.248 44.0551 120.861V85.8896H13.8369Z" fill="url(#paint20_linear_1804_1367)"/>
<g id="Group_8">
<path id="Vector_25" d="M19.8047 78.1377H9.62305V120.861C9.62305 123.248 12.4804 124.497 14.1748 122.83C14.1873 122.818 14.1998 122.805 14.2123 122.793L15.9721 121.019C17.014 119.968 18.4581 119.572 19.8047 119.827V78.1377Z" fill="url(#paint21_linear_1804_1367)"/>
<path id="Vector_26" d="M33.874 78.1377V119.827C35.2206 119.572 36.6647 119.968 37.7066 121.018L39.4664 122.792C39.4789 122.805 39.4914 122.817 39.5037 122.83C41.198 124.497 44.0554 123.248 44.0554 120.861V78.1377H33.874Z" fill="url(#paint22_linear_1804_1367)"/>
<path id="Vector_27" d="M33.874 78.1377V119.827C35.2206 119.572 36.6647 119.968 37.7066 121.018L39.4664 122.792C39.4789 122.805 39.4914 122.817 39.5037 122.83C41.198 124.497 44.0554 123.248 44.0554 120.861V78.1377H33.874Z" fill="url(#paint23_linear_1804_1367)"/>
</g>
<path id="Vector_28" d="M19.8047 85.8896H9.62305V96.8262L19.8047 107.114V85.8896Z" fill="url(#paint24_linear_1804_1367)"/>
<g id="Group_9">
<path id="Vector_29" d="M52.4374 81.9147L50.0134 84.4014C49.0612 85.3783 48.6192 86.7492 48.8202 88.1036L49.3313 91.5503C49.6803 93.9048 48.0925 96.1063 45.7629 96.4979L42.3545 97.0708C41.0119 97.2964 39.8528 98.1458 39.2256 99.3633L37.6362 102.449C36.5467 104.564 33.9746 105.406 31.8602 104.34L28.7746 102.785C27.5563 102.171 26.1222 102.171 24.9038 102.785L21.8183 104.34C19.7036 105.406 17.1317 104.564 16.0423 102.449L14.4528 99.3633C13.8256 98.1455 12.6665 97.2964 11.3239 97.0708L7.91557 96.4979C5.58615 96.1063 3.99816 93.9048 4.34718 91.5503L4.85821 88.1036C5.05895 86.7492 4.61728 85.3783 3.66507 84.4014L1.24081 81.9147C-0.413603 80.2177 -0.413603 77.4971 1.24081 75.8L3.66483 73.3134C4.61703 72.3365 5.05895 70.9656 4.85821 69.6112L4.34718 66.1645C3.99816 63.81 5.58591 61.6085 7.91557 61.2169L11.3239 60.644C12.6665 60.4184 13.8256 59.569 14.4528 58.3515L16.0423 55.266C17.1317 53.1509 19.7038 52.3087 21.8183 53.3745L24.9038 54.9297C26.1222 55.5439 27.5563 55.5439 28.7746 54.9297L31.8602 53.3745C33.9749 52.3087 36.5467 53.1509 37.6362 55.266L39.2256 58.3515C39.8528 59.5693 41.0119 60.4184 42.3545 60.644L45.7629 61.2169C48.0923 61.6085 49.6803 63.81 49.3313 66.1645L48.8202 69.6112C48.6195 70.9656 49.0612 72.3365 50.0134 73.3134L52.4376 75.8C54.0918 77.4971 54.0918 80.2177 52.4374 81.9147Z" fill="url(#paint25_linear_1804_1367)"/>
<path id="Vector_30" d="M26.8389 98.2026C37.438 98.2026 46.0303 89.5416 46.0303 78.8577C46.0303 68.1737 37.438 59.5127 26.8389 59.5127C16.2398 59.5127 7.64746 68.1737 7.64746 78.8577C7.64746 89.5416 16.2398 98.2026 26.8389 98.2026Z" fill="url(#paint26_linear_1804_1367)"/>
<path id="Vector_31" d="M26.8396 95.3581C35.8804 95.3581 43.2094 87.9704 43.2094 78.8573C43.2094 69.7441 35.8804 62.3564 26.8396 62.3564C17.7988 62.3564 10.4697 69.7441 10.4697 78.8573C10.4697 87.9704 17.7988 95.3581 26.8396 95.3581Z" fill="url(#paint27_linear_1804_1367)"/>
<path id="Vector_32" d="M3.66495 84.4014C4.61716 85.3783 5.05907 86.7492 4.85809 88.1036L4.34706 91.5503C3.99804 93.9048 5.58578 96.1063 7.91544 96.4979L11.3238 97.0708C12.6664 97.2964 13.8255 98.1458 14.4527 99.3633L16.0422 102.449C17.1316 104.564 19.7037 105.406 21.8181 104.34L24.9037 102.785C26.1221 102.171 27.5561 102.171 28.7745 102.785L31.8601 104.34C33.9748 105.406 36.5466 104.564 37.6363 102.449L39.2257 99.3633C39.8529 98.1456 41.012 97.2964 42.3547 97.0708L45.763 96.4979C48.0924 96.1063 49.6804 93.9048 49.3314 91.5503L48.8203 88.1036C48.6196 86.7492 49.0613 85.3783 50.0137 84.4014L52.438 81.9148C53.2652 81.0661 53.6787 79.9618 53.6787 78.8574H0C0 79.9618 0.41348 81.0661 1.24069 81.9148L3.66495 84.4014Z" fill="url(#paint28_linear_1804_1367)"/>
</g>
</g>
<path id="Vector_33" d="M92.9727 1.94141L125 34.2251V17.43L109.634 1.94141H92.9727Z" fill="url(#paint29_linear_1804_1367)"/>
<path id="Vector_34" d="M32.0277 1.94141L0 34.2251V17.43L15.3659 1.94141H32.0277Z" fill="url(#paint30_linear_1804_1367)"/>
</g>
</g>
<defs>
<linearGradient id="paint0_linear_1804_1367" x1="33.3333" y1="16.4433" x2="139.27" y2="121.539" gradientUnits="userSpaceOnUse">
<stop stop-color="#26A6FE"/>
<stop offset="1" stop-color="#2740B0"/>
</linearGradient>
<linearGradient id="paint1_linear_1804_1367" x1="21.9811" y1="24.0981" x2="14.9305" y2="17.1038" gradientUnits="userSpaceOnUse">
<stop stop-color="#2740B0" stop-opacity="0"/>
<stop offset="0.2568" stop-color="#253DAA" stop-opacity="0.257"/>
<stop offset="0.6039" stop-color="#213699" stop-opacity="0.604"/>
<stop offset="1" stop-color="#192A7D"/>
</linearGradient>
<linearGradient id="paint2_linear_1804_1367" x1="62.5" y1="78.9493" x2="62.5" y2="90.2235" gradientUnits="userSpaceOnUse">
<stop stop-color="#2740B0" stop-opacity="0"/>
<stop offset="1" stop-color="#192A7D"/>
</linearGradient>
<linearGradient id="paint3_linear_1804_1367" x1="63.0356" y1="107.185" x2="52.9729" y2="82.7824" gradientUnits="userSpaceOnUse">
<stop stop-color="#2740B0" stop-opacity="0"/>
<stop offset="1" stop-color="#192A7D"/>
</linearGradient>
<linearGradient id="paint4_linear_1804_1367" x1="48.3094" y1="19.5852" x2="83.0467" y2="82.8468" gradientUnits="userSpaceOnUse">
<stop stop-color="white"/>
<stop offset="1" stop-color="#D8ECFE"/>
</linearGradient>
<linearGradient id="paint5_linear_1804_1367" x1="20.2501" y1="22.7132" x2="13.3554" y2="15.873" gradientUnits="userSpaceOnUse">
<stop stop-color="#A8D3D8" stop-opacity="0"/>
<stop offset="1" stop-color="#6CABCA"/>
</linearGradient>
<linearGradient id="paint6_linear_1804_1367" x1="63.7746" y1="93.4164" x2="25.2508" y2="57.1582" gradientUnits="userSpaceOnUse">
<stop stop-color="#A8D3D8" stop-opacity="0"/>
<stop offset="1" stop-color="#6CABCA"/>
</linearGradient>
<linearGradient id="paint7_linear_1804_1367" x1="16.0784" y1="39.7734" x2="20.0611" y2="62.2449" gradientUnits="userSpaceOnUse">
<stop stop-color="#5A5A5A"/>
<stop offset="1" stop-color="#444444"/>
</linearGradient>
<linearGradient id="paint8_linear_1804_1367" x1="26.4312" y1="37.9385" x2="30.4138" y2="60.41" gradientUnits="userSpaceOnUse">
<stop stop-color="#5A5A5A"/>
<stop offset="1" stop-color="#444444"/>
</linearGradient>
<linearGradient id="paint9_linear_1804_1367" x1="36.5137" y1="36.1515" x2="40.4964" y2="58.623" gradientUnits="userSpaceOnUse">
<stop stop-color="#5A5A5A"/>
<stop offset="1" stop-color="#444444"/>
</linearGradient>
<linearGradient id="paint10_linear_1804_1367" x1="47.7904" y1="34.153" x2="51.773" y2="56.6246" gradientUnits="userSpaceOnUse">
<stop stop-color="#5A5A5A"/>
<stop offset="1" stop-color="#444444"/>
</linearGradient>
<linearGradient id="paint11_linear_1804_1367" x1="54.3116" y1="32.9973" x2="58.2943" y2="55.4688" gradientUnits="userSpaceOnUse">
<stop stop-color="#5A5A5A"/>
<stop offset="1" stop-color="#444444"/>
</linearGradient>
<linearGradient id="paint12_linear_1804_1367" x1="62.0352" y1="31.6284" x2="66.0178" y2="54.0999" gradientUnits="userSpaceOnUse">
<stop stop-color="#5A5A5A"/>
<stop offset="1" stop-color="#444444"/>
</linearGradient>
<linearGradient id="paint13_linear_1804_1367" x1="68.7833" y1="30.4323" x2="72.7659" y2="52.9039" gradientUnits="userSpaceOnUse">
<stop stop-color="#5A5A5A"/>
<stop offset="1" stop-color="#444444"/>
</linearGradient>
<linearGradient id="paint14_linear_1804_1367" x1="76.6785" y1="29.033" x2="80.6612" y2="51.5045" gradientUnits="userSpaceOnUse">
<stop stop-color="#5A5A5A"/>
<stop offset="1" stop-color="#444444"/>
</linearGradient>
<linearGradient id="paint15_linear_1804_1367" x1="86.1583" y1="27.3527" x2="90.141" y2="49.8242" gradientUnits="userSpaceOnUse">
<stop stop-color="#5A5A5A"/>
<stop offset="1" stop-color="#444444"/>
</linearGradient>
<linearGradient id="paint16_linear_1804_1367" x1="97.4487" y1="25.3521" x2="101.431" y2="47.8236" gradientUnits="userSpaceOnUse">
<stop stop-color="#5A5A5A"/>
<stop offset="1" stop-color="#444444"/>
</linearGradient>
<linearGradient id="paint17_linear_1804_1367" x1="106.872" y1="23.6817" x2="110.855" y2="46.1532" gradientUnits="userSpaceOnUse">
<stop stop-color="#5A5A5A"/>
<stop offset="1" stop-color="#444444"/>
</linearGradient>
<linearGradient id="paint18_linear_1804_1367" x1="53.6904" y1="23.0671" x2="70.6948" y2="23.0671" gradientUnits="userSpaceOnUse">
<stop stop-color="#FEE45A"/>
<stop offset="1" stop-color="#FEA613"/>
</linearGradient>
<linearGradient id="paint19_linear_1804_1367" x1="15.6071" y1="88.7434" x2="35.3944" y2="108.374" gradientUnits="userSpaceOnUse">
<stop stop-color="white"/>
<stop offset="1" stop-color="#D8ECFE"/>
</linearGradient>
<linearGradient id="paint20_linear_1804_1367" x1="29.8859" y1="116.917" x2="28.8801" y2="92.237" gradientUnits="userSpaceOnUse">
<stop stop-color="#A8D3D8" stop-opacity="0"/>
<stop offset="1" stop-color="#6CABCA"/>
</linearGradient>
<linearGradient id="paint21_linear_1804_1367" x1="9.51594" y1="97.7989" x2="30.4633" y2="107.921" gradientUnits="userSpaceOnUse">
<stop stop-color="#FD4755"/>
<stop offset="1" stop-color="#A72B2B"/>
</linearGradient>
<linearGradient id="paint22_linear_1804_1367" x1="32.1127" y1="93.6651" x2="54.9311" y2="111.092" gradientUnits="userSpaceOnUse">
<stop stop-color="#26A6FE"/>
<stop offset="1" stop-color="#2740B0"/>
</linearGradient>
<linearGradient id="paint23_linear_1804_1367" x1="38.965" y1="111.629" x2="38.965" y2="100.153" gradientUnits="userSpaceOnUse">
<stop stop-color="#2740B0" stop-opacity="0"/>
<stop offset="1" stop-color="#192A7D"/>
</linearGradient>
<linearGradient id="paint24_linear_1804_1367" x1="12.1892" y1="113.483" x2="16.6693" y2="83.8231" gradientUnits="userSpaceOnUse">
<stop stop-color="#A72B2B" stop-opacity="0"/>
<stop offset="1" stop-color="#42210B"/>
</linearGradient>
<linearGradient id="paint25_linear_1804_1367" x1="10.5839" y1="62.4722" x2="52.1737" y2="103.732" gradientUnits="userSpaceOnUse">
<stop stop-color="#FEE45A"/>
<stop offset="1" stop-color="#FEA613"/>
</linearGradient>
<linearGradient id="paint26_linear_1804_1367" x1="45.0082" y1="97.1724" x2="1.05738" y2="53.5703" gradientUnits="userSpaceOnUse">
<stop stop-color="#FEE45A"/>
<stop offset="1" stop-color="#FEA613"/>
</linearGradient>
<linearGradient id="paint27_linear_1804_1367" x1="15.307" y1="67.2322" x2="38.0683" y2="89.8128" gradientUnits="userSpaceOnUse">
<stop stop-color="#FEE45A"/>
<stop offset="1" stop-color="#FEA613"/>
</linearGradient>
<linearGradient id="paint28_linear_1804_1367" x1="26.8392" y1="85.3778" x2="26.8392" y2="110.665" gradientUnits="userSpaceOnUse">
<stop stop-color="#FEA613" stop-opacity="0"/>
<stop offset="1" stop-color="#E94444"/>
</linearGradient>
<linearGradient id="paint29_linear_1804_1367" x1="103.801" y1="4.45894" x2="122.217" y2="22.7285" gradientUnits="userSpaceOnUse">
<stop stop-color="#FD4755"/>
<stop offset="1" stop-color="#A72B2B"/>
</linearGradient>
<linearGradient id="paint30_linear_1804_1367" x1="6.94829" y1="8.94528" x2="19.9661" y2="21.8596" gradientUnits="userSpaceOnUse">
<stop stop-color="#FD4755"/>
<stop offset="1" stop-color="#A72B2B"/>
</linearGradient>
<clipPath id="clip0_1804_1367">
<rect width="125" height="126" fill="white"/>
</clipPath>
</defs>
</svg>
