<svg width="24" height="24" viewBox="0 0 24 24" fill="none" xmlns="http://www.w3.org/2000/svg">
<path d="M14.7273 2.80861e-06C12.986 -0.00135274 11.2796 0.487997 9.80362 1.41195C8.32768 2.33591 7.14199 3.65707 6.38244 5.22397C5.62291 6.79087 5.32028 8.54008 5.50925 10.2711C5.69823 12.0021 6.37117 13.6448 7.45091 15.0109L0.327271 22.1345L1.86545 23.6727L8.98909 16.5491C10.15 17.4647 11.513 18.0892 12.9645 18.3708C14.4159 18.6524 15.9136 18.5827 17.3327 18.1675C18.7518 17.7524 20.0508 17.0038 21.1216 15.9843C22.1925 14.9649 23.004 13.7041 23.4884 12.3072C23.9727 10.9103 24.1159 9.41774 23.906 7.95421C23.6961 6.49069 23.1393 5.09859 22.2818 3.89411C21.4244 2.68963 20.2912 1.7077 18.9771 1.03029C17.6629 0.352872 16.2058 -0.000384296 14.7273 2.80861e-06ZM14.7273 16.3636C13.3248 16.3636 11.9539 15.9478 10.7878 15.1687C9.62168 14.3894 8.71282 13.282 8.17612 11.9863C7.63943 10.6906 7.49901 9.26486 7.77261 7.88936C8.04622 6.51386 8.72156 5.25038 9.71324 4.2587C10.7049 3.26702 11.9684 2.59167 13.3439 2.31807C14.7194 2.04446 16.1451 2.18489 17.4408 2.72159C18.7365 3.25828 19.844 4.16714 20.6231 5.33324C21.4023 6.49933 21.8182 7.87028 21.8182 9.27273C21.8145 11.1523 21.0662 12.9537 19.7373 14.2827C18.4082 15.6118 16.6068 16.36 14.7273 16.3636Z" fill="#76808F"/>
</svg>
