<svg width="430" height="493" viewBox="0 0 430 493" fill="none" xmlns="http://www.w3.org/2000/svg">
<path d="M299.582 453.2C355.28 453.2 400.432 408.047 400.432 352.349C400.432 296.651 355.28 251.499 299.582 251.499C243.884 251.499 198.731 296.651 198.731 352.349C198.731 408.047 243.884 453.2 299.582 453.2Z" fill="#CACED3"/>
<path d="M299.584 453.198C254.494 453.198 217.942 408.047 217.942 352.349C217.942 296.652 254.494 251.499 299.584 251.499V453.198Z" fill="#474D57"/>
<path d="M302.122 367.069L352.435 316.756L242.11 206.431L191.798 256.744L302.122 367.069Z" fill="#76808F"/>
<path d="M242.989 207.322C256.883 221.216 256.883 243.742 242.989 257.636C229.095 271.53 206.569 271.53 192.675 257.636C178.781 243.742 178.781 221.216 192.675 207.322C206.569 193.428 229.095 193.428 242.989 207.322Z" fill="#AEB4BC"/>
<path fill-rule="evenodd" clip-rule="evenodd" d="M187.952 232.564C193.904 242.858 205.034 249.782 217.781 249.782C230.527 249.782 241.655 242.858 247.611 232.564C241.655 222.272 230.527 215.348 217.781 215.348C205.034 215.348 193.906 222.272 187.952 232.564Z" fill="#FBFAFA"/>
<path d="M213.587 216.91C219.712 216.91 224.677 221.876 224.677 228.001C224.677 234.126 219.712 239.092 213.587 239.092C207.462 239.092 202.496 234.126 202.496 228.001C202.496 221.876 207.462 216.91 213.587 216.91Z" fill="#14151A"/>
<path d="M299.582 453.2C329.052 453.2 352.942 408.047 352.942 352.349C352.942 296.651 329.052 251.499 299.582 251.499C270.112 251.499 246.222 296.651 246.222 352.349C246.222 408.047 270.112 453.2 299.582 453.2Z" fill="#CACED3"/>
<path d="M198.733 351.015H400.432V492.416H198.733V351.015Z" fill="white"/>
<path d="M339.254 83.0471L345.047 77.2487L350.841 83.0471L345.047 88.8454L339.254 83.0471ZM69.4403 254.344L79.4088 244.368L89.3772 254.344L79.4088 264.321L69.4403 254.344ZM20.051 226.571L25.8447 220.772L31.6384 226.571L25.8447 232.369L20.051 226.571ZM31.7172 92.4015L33.9907 90.1262L36.2642 92.4015L33.9907 94.6768L31.7172 92.4015ZM265.008 118.978L267.282 116.703L269.555 118.978L267.282 121.254L265.008 118.978ZM402.999 123.448L405.272 121.173L407.546 123.448L405.272 125.724L402.999 123.448ZM66.7122 49.1818L68.9856 46.9065L71.2591 49.1818L68.9856 51.4571L66.7122 49.1818ZM0.198486 82.9021L3.15584 79.9424L6.11318 82.9021L3.15584 85.8618L0.198486 82.9021ZM423.101 230.191L426.058 227.231L429.015 230.191L426.058 233.151L423.101 230.191Z" fill="#3AE1F8"/>
<g clip-path="url(#clip0_4_1892)">
<path d="M219.207 78.6284C216.121 79.5833 214.396 82.8533 215.351 85.9395L237.81 158.526C238.765 161.612 242.035 163.336 245.121 162.382C248.207 161.427 249.932 158.157 248.977 155.07L226.518 82.4843C225.563 79.3981 222.293 77.6735 219.207 78.6284ZM192.28 100.283C190.453 99.7074 188.436 100.063 186.935 101.238L149.185 130.466L101.524 127.665C99.5898 127.553 97.768 128.385 96.5745 129.896C95.3936 131.408 95.0291 133.397 95.596 135.229L111.144 185.481C111.763 187.482 113.404 189 115.458 189.458C132.673 193.308 150.382 192.418 166.783 187.343C183.185 182.268 198.302 173.002 210.334 160.102C211.77 158.564 212.267 156.386 211.648 154.384L196.1 104.133C195.533 102.3 194.109 100.865 192.28 100.283Z" fill="url(#paint0_linear_4_1892)"/>
<path d="M152.758 142.015C152.093 142.22 151.391 142.306 150.686 142.268L50.6112 136.523C48.1769 136.38 46.0929 134.742 45.3725 132.414C44.6521 130.086 45.447 127.557 47.3753 126.065L126.719 64.8066C127.838 63.9463 129.234 63.5144 130.645 63.5919L230.719 69.3366C233.153 69.4796 235.237 71.1171 235.958 73.4455C236.678 75.7738 235.883 78.3022 233.955 79.7949L154.612 141.053C154.051 141.483 153.423 141.809 152.758 142.015Z" fill="url(#paint1_linear_4_1892)"/>
</g>
<defs>
<linearGradient id="paint0_linear_4_1892" x1="183.72" y1="182.103" x2="157.602" y2="97.6895" gradientUnits="userSpaceOnUse">
<stop stop-color="#ADDCFF"/>
<stop offset="0.5028" stop-color="#EAF6FF"/>
<stop offset="1" stop-color="#EAF6FF"/>
</linearGradient>
<linearGradient id="paint1_linear_4_1892" x1="152.758" y1="142.015" x2="128.573" y2="63.8476" gradientUnits="userSpaceOnUse">
<stop stop-color="#5558FF"/>
<stop offset="1" stop-color="#00C0FF"/>
</linearGradient>
<clipPath id="clip0_4_1892">
<rect width="199.499" height="199.499" fill="white" transform="translate(22.9012 59.787) rotate(-17.1925)"/>
</clipPath>
</defs>
</svg>
