<svg width="23" height="22" viewBox="0 0 23 22" fill="none" xmlns="http://www.w3.org/2000/svg">
<path d="M15.695 14.1325L15.1263 14.6987C15.1263 14.6987 13.7725 16.0437 10.0788 12.3712C6.385 8.69872 7.73875 7.35372 7.73875 7.35372L8.09625 6.99622C8.98 6.11872 9.06375 4.70872 8.2925 3.67872L6.7175 1.57497C5.7625 0.299974 3.91875 0.131225 2.825 1.21872L0.862502 3.16872C0.321252 3.70872 -0.0412481 4.40622 0.00250188 5.18122C0.115002 7.16497 1.0125 11.4312 6.0175 16.4087C11.3263 21.6862 16.3075 21.8962 18.3438 21.7062C18.9888 21.6462 19.5488 21.3187 20 20.8687L21.775 19.1037C22.975 17.9125 22.6375 15.8687 21.1025 15.035L18.715 13.7362C17.7075 13.1887 16.4825 13.35 15.695 14.1325Z" fill="#1F2328"/>
</svg>
