<svg width="24" height="20" viewBox="0 0 24 20" fill="none" xmlns="http://www.w3.org/2000/svg">
<path d="M7.87933 19.0235C9.58545 19.0352 11.2769 18.7077 12.8554 18.0603C14.4339 17.4128 15.8681 16.4581 17.0745 15.2516C18.281 14.0452 19.2357 12.6111 19.8831 11.0325C20.5307 9.45402 20.8581 7.76256 20.8463 6.05644C20.8463 5.85898 20.8425 5.66255 20.8335 5.46719C21.7254 4.82182 22.4953 4.02271 23.1069 3.1073C22.2754 3.47614 21.3931 3.71803 20.4898 3.82488C21.4414 3.25532 22.1535 2.35934 22.4937 1.30378C21.5991 1.83455 20.6205 2.20876 19.6001 2.4103C18.913 1.67952 18.0042 1.19557 17.0143 1.03335C16.0246 0.871135 15.0089 1.03969 14.1245 1.51293C13.2401 1.98617 12.5364 2.73771 12.1222 3.65124C11.708 4.56476 11.6065 5.58934 11.8333 6.56639C10.0212 6.47582 8.24837 6.00508 6.63001 5.18476C5.01165 4.36444 3.58395 3.21288 2.43961 1.80488C1.8566 2.80814 1.67795 3.9959 1.94004 5.12626C2.20213 6.25663 2.88525 7.24458 3.85028 7.8889C3.12655 7.86688 2.41868 7.67143 1.78619 7.31899C1.78515 7.33803 1.78515 7.35708 1.78515 7.37715C1.78536 8.42942 2.14959 9.4492 2.816 10.2635C3.48243 11.0779 4.41003 11.6366 5.44145 11.8449C4.77043 12.028 4.06635 12.0548 3.38335 11.9232C3.67445 12.8288 4.24135 13.6208 5.00473 14.1884C5.76812 14.7559 6.68983 15.0707 7.64092 15.0885C6.02652 16.3557 4.0328 17.0429 1.98052 17.0397C1.61719 17.0399 1.25416 17.0187 0.893311 16.9763C2.97724 18.3151 5.40244 19.0257 7.87933 19.0235Z" fill="#76808F"/>
</svg>
