<svg width="16" height="16" viewBox="0 0 16 16" fill="none" xmlns="http://www.w3.org/2000/svg">
<path d="M4.93337 6.66669H5.99337V10C5.99337 10.3667 6.29337 10.6667 6.66004 10.6667H9.32671C9.69337 10.6667 9.99337 10.3667 9.99337 10V6.66669H11.0534C11.6467 6.66669 11.9467 5.94669 11.5267 5.52669L8.46671 2.46669C8.40503 2.40489 8.33177 2.35586 8.25112 2.3224C8.17047 2.28895 8.08402 2.27173 7.99671 2.27173C7.90939 2.27173 7.82294 2.28895 7.74229 2.3224C7.66164 2.35586 7.58838 2.40489 7.52671 2.46669L4.46671 5.52669C4.04671 5.94669 4.34004 6.66669 4.93337 6.66669ZM3.33337 12.6667C3.33337 13.0334 3.63337 13.3334 4.00004 13.3334H12C12.3667 13.3334 12.6667 13.0334 12.6667 12.6667C12.6667 12.3 12.3667 12 12 12H4.00004C3.63337 12 3.33337 12.3 3.33337 12.6667Z" fill="#1F37B3"/>
</svg>
