<svg width="15" height="10" viewBox="0 0 15 10" fill="none" xmlns="http://www.w3.org/2000/svg">
<g id="Group 24">
<path id="Vector" d="M6.861 6.55467C7.50023 6.12911 7.98554 5.50914 8.24516 4.78643C8.50478 4.06372 8.52493 3.27665 8.30263 2.5416C8.08034 1.80655 7.62739 1.16256 7.01078 0.704843C6.39417 0.247129 5.64663 0 4.8787 0C4.11077 0 3.36323 0.247129 2.74662 0.704843C2.13001 1.16256 1.67706 1.80655 1.45477 2.5416C1.23247 3.27665 1.25262 4.06372 1.51224 4.78643C1.77186 5.50914 2.25717 6.12911 2.8964 6.55467C1.7401 6.98084 0.752594 7.76947 0.0812313 8.80287C0.0459468 8.85531 0.0214381 8.91425 0.00912991 8.97624C-0.00317829 9.03824 -0.00304049 9.10207 0.00953531 9.16401C0.0221111 9.22595 0.046874 9.28478 0.0823847 9.33707C0.117895 9.38936 0.163445 9.43407 0.216387 9.4686C0.269329 9.50313 0.328606 9.52679 0.390773 9.53821C0.452941 9.54963 0.516758 9.54858 0.578515 9.53512C0.640273 9.52166 0.698739 9.49606 0.750515 9.4598C0.802291 9.42355 0.846344 9.37736 0.880114 9.32393C1.31317 8.65787 1.90576 8.11054 2.60405 7.73164C3.30235 7.35274 4.08423 7.15428 4.8787 7.15428C5.67317 7.15428 6.45505 7.35274 7.15335 7.73164C7.85164 8.11054 8.44423 8.65787 8.87729 9.32393C8.94724 9.4279 9.0553 9.50017 9.17811 9.5251C9.30091 9.55003 9.4286 9.52563 9.53356 9.45717C9.63852 9.38871 9.71232 9.2817 9.739 9.15926C9.76569 9.03682 9.74312 8.9088 9.67617 8.80287C9.00481 7.76947 8.0173 6.98084 6.861 6.55467ZM2.2555 3.57854C2.2555 3.05972 2.40935 2.55255 2.69759 2.12117C2.98583 1.68979 3.39552 1.35356 3.87485 1.15502C4.35417 0.956477 4.88161 0.904529 5.39046 1.00575C5.89931 1.10696 6.36672 1.3568 6.73358 1.72366C7.10044 2.09052 7.35028 2.55793 7.45149 3.06678C7.55271 3.57563 7.50076 4.10307 7.30222 4.58239C7.10367 5.06172 6.76745 5.4714 6.33607 5.75964C5.90469 6.04789 5.39752 6.20173 4.8787 6.20173C4.18323 6.20094 3.51647 5.92432 3.02469 5.43255C2.53292 4.94077 2.25629 4.27401 2.2555 3.57854ZM14.7837 9.46284C14.6777 9.53193 14.5487 9.5561 14.4249 9.53005C14.3011 9.504 14.1928 9.42986 14.1237 9.32393C13.6911 8.65747 13.0986 8.1099 12.4002 7.73116C11.7018 7.35242 10.9196 7.15456 10.1251 7.15562C9.9986 7.15562 9.87729 7.10537 9.78784 7.01593C9.6984 6.92649 9.64815 6.80517 9.64815 6.67868C9.64815 6.55219 9.6984 6.43087 9.78784 6.34143C9.87729 6.25198 9.9986 6.20173 10.1251 6.20173C10.5114 6.20137 10.8929 6.11569 11.2422 5.95081C11.5916 5.78593 11.9002 5.54593 12.146 5.24795C12.3919 4.94997 12.5689 4.60136 12.6644 4.22705C12.7599 3.85273 12.7715 3.46194 12.6985 3.0826C12.6255 2.70326 12.4696 2.34474 12.2419 2.03264C12.0142 1.72054 11.7205 1.46258 11.3816 1.27718C11.0426 1.09178 10.667 0.983527 10.2814 0.96015C9.89576 0.936772 9.50976 0.998849 9.15093 1.14195C9.09243 1.16724 9.02945 1.18055 8.96571 1.18108C8.90198 1.18162 8.83878 1.16938 8.77985 1.14508C8.72093 1.12078 8.66747 1.08492 8.62264 1.03961C8.57781 0.994303 8.54252 0.940468 8.51885 0.881289C8.49518 0.82211 8.48361 0.758786 8.48482 0.695059C8.48604 0.631333 8.50002 0.568497 8.52593 0.510263C8.55184 0.45203 8.58916 0.399581 8.63568 0.356015C8.68221 0.312449 8.73699 0.278651 8.7968 0.256617C9.61802 -0.0708946 10.5314 -0.0826804 11.3608 0.223533C12.1902 0.529746 12.8768 1.13226 13.2882 1.91484C13.6996 2.69743 13.8065 3.60463 13.5885 4.46143C13.3704 5.31824 12.8428 6.06394 12.1074 6.55467C13.2637 6.98084 14.2512 7.76947 14.9226 8.80287C14.9916 8.90881 15.0158 9.03786 14.9898 9.16162C14.9637 9.28539 14.8896 9.39374 14.7837 9.46284Z" fill="black"/>
</g>
</svg>
