<svg width="15" height="11" viewBox="0 0 15 11" fill="none" xmlns="http://www.w3.org/2000/svg">
<g id="Group 25">
<path id="Vector" d="M14.9702 5.33015C14.3821 3.80893 13.3612 2.49338 12.0335 1.54609C10.7059 0.598795 9.12979 0.0612882 7.5 0C5.87021 0.0612882 4.2941 0.598795 2.96647 1.54609C1.63884 2.49338 0.617885 3.80893 0.0297881 5.33015C-0.00992938 5.44001 -0.00992938 5.5603 0.0297881 5.67016C0.617885 7.19138 1.63884 8.50693 2.96647 9.45422C4.2941 10.4015 5.87021 10.939 7.5 11.0003C9.12979 10.939 10.7059 10.4015 12.0335 9.45422C13.3612 8.50693 14.3821 7.19138 14.9702 5.67016C15.0099 5.5603 15.0099 5.44001 14.9702 5.33015ZM7.5 10.0003C4.84993 10.0003 2.04985 8.03523 1.03482 5.50016C2.04985 2.96508 4.84993 1.00003 7.5 1.00003C10.1501 1.00003 12.9502 2.96508 13.9652 5.50016C12.9502 8.03523 10.1501 10.0003 7.5 10.0003Z" fill="black"/>
<path id="Vector_2" d="M7.50006 2.50012C6.90669 2.50012 6.32666 2.67607 5.8333 3.00573C5.33994 3.33538 4.95541 3.80393 4.72834 4.35212C4.50127 4.90032 4.44186 5.50353 4.55762 6.08549C4.67338 6.66745 4.95911 7.20202 5.37868 7.62159C5.79824 8.04116 6.33281 8.32689 6.91477 8.44265C7.49673 8.5584 8.09994 8.49899 8.64814 8.27192C9.19633 8.04485 9.66488 7.66033 9.99453 7.16697C10.3242 6.6736 10.5001 6.09357 10.5001 5.50021C10.5001 4.70453 10.1841 3.94145 9.62144 3.37883C9.05881 2.8162 8.29573 2.50012 7.50006 2.50012ZM7.50006 7.50026C7.10448 7.50026 6.71779 7.38296 6.38888 7.16319C6.05998 6.94342 5.80362 6.63106 5.65224 6.26559C5.50086 5.90013 5.46126 5.49799 5.53843 5.11002C5.6156 4.72204 5.80609 4.36567 6.0858 4.08595C6.36551 3.80624 6.72189 3.61575 7.10986 3.53858C7.49784 3.46141 7.89998 3.50102 8.26544 3.6524C8.63091 3.80377 8.94327 4.06013 9.16304 4.38904C9.38281 4.71794 9.50011 5.10463 9.50011 5.50021C9.50011 6.03065 9.28939 6.53938 8.91431 6.91446C8.53923 7.28954 8.0305 7.50026 7.50006 7.50026Z" fill="black"/>
</g>
</svg>
