<svg width="25" height="22" viewBox="0 0 25 22" fill="none" xmlns="http://www.w3.org/2000/svg">
<path d="M22.3125 4.4375H3.5625C3.31386 4.4375 3.0754 4.33873 2.89959 4.16291C2.72377 3.9871 2.625 3.74864 2.625 3.5C2.625 3.25136 2.72377 3.0129 2.89959 2.83709C3.0754 2.66127 3.31386 2.5625 3.5625 2.5625H19.5C19.7486 2.5625 19.9871 2.46373 20.1629 2.28791C20.3387 2.1121 20.4375 1.87364 20.4375 1.625C20.4375 1.37636 20.3387 1.1379 20.1629 0.962088C19.9871 0.786272 19.7486 0.6875 19.5 0.6875H3.5625C2.81658 0.6875 2.10121 0.983816 1.57376 1.51126C1.04632 2.03871 0.75 2.75408 0.75 3.5V18.5C0.75 19.2459 1.04632 19.9613 1.57376 20.4887C2.10121 21.0162 2.81658 21.3125 3.5625 21.3125H22.3125C22.8098 21.3125 23.2867 21.115 23.6383 20.7633C23.99 20.4117 24.1875 19.9348 24.1875 19.4375V6.3125C24.1875 5.81522 23.99 5.33831 23.6383 4.98668C23.2867 4.63504 22.8098 4.4375 22.3125 4.4375ZM18.0938 13.8125C17.8156 13.8125 17.5437 13.73 17.3125 13.5755C17.0812 13.421 16.901 13.2014 16.7945 12.9444C16.6881 12.6874 16.6603 12.4047 16.7145 12.1319C16.7688 11.8591 16.9027 11.6085 17.0994 11.4119C17.296 11.2152 17.5466 11.0813 17.8194 11.027C18.0922 10.9728 18.3749 11.0006 18.6319 11.107C18.8889 11.2135 19.1085 11.3937 19.263 11.625C19.4175 11.8562 19.5 12.1281 19.5 12.4062C19.5 12.7792 19.3518 13.1369 19.0881 13.4006C18.8244 13.6643 18.4667 13.8125 18.0938 13.8125Z" fill="#1F2328"/>
</svg>
