<svg width="184" height="153" viewBox="0 0 184 153" fill="none" xmlns="http://www.w3.org/2000/svg">
<path d="M183.295 79.0322L152.912 13.3416C149.163 5.24025 140.967 0 132.02 0H51.98C43.033 0 34.8373 5.24025 31.096 13.334L0.705333 79.0322C0.237667 80.0343 0 81.1283 0 82.2375V130.05C0 142.703 10.3193 153 23 153H161C173.681 153 184 142.703 184 130.05V82.2375C184 81.1283 183.762 80.0343 183.295 79.0322ZM45.0187 19.7446C46.2683 17.0442 48.9977 15.3 51.98 15.3H132.02C135.002 15.3 137.732 17.0442 138.981 19.7446L165.232 76.5H149.446C143.482 76.5 138.314 80.3326 136.597 86.0396L128.371 113.388C128.133 114.199 127.397 114.75 126.546 114.75H57.454C56.603 114.75 55.867 114.199 55.6217 113.381L47.3953 86.0396C45.678 80.3326 40.5183 76.5 34.546 76.5H18.768L45.0187 19.7446Z" fill="#9EA3AE" fill-opacity="0.12"/>
</svg>
